<?xml version="1.0" encoding="utf-8"?>
<!-- Generator: Adobe Illustrator 24.0.0, SVG Export Plug-In . SVG Version: 6.00 Build 0)  -->
<svg version="1.1" id="Calque_1" xmlns="http://www.w3.org/2000/svg" xmlns:xlink="http://www.w3.org/1999/xlink" x="0px" y="0px"
	 viewBox="0 0 441 423" style="enable-background:new 0 0 441 423;" xml:space="preserve">
<style type="text/css">
	.st0{clip-path:url(#SVGID_2_);}
	.st1{fill:#FFFFFF;}
</style>
<g>
	<defs>
		<rect id="SVGID_1_" y="-96" width="440.2" height="519"/>
	</defs>
	<clipPath id="SVGID_2_">
		<use xlink:href="#SVGID_1_"  style="overflow:visible;"/>
	</clipPath>
	<g class="st0">
		<path class="st1" d="M63.5,192.9C8.3,188.2,0,248.8,0,270.3c0,45,16.9,139.2,66.7,150.8c59.4,13.9,94.7-52.7,94.7-52.7L63.5,192.9
			z M70.4,398.3c-18.3,4.4-42.2-30-53.3-76.8s-5.2-88.2,13.1-92.5s41.9,29.9,53,76.6S88.7,393.9,70.4,398.3z"/>
		<path class="st1" d="M439.7,36.1l-9.1-3.8c0,0-22.1-28.9-60.9-53.3v-6.9c0,0,26.7-20.6-25.9-38.8s-102.5-38.8-220.9-24.4
			C80.6-86,53.4-81.3,35.9-77.4C4.3-70.4,4.3-66,4.3-66v14.2l36.2-11.8c0,0,9.1,90.8,5.3,96.8C42,39.2,4.1,69.3,4.3,96.8v110.5
			c0,0,20.4-41.8,46.8-25.6c22.9,25.8,57.1,79.9,78.5,177.4c17.5,7.6,66.3,23.6,108.9,18.3c42.7-5.3,156.9-59.4,201.1-110.5
			C439.7,199.9,439.7,36.1,439.7,36.1z M349.8,139.8c-16,3-147,25.9-187.4,16.8c-10.7-13.7-15.8-57.9,5.3-67l25.9-6.1
			c31.2,2.3,146.3-6.9,159.2,0s10.7,31.2,10.7,31.2S365.8,136.8,349.8,139.8z M161.6,24.1L120-32.8l56.7-26.6
			c0,0,123.4,8.4,161.1,30.1L369.6-11l60.3,52.8c0.2,0.1,0.5,0.3,0.6,0.6l-0.6-0.6C413.9,31.4,161.6,24.1,161.6,24.1z"/>
	</g>
</g>
</svg>
