<svg width="441" height="519" viewBox="0 0 441 519" fill="none" xmlns="http://www.w3.org/2000/svg">
<g clip-path="url(#clip0_1003_93)">
<path d="M63.52 288.92C8.29 284.18 0 344.81 0 366.26C0 411.26 16.92 505.46 66.65 517.09C126.08 530.99 161.31 464.38 161.31 464.38L63.52 288.92ZM70.38 494.29C52.05 498.64 28.19 464.29 17.11 417.51C6.03 370.73 11.91 329.34 30.24 325C48.57 320.66 72.15 354.87 83.24 401.63C94.33 448.39 88.73 489.94 70.38 494.29Z" fill="white"/>
<path d="M439.66 132.1L430.54 128.29C430.54 128.29 408.46 99.34 369.6 75V68.11C369.6 68.11 396.27 47.54 343.7 29.26C291.13 10.98 241.2 -9.59 122.77 4.88C80.5596 10 53.3796 14.72 35.9096 18.59C4.31961 25.6 4.29962 30 4.29962 30V44.17L40.4896 32.4C40.4896 32.4 49.6296 123.19 45.8196 129.22C42.0096 135.25 4.09962 165.27 4.29962 192.8V303.26C4.29962 303.26 24.7096 261.5 51.1496 277.71C74.0096 303.5 108.29 357.59 129.62 455.1C147.14 462.72 195.9 478.71 238.56 473.38C281.22 468.05 395.5 414 439.68 362.92C439.68 295.89 439.66 132.1 439.66 132.1ZM349.8 235.8C333.8 238.8 202.8 261.7 162.38 252.56C151.72 238.85 146.56 194.61 167.71 185.56L193.62 179.47C224.86 181.76 339.89 172.61 352.85 179.47C365.81 186.33 363.51 210.71 363.51 210.71C363.51 210.71 365.79 232.76 349.8 235.8ZM161.62 120.14L119.97 63.23L176.69 36.6C176.69 36.6 300.04 45 337.82 66.69L369.6 85L429.92 137.77C430.163 137.912 430.377 138.098 430.55 138.32L429.92 137.77C413.93 127.37 161.62 120.14 161.62 120.14Z" fill="white"/>
</g>
<defs>
<clipPath id="clip0_1003_93">
<rect width="440.16" height="519" fill="white"/>
</clipPath>
</defs>
</svg>
