<svg width="370" height="268" viewBox="0 0 370 268" fill="none" xmlns="http://www.w3.org/2000/svg">
<path fill-rule="evenodd" clip-rule="evenodd" d="M365.978 143.306C365.201 153.498 369.745 186.307 369.745 186.307C369.745 186.307 371.788 219.321 364.306 232.197C361.13 237.67 359.978 241.653 359.705 244.423C359.278 248.746 356.853 252.65 353.225 255.189C345.033 260.917 331.802 268.93 323.177 267.855C309.921 266.206 292.243 252.01 292.243 252.01H185.008V252.057H77.7563C77.7563 252.057 60.0796 266.252 46.823 267.902C38.198 268.977 24.9665 260.964 16.7738 255.236C13.1457 252.697 10.7224 248.793 10.2947 244.47C10.0225 241.701 8.86974 237.717 5.69453 232.243C-1.78856 219.368 0.254999 186.354 0.254999 186.354C0.254999 186.354 4.7991 153.545 4.02202 143.353L4.01559 143.27C16.8279 151.098 77.4191 150.764 88.3955 149.484C99.3766 148.205 99.9287 139.896 100.571 130.23L100.606 129.707L100.633 129.301C101.313 119.243 91.795 118.229 91.795 118.229L16.3301 113.166L15.1969 111.733H12.1531L19.6305 94.2344C19.6305 94.2344 38.3266 82.0184 40.364 71.7868C41.8569 64.2843 59.601 39.7624 73.7942 23.0329C78.9657 16.9349 83.6698 11.8766 86.9371 9.05249C99.076 -1.42356 183.62 0.114432 184.991 0.139924V0.093439C184.991 0.093439 270.824 -1.55602 283.063 9.0055C286.33 11.8296 291.034 16.8879 296.206 22.9859C310.399 39.7154 328.143 64.2373 329.636 71.7398C331.674 81.9715 350.37 94.1874 350.37 94.1874L357.653 111.233H354.717L353.585 112.666L278.119 117.729C278.119 117.729 268.601 118.743 269.282 128.801L269.313 129.262L269.344 129.73C269.986 139.397 270.538 147.705 281.519 148.984C292.531 150.268 353.482 150.6 366.023 142.694C366.009 142.897 365.994 143.101 365.978 143.306ZM312.439 81.6705C333.651 81.6705 330.726 75.8496 330.726 75.8496L185 83.9402C185 83.9402 291.228 81.6705 312.439 81.6705ZM39.2729 75.8496C39.2729 75.8496 35.7187 81.4715 57.0214 81.4715C74.5114 81.4715 149.559 82.9555 175.859 83.4866L183.964 83.9398L330.724 75.8492L327.624 70.287L315.221 49.5549L295.068 22.7549H74.9281L59.9421 41.97L47.0231 60.1737L39.2717 75.8492L39.4158 75.8573L39.2729 75.8496Z" fill="white"/>
</svg>
