<svg width="372" height="225" viewBox="0 0 372 225" fill="none" xmlns="http://www.w3.org/2000/svg">
<path fill-rule="evenodd" clip-rule="evenodd" d="M305.471 28.2127L335.895 55.2335C352.103 59.9506 358.598 71.4985 359.573 73.4034C356.783 74.765 350.431 77.8203 348.325 78.4611C345.597 79.2919 347.085 86.1023 347.085 86.1023C347.085 86.1023 349.896 97.4654 351.963 98.179C354.03 98.8927 362.463 95.2157 362.463 95.2157H365.026L366.61 92.8311C367.42 95.9529 369.516 105.422 367.477 113.206C364.997 122.674 367.642 125 367.642 125C367.642 125 367.954 125.617 368.41 126.727C368.515 126.983 368.628 127.264 368.746 127.57C371.337 134.274 376.633 152.772 363.343 167.191C346.809 185.131 259.339 217.855 223.293 223.669C187.248 229.483 176.004 214.367 176.004 214.367C176.004 214.367 174.912 208.874 172.76 200.638C166.493 176.658 151.23 129.424 127.722 126.827C96.1408 123.338 112.179 180.48 112.179 180.48L24.7101 126.328C17.7652 80.6483 7.0175 74.0039 7.0175 74.0039C7.0175 74.0039 1.1475 72.7581 2.71851 101.383C-6.70603 74.9419 11.3996 51.828 11.3996 51.828C11.3996 51.828 24.0487 45.1006 31.1032 42.2766C39.1505 29.5415 63.2908 10.8269 77.5115 5.51128C100.88 -3.23746 198.877 0.749392 220.703 1.96753C238.12 2.74257 288.647 12.2528 288.647 12.2528C288.647 12.2528 300.883 14.8686 302.785 15.9067C304.52 16.8545 304.89 17.8363 305.213 18.6953C305.244 18.7775 305.275 18.8586 305.306 18.9384C305.664 19.8518 304.149 19.5751 304.149 19.5751C303.818 19.9348 305.471 28.2127 305.471 28.2127ZM192.044 100.912C184.275 103.321 187.66 124.915 187.66 124.915C187.66 124.915 192.538 126.152 207.172 125.912C222.962 127.573 261.571 120.181 269.425 117.69C276.513 115.441 274.983 106.225 274.191 101.458C274.105 100.942 274.028 100.479 273.972 100.082C273.393 96.0121 269.673 94.8498 266.862 94.5174C264.051 94.1849 204.774 99.3346 204.774 99.3346C204.774 99.3346 199.813 98.5037 192.044 100.912ZM96.3582 80.7057L101.318 79.9307C107.491 82.6994 110.908 80.8169 110.908 80.8169L115.649 84.0835L113.444 88.2363H111.79L101.98 86.3296L96.3582 83.3638V80.7057ZM58.6635 69.6303H54.0336L52.1597 68.7441L48.9631 69.6303V72.1768L51.7186 74.2811C51.7186 74.2811 59.2773 75.6104 59.7414 75.1673C60.2065 74.7242 61.1987 72.0007 61.1987 72.0007L58.6635 69.6303ZM133.173 10.2056C134.437 10.6462 135.424 11.6561 135.837 12.9351C138.641 21.6255 141.814 52.4732 141.225 58.8857C141.127 59.948 141.007 60.9071 140.847 61.7958C140.642 62.9385 140.372 63.9643 140.004 64.9417L133.173 70.5667L70.0144 60.6581C78.6124 38.3902 91.6135 7.0406 91.6135 7.0406C102.782 6.3844 126.731 6.09873 133.173 10.2056ZM67.2653 59.8316L28.5366 53.1839C33.8023 43.2975 50.0412 20.7634 72.8708 9.71795L77.4571 7.6725L89.6872 7.16113L67.2653 59.8316ZM261.419 9.71484L183.452 17.8967L176.318 21.9876L172.75 30.1694L195.172 75.1694L327.156 48.5785L304.224 28.6353L301.677 16.8739L261.419 9.71484Z" fill="white"/>
<path fill-rule="evenodd" clip-rule="evenodd" d="M34.2169 49.3378H30.6619C30.6619 49.3378 33.9691 41.1152 31.4064 39.6204C28.8436 38.1256 20.8239 38.0427 19.1702 39.122C17.5171 40.2018 10.5723 43.5238 10.5723 44.4376V47.3446C10.5723 47.3446 11.4819 56.3147 27.2726 55.0689L32.3981 55.5668L34.2169 49.3378Z" fill="white"/>
</svg>
