<?xml version="1.0" encoding="utf-8"?>
<!-- Generator: Adobe Illustrator 24.0.0, SVG Export Plug-In . SVG Version: 6.00 Build 0)  -->
<svg version="1.1" id="Calque_1" xmlns="http://www.w3.org/2000/svg" xmlns:xlink="http://www.w3.org/1999/xlink" x="0px" y="0px"
	 viewBox="0 0 441 423" style="enable-background:new 0 0 441 423;" xml:space="preserve">
<style type="text/css">
	.st0{clip-path:url(#SVGID_2_);}
	.st1{fill:#FFFFFF;}
</style>
<g>
	<defs>
		<rect id="SVGID_1_" y="-96" width="440.2" height="519"/>
	</defs>
	<clipPath id="SVGID_2_">
		<use xlink:href="#SVGID_1_"  style="overflow:visible;"/>
	</clipPath>
	<g class="st0">
		<path class="st1" d="M376.6,192.9c55.2-4.7,63.5,55.9,63.5,77.3c0,45-16.9,139.2-66.6,150.8c-59.4,13.9-94.7-52.7-94.7-52.7
			L376.6,192.9z M369.8,398.3c18.3,4.4,42.2-30,53.3-76.8c11.1-46.8,5.2-88.2-13.1-92.5c-18.3-4.3-41.9,29.9-53,76.6
			C345.8,352.4,351.4,393.9,369.8,398.3z"/>
		<path class="st1" d="M0.5,36.1l9.1-3.8c0,0,22.1-28.9,60.9-53.3v-6.9c0,0-26.7-20.6,25.9-38.8C149-85,199-105.6,317.4-91.1
			c42.2,5.1,69.4,9.8,86.9,13.7c31.6,7,31.6,11.4,31.6,11.4v14.2l-36.2-11.8c0,0-9.1,90.8-5.3,96.8s41.7,36.1,41.5,63.6v110.5
			c0,0-20.4-41.8-46.9-25.6c-22.9,25.8-57.1,79.9-78.5,177.4c-17.5,7.6-66.3,23.6-108.9,18.3C158.9,372,44.7,318,0.5,266.9
			C0.5,199.9,0.5,36.1,0.5,36.1z M90.4,139.8c16,3,147,25.9,187.4,16.8c10.7-13.7,15.8-57.9-5.3-67l-25.9-6.1
			c-31.2,2.3-146.3-6.9-159.2,0c-13,6.9-10.7,31.2-10.7,31.2S74.4,136.8,90.4,139.8z M278.5,24.1l41.7-56.9l-56.7-26.6
			c0,0-123.4,8.4-161.1,30.1L70.6-11L10.2,41.8c-0.2,0.1-0.5,0.3-0.6,0.6l0.6-0.6C26.2,31.4,278.5,24.1,278.5,24.1z"/>
	</g>
</g>
</svg>
