<svg width="372" height="225" viewBox="0 0 372 225" fill="none" xmlns="http://www.w3.org/2000/svg">
<path fill-rule="evenodd" clip-rule="evenodd" d="M66.529 28.2127L36.1046 55.2335C19.8967 59.9506 13.4025 71.4985 12.4267 73.4034C15.217 74.765 21.5689 77.8203 23.6746 78.4611C26.4026 79.2919 24.9146 86.1023 24.9146 86.1023C24.9146 86.1023 22.1035 97.4654 20.0369 98.179C17.9703 98.8927 9.53699 95.2157 9.53699 95.2157H6.97424L5.38992 92.8311C4.57983 95.9529 2.48373 105.422 4.5228 113.206C7.00296 122.674 4.35757 125 4.35757 125C4.35757 125 4.04617 125.617 3.5896 126.727C3.48495 126.983 3.37183 127.264 3.25418 127.57C0.663361 134.274 -4.63342 152.772 8.65656 167.191C25.1912 185.131 112.661 217.855 148.707 223.669C184.752 229.483 195.996 214.367 195.996 214.367C195.996 214.367 197.088 208.874 199.24 200.638C205.507 176.658 220.77 129.424 244.278 126.827C275.859 123.338 259.821 180.48 259.821 180.48L347.29 126.328C354.235 80.6483 364.983 74.0039 364.983 74.0039C364.983 74.0039 370.852 72.7581 369.281 101.383C378.706 74.9419 360.6 51.828 360.6 51.828C360.6 51.828 347.951 45.1006 340.897 42.2766C332.849 29.5415 308.709 10.8269 294.489 5.51128C271.12 -3.23746 173.123 0.749392 151.297 1.96753C133.88 2.74257 83.3529 12.2528 83.3529 12.2528C83.3529 12.2528 71.1173 14.8686 69.2154 15.9067C67.48 16.8545 67.1104 17.8363 66.7869 18.6953C66.756 18.7775 66.7254 18.8586 66.6942 18.9384C66.3357 19.8518 67.8511 19.5751 67.8511 19.5751C68.1821 19.9348 66.529 28.2127 66.529 28.2127ZM179.956 100.912C187.725 103.321 184.34 124.915 184.34 124.915C184.34 124.915 179.462 126.152 164.828 125.912C149.038 127.573 110.429 120.181 102.575 117.69C95.4871 115.441 97.0175 106.225 97.8092 101.458C97.8948 100.942 97.9717 100.479 98.0282 100.082C98.6069 96.0121 102.327 94.8498 105.138 94.5174C107.949 94.1849 167.226 99.3346 167.226 99.3346C167.226 99.3346 172.187 98.5037 179.956 100.912ZM275.642 80.7057L270.682 79.9307C264.509 82.6994 261.092 80.8169 261.092 80.8169L256.351 84.0835L258.556 88.2363H260.21L270.02 86.3296L275.642 83.3638V80.7057ZM313.337 69.6303H317.966L319.84 68.7441L323.037 69.6303V72.1768L320.281 74.2811C320.281 74.2811 312.723 75.6104 312.259 75.1673C311.794 74.7242 310.801 72.0007 310.801 72.0007L313.337 69.6303ZM238.827 10.2056C237.563 10.6462 236.576 11.6561 236.163 12.9351C233.359 21.6255 230.186 52.4732 230.775 58.8857C230.873 59.948 230.993 60.9071 231.153 61.7958C231.358 62.9385 231.628 63.9643 231.996 64.9417L238.827 70.5667L301.986 60.6581C293.388 38.3902 280.386 7.0406 280.386 7.0406C269.218 6.3844 245.269 6.09873 238.827 10.2056ZM304.735 59.8316L343.463 53.1839C338.198 43.2975 321.959 20.7634 299.129 9.71795L294.543 7.6725L282.313 7.16113L304.735 59.8316ZM110.581 9.71484L188.548 17.8967L195.682 21.9876L199.25 30.1694L176.828 75.1694L44.8441 48.5785L67.7756 28.6353L70.3235 16.8739L110.581 9.71484Z" fill="white"/>
<path fill-rule="evenodd" clip-rule="evenodd" d="M337.783 49.3378H341.338C341.338 49.3378 338.031 41.1152 340.594 39.6204C343.156 38.1256 351.176 38.0427 352.83 39.122C354.483 40.2018 361.428 43.5238 361.428 44.4376V47.3446C361.428 47.3446 360.518 56.3147 344.727 55.0689L339.602 55.5668L337.783 49.3378Z" fill="white"/>
</svg>
