<svg width="359" height="349" viewBox="0 0 359 349" fill="none" xmlns="http://www.w3.org/2000/svg">
<path d="M242.981 319.66C155.459 371.124 105.31 338.522 90.1492 314.346C90.1492 314.346 64.1703 281.722 40.3621 246.328C20.3279 216.545 1.83074 184.801 1.64364 168.886C1.49445 156.196 5.54223 147.985 12.0076 142.844C12.0998 142.761 12.1951 142.686 12.2931 142.62C25.5649 132.361 48.6983 134.672 66.7936 137.745C73.2129 113.433 86.8712 63.089 90.1492 56.2052C93.4272 49.3214 102.715 49.2395 106.949 50.059H313.048H357.305C342.964 96.6337 311.413 198.879 299.94 235.265C296.054 247.589 290.24 259.931 283.582 271.309C270.582 293.526 257.322 311.227 242.981 319.66Z" fill="white"/>
<path d="M40.3621 246.328C20.3279 216.545 1.83074 184.801 1.64364 168.886C1.49226 156.01 5.66165 147.746 12.2931 142.62M40.3621 246.328C64.1703 281.722 90.1492 314.346 90.1492 314.346C105.31 338.522 155.459 371.124 242.981 319.66C257.322 311.227 270.582 293.526 283.582 271.309C290.24 259.931 296.054 247.589 299.94 235.265C311.413 198.879 342.964 96.6337 357.305 50.059H313.048M40.3621 246.328L40.9799 244.689M12.2931 142.62C25.5649 132.361 48.6983 134.672 66.7936 137.745C73.2129 113.433 86.8712 63.089 90.1492 56.2052C93.4272 49.3214 102.715 49.2395 106.949 50.059H313.048M12.2931 142.62C8.46965 145.22 8.73063 159.847 40.3621 197.555C79.9015 244.689 107.764 314.32 199.548 266.392L239.703 243.447L313.048 50.059" stroke="#E6E7E6" stroke-width="2.82026" stroke-linecap="round" stroke-linejoin="round"/>
<path d="M103.667 200.014L103.639 201.424L103.667 200.014ZM155.71 166.018L154.363 165.6L155.71 166.018ZM39.6598 244.195C39.3863 244.924 39.7558 245.737 40.485 246.01C41.2142 246.284 42.027 245.914 42.3004 245.185L39.6598 244.195ZM157.056 166.436C162.684 148.303 168.154 126.868 175.155 106.064C182.141 85.3059 190.555 65.5055 201.895 50.9253L199.669 49.1938C188.027 64.1614 179.493 84.333 172.482 105.164C165.488 125.948 159.912 147.719 154.363 165.6L157.056 166.436ZM103.639 201.424C111.858 201.59 123.268 198.959 133.564 193.283C143.87 187.602 153.227 178.775 157.056 166.436L154.363 165.6C150.816 177.027 142.099 185.358 132.202 190.814C122.294 196.275 111.37 198.759 103.696 198.604L103.639 201.424ZM42.3004 245.185C52.1118 219.022 72.6085 200.797 103.639 201.424L103.696 198.604C71.2363 197.948 49.8032 217.146 39.6598 244.195L42.3004 245.185Z" fill="#E6E7E6"/>
<path d="M126.421 24.7563C122.733 25.166 109.212 29.6732 108.802 30.4927C108.392 31.3122 105.934 30.4927 108.802 44.8339C111.096 56.3069 118.226 55.0776 118.226 55.0776C118.226 55.0776 134.206 55.4874 135.435 55.0776C136.665 54.6679 141.172 52.6192 139.943 44.8339C138.713 37.0487 138.257 23.4411 126.421 24.7563Z" fill="white"/>
<path d="M126.421 138.256L125.04 137.971L126.421 138.256ZM160.694 50.6536C161.192 50.0553 161.112 49.1662 160.513 48.6676C159.915 48.169 159.026 48.2499 158.527 48.8481L160.694 50.6536ZM108.802 30.4927L110.063 31.1234L110.063 31.1234L108.802 30.4927ZM126.421 24.7563L126.265 23.3548L126.421 24.7563ZM139.943 44.8339L141.335 44.614V44.614L139.943 44.8339ZM135.435 55.0776L135.881 56.4154H135.881L135.435 55.0776ZM118.226 55.0776L118.262 53.668C118.17 53.6656 118.077 53.6723 117.986 53.688L118.226 55.0776ZM108.802 44.8339L110.185 44.5574V44.5574L108.802 44.8339ZM46.1104 173.495L46.2219 174.901L46.1104 173.495ZM11.573 202.172C11.344 202.917 11.7617 203.706 12.5061 203.935C13.2504 204.164 14.0395 203.746 14.2685 203.002L11.573 202.172ZM66.5102 135.811C65.8461 135.405 64.978 135.613 64.5713 136.277C64.1646 136.942 64.3733 137.81 65.0375 138.216L66.5102 135.811ZM279.257 267.737L278.521 268.939C278.526 268.943 278.531 268.946 278.536 268.949L279.257 267.737ZM282.085 270.7L283.422 271.146L284.314 268.471L282.976 268.025L282.085 270.7ZM127.802 138.542C130.241 126.752 135.953 107.769 142.344 90.1829C145.537 81.3958 148.89 72.982 152.077 66.01C155.282 58.9982 158.264 53.5689 160.694 50.6536L158.527 48.8481C155.835 52.0791 152.722 57.8154 149.512 64.8375C146.284 71.8993 142.902 80.3877 139.693 89.2197C133.279 106.872 127.518 125.995 125.04 137.971L127.802 138.542ZM110.063 31.1234C109.951 31.3473 109.81 31.464 109.8 31.4725C109.768 31.5003 109.756 31.505 109.785 31.4865C109.842 31.4503 109.955 31.3868 110.142 31.2958C110.51 31.1168 111.047 30.8874 111.725 30.6205C113.075 30.0894 114.892 29.4456 116.823 28.8104C120.745 27.5201 124.905 26.3435 126.577 26.1578L126.265 23.3548C124.249 23.5788 119.804 24.8607 115.941 26.1313C113.98 26.7766 112.109 27.4388 110.693 27.9961C109.988 28.2734 109.373 28.5338 108.908 28.7598C108.679 28.8712 108.456 28.9889 108.268 29.109C108.175 29.1686 108.064 29.2453 107.956 29.3382C107.871 29.4118 107.678 29.587 107.541 29.8621L110.063 31.1234ZM138.55 45.0538C139.117 48.6443 138.34 50.7064 137.474 51.8877C136.581 53.1057 135.444 53.5883 134.989 53.7399L135.881 56.4154C136.656 56.1572 138.388 55.4106 139.748 53.5555C141.135 51.6636 141.998 48.8088 141.335 44.614L138.55 45.0538ZM134.989 53.7399C135.074 53.7117 135.078 53.7231 134.891 53.7428C134.743 53.7585 134.537 53.7736 134.272 53.7869C133.744 53.8136 133.04 53.8309 132.212 53.8404C130.558 53.8595 128.458 53.8468 126.387 53.8213C124.318 53.7957 122.287 53.7574 120.772 53.7254C120.015 53.7095 119.387 53.6951 118.948 53.6847C118.729 53.6795 118.557 53.6753 118.441 53.6724C118.382 53.671 118.337 53.6699 118.307 53.6691C118.292 53.6687 118.281 53.6684 118.273 53.6682C118.27 53.6681 118.267 53.6681 118.265 53.668C118.264 53.668 118.263 53.668 118.263 53.668C118.263 53.668 118.262 53.668 118.262 53.668C118.262 53.668 118.262 53.668 118.226 55.0776C118.19 56.4873 118.19 56.4873 118.19 56.4873C118.19 56.4873 118.19 56.4873 118.191 56.4873C118.191 56.4873 118.192 56.4873 118.193 56.4874C118.195 56.4874 118.198 56.4875 118.202 56.4876C118.21 56.4878 118.221 56.4881 118.236 56.4885C118.267 56.4892 118.312 56.4904 118.371 56.4918C118.489 56.4947 118.661 56.4989 118.882 56.5042C119.322 56.5146 119.952 56.529 120.712 56.5451C122.232 56.5771 124.272 56.6156 126.352 56.6413C128.43 56.6669 130.556 56.6799 132.244 56.6605C133.086 56.6508 133.833 56.633 134.414 56.6036C134.704 56.589 134.967 56.5708 135.188 56.5475C135.37 56.5282 135.643 56.4947 135.881 56.4154L134.989 53.7399ZM118.226 55.0776C117.986 53.688 117.987 53.6878 117.989 53.6876C117.989 53.6876 117.99 53.6874 117.99 53.6873C117.992 53.6871 117.993 53.6869 117.994 53.6867C117.996 53.6864 117.998 53.6861 117.999 53.6859C118.002 53.6855 118.003 53.6853 118.002 53.6854C118.001 53.6856 117.994 53.6866 117.981 53.6881C117.955 53.6912 117.905 53.6962 117.836 53.7001C117.697 53.7079 117.479 53.7111 117.204 53.6861C116.654 53.6361 115.884 53.4746 115.049 53.0197C113.433 52.14 111.271 49.992 110.185 44.5574L107.419 45.1105C108.627 51.1488 111.177 54.1226 113.7 55.4965C114.934 56.1685 116.09 56.4167 116.948 56.4948C117.377 56.5338 117.735 56.5305 117.994 56.5159C118.124 56.5086 118.231 56.4984 118.31 56.4891C118.35 56.4845 118.383 56.48 118.409 56.4762C118.422 56.4743 118.433 56.4726 118.443 56.4711C118.447 56.4703 118.452 56.4696 118.455 56.469C118.457 56.4686 118.459 56.4683 118.461 56.4681C118.462 56.4679 118.463 56.4677 118.463 56.4676C118.464 56.4674 118.466 56.4672 118.226 55.0776ZM110.185 44.5574C108.751 37.3896 108.705 34.2454 108.96 32.8449C109.076 32.2077 109.234 32.0484 109.26 32.0211C109.303 31.9748 109.326 31.9587 109.469 31.8393C109.573 31.7525 109.868 31.5137 110.063 31.1234L107.541 29.8621C107.633 29.6766 107.761 29.5915 107.664 29.6727C107.605 29.7214 107.392 29.8878 107.191 30.104C106.73 30.6017 106.377 31.2874 106.185 32.3404C105.825 34.3204 105.984 37.9371 107.419 45.1105L110.185 44.5574ZM126.577 26.1578C129.25 25.8608 131.141 26.4127 132.544 27.3978C133.976 28.4032 135.043 29.9623 135.857 31.9229C137.519 35.9282 137.907 40.9847 138.55 45.0538L141.335 44.614C140.749 40.8979 140.294 35.2581 138.462 30.842C137.528 28.592 136.186 26.5091 134.165 25.0898C132.114 23.6501 129.51 22.9942 126.265 23.3548L126.577 26.1578ZM46.2219 174.901C51.666 174.468 57.3622 174.409 63.1469 174.386C68.9143 174.363 74.7764 174.376 80.4744 174.083C91.8465 173.497 102.831 171.683 111.532 165.707L109.935 163.382C101.904 168.898 91.5826 170.687 80.3294 171.266C74.7148 171.555 68.9342 171.542 63.1356 171.565C57.3543 171.588 51.561 171.648 45.9988 172.089L46.2219 174.901ZM111.532 165.707C119.264 160.396 125.036 151.911 127.802 138.542L125.04 137.971C122.394 150.762 116.963 158.555 109.935 163.382L111.532 165.707ZM14.2685 203.002C16.6713 195.193 20.3815 188.513 25.6003 183.622C30.8014 178.748 37.5675 175.587 46.2219 174.901L45.9988 172.089C36.7339 172.824 29.3589 176.235 23.6719 181.564C18.0027 186.877 14.0778 194.032 11.573 202.172L14.2685 203.002ZM65.0375 138.216L109.997 165.747L111.47 163.342L66.5102 135.811L65.0375 138.216ZM109.997 165.747L278.521 268.939L279.993 266.534L111.47 163.342L109.997 165.747ZM279.257 267.737C278.536 268.949 278.536 268.949 278.536 268.949C278.536 268.949 278.536 268.949 278.536 268.949C278.537 268.949 278.537 268.949 278.537 268.949C278.537 268.95 278.538 268.95 278.539 268.95C278.54 268.951 278.542 268.952 278.544 268.954C278.549 268.956 278.556 268.96 278.564 268.965C278.581 268.975 278.605 268.989 278.636 269.008C278.698 269.044 278.787 269.095 278.896 269.158C279.116 269.283 279.421 269.454 279.768 269.64C280.436 269.996 281.346 270.454 282.085 270.7L282.976 268.025C282.486 267.861 281.759 267.506 281.097 267.152C280.779 266.982 280.497 266.824 280.295 266.709C280.194 266.651 280.113 266.604 280.058 266.572C280.031 266.556 280.01 266.544 279.996 266.536C279.99 266.532 279.985 266.529 279.981 266.527C279.98 266.526 279.979 266.525 279.978 266.525C279.978 266.525 279.978 266.525 279.978 266.525C279.978 266.525 279.978 266.525 279.978 266.525C279.978 266.525 279.978 266.525 279.978 266.525C279.978 266.525 279.978 266.525 279.257 267.737Z" fill="#E6E7E6"/>
<path d="M165.953 31.62C157.102 32.6034 157.348 37.3565 157.348 40.2247C157.348 44.7855 161.412 48.0099 165.953 48.0099C170.496 48.0099 182.881 47.3128 190.947 46.8279C196.233 46.5101 205.363 47.0054 206.927 40.2247C208.157 34.898 205.288 29.5713 199.552 29.5713C193.815 29.5713 175.923 30.2542 165.953 31.62Z" fill="white" stroke="#E6E7E6" stroke-width="2.82026"/>
<path d="M233.151 13.1821C221.351 16.4601 219.766 26.8403 220.449 31.6207C217.581 53.7471 215.123 59.8933 253.639 60.7128C292.155 61.5323 291.745 44.7327 293.384 23.016C294.696 5.64271 283.55 1.84571 277.814 2.11888C267.843 4.44078 244.952 9.90409 233.151 13.1821Z" fill="white" stroke="#E6E7E6" stroke-width="2.82026"/>
</svg>
