<svg width="441" height="519" viewBox="0 0 441 519" fill="none" xmlns="http://www.w3.org/2000/svg">
<g clip-path="url(#clip0_1003_101)">
<path d="M376.64 288.92C431.87 284.18 440.16 344.81 440.16 366.26C440.16 411.26 423.24 505.46 373.51 517.09C314.08 530.99 278.85 464.38 278.85 464.38L376.64 288.92ZM369.78 494.29C388.11 498.64 411.97 464.29 423.05 417.51C434.13 370.73 428.25 329.34 409.92 325C391.59 320.66 368.01 354.87 356.92 401.63C345.83 448.39 351.43 489.94 369.78 494.29Z" fill="white"/>
<path d="M0.500549 132.1L9.62054 128.29C9.62054 128.29 31.7005 99.34 70.5605 75V68.11C70.5605 68.11 43.8905 47.54 96.4605 29.26C149.031 10.98 198.961 -9.59 317.391 4.88C359.601 10 386.781 14.72 404.251 18.59C435.841 25.6 435.861 30 435.861 30V44.17L399.671 32.4C399.671 32.4 390.531 123.19 394.341 129.22C398.151 135.25 436.061 165.27 435.861 192.8V303.26C435.861 303.26 415.451 261.5 389.011 277.71C366.151 303.5 331.871 357.59 310.541 455.1C293.021 462.72 244.261 478.71 201.601 473.38C158.941 468.05 44.6606 414 0.48056 362.92C0.48056 295.89 0.500549 132.1 0.500549 132.1ZM90.3605 235.8C106.361 238.8 237.361 261.7 277.781 252.56C288.441 238.85 293.601 194.61 272.451 185.56L246.541 179.47C215.301 181.76 100.271 172.61 87.3105 179.47C74.3505 186.33 76.6505 210.71 76.6505 210.71C76.6505 210.71 74.3705 232.76 90.3605 235.8ZM278.541 120.14L320.191 63.23L263.471 36.6C263.471 36.6 140.121 45 102.341 66.69L70.5605 85L10.2405 137.77C9.99745 137.912 9.78362 138.098 9.61053 138.32L10.2405 137.77C26.2305 127.37 278.541 120.14 278.541 120.14Z" fill="white"/>
</g>
<defs>
<clipPath id="clip0_1003_101">
<rect width="440.16" height="519" fill="white" transform="matrix(-1 0 0 1 440.16 0)"/>
</clipPath>
</defs>
</svg>
