<svg width="366" height="349" viewBox="0 0 366 349" fill="none" xmlns="http://www.w3.org/2000/svg">
<path d="M116.905 319.66C206.403 371.124 257.684 338.522 273.187 314.346C273.187 314.346 299.753 281.722 324.098 246.328C344.585 216.545 363.5 184.801 363.691 168.886C363.844 156.196 359.704 147.985 353.093 142.844C352.999 142.761 352.901 142.686 352.801 142.62C339.23 132.361 315.574 134.672 297.07 137.745C290.506 113.433 276.539 63.089 273.187 56.2052C269.835 49.3214 260.338 49.2395 256.008 50.059H45.256H0C14.665 96.6337 46.9279 198.879 58.6599 235.265C62.6336 247.589 68.5786 259.931 75.3875 271.309C88.681 293.526 102.24 311.227 116.905 319.66Z" fill="white"/>
<path d="M324.098 246.328C344.585 216.545 363.5 184.801 363.691 168.886C363.846 156.01 359.582 147.746 352.801 142.62M324.098 246.328C299.753 281.722 273.187 314.346 273.187 314.346C257.684 338.522 206.403 371.124 116.905 319.66C102.24 311.227 88.681 293.526 75.3874 271.309C68.5786 259.931 62.6336 247.589 58.6598 235.265C46.9279 198.879 14.665 96.6337 6.83705e-06 50.059H45.2559M324.098 246.328L323.467 244.689M352.801 142.62C339.23 132.361 315.574 134.672 297.07 137.745C290.506 113.433 276.539 63.089 273.187 56.2052C269.835 49.3214 260.338 49.2395 256.008 50.059H45.2559M352.801 142.62C356.711 145.22 356.444 159.847 324.098 197.555C283.666 244.689 255.174 314.32 161.319 266.392L120.257 243.447L45.2559 50.059" stroke="#E6E7E6" stroke-width="2.82026" stroke-linecap="round" stroke-linejoin="round"/>
<path d="M259.364 200.014L259.392 201.424L259.364 200.014ZM206.147 166.018L207.491 165.592L206.147 166.018ZM324.783 244.185C325.062 244.912 324.698 245.728 323.971 246.006C323.244 246.285 322.429 245.922 322.15 245.195L324.783 244.185ZM204.803 166.445C199.047 148.31 193.455 126.877 186.295 106.073C179.152 85.3164 170.549 65.5173 158.953 50.9373L161.161 49.1818C173.065 64.1496 181.793 84.3225 188.962 105.155C196.115 125.939 201.817 147.712 207.491 165.592L204.803 166.445ZM259.392 201.424C250.999 201.59 239.342 198.962 228.82 193.29C218.289 187.613 208.72 178.789 204.803 166.445L207.491 165.592C211.115 177.013 220.028 185.347 230.158 190.807C240.295 196.272 251.476 198.759 259.336 198.604L259.392 201.424ZM322.15 245.195C312.121 219.043 291.159 200.796 259.392 201.424L259.336 198.604C292.492 197.949 314.406 217.124 324.783 244.185L322.15 245.195Z" fill="#E6E7E6"/>
<path d="M236.097 24.7563C239.868 25.166 253.695 29.6732 254.114 30.4927C254.533 31.3122 257.047 30.4927 254.114 44.8339C251.767 56.3069 244.477 55.0776 244.477 55.0776C244.477 55.0776 228.136 55.4874 226.879 55.0776C225.622 54.6679 221.013 52.6192 222.27 44.8339C223.527 37.0487 223.993 23.4411 236.097 24.7563Z" fill="white"/>
<path d="M236.097 138.256L237.476 137.965L236.097 138.256ZM201.085 50.6655C200.579 50.0727 200.65 49.1827 201.243 48.6776C201.836 48.1725 202.726 48.2435 203.231 48.8363L201.085 50.6655ZM254.114 30.4927L255.369 29.8508V29.8508L254.114 30.4927ZM236.097 24.7563L236.249 23.3544L236.097 24.7563ZM222.27 44.8339L223.662 45.0587V45.0587L222.27 44.8339ZM226.879 55.0776L226.442 56.4183L226.879 55.0776ZM244.477 55.0776L244.441 53.6679C244.532 53.6657 244.622 53.6721 244.711 53.6871L244.477 55.0776ZM254.114 44.8339L255.495 45.1165L254.114 44.8339ZM318.221 173.495L318.111 174.901L318.221 173.495ZM353.505 202.164C353.738 202.907 353.326 203.698 352.583 203.932C351.84 204.166 351.048 203.753 350.814 203.01L353.505 202.164ZM297.389 135.804C298.057 135.404 298.923 135.621 299.323 136.289C299.723 136.958 299.506 137.824 298.838 138.224L297.389 135.804ZM79.8102 267.737L80.5346 268.947C80.5295 268.95 80.5243 268.953 80.5192 268.956L79.8102 267.737ZM76.8997 270.703L75.5591 271.14L74.685 268.459L76.0257 268.022L76.8997 270.703ZM234.717 138.548C232.223 126.76 226.383 107.779 219.848 90.1925C216.583 81.4057 213.154 72.9924 209.895 66.0209C206.618 59.0098 203.569 53.581 201.085 50.6655L203.231 48.8363C205.984 52.067 209.168 57.8038 212.45 64.8266C215.752 71.8889 219.21 80.3777 222.492 89.2102C229.051 106.862 234.942 125.987 237.476 137.965L234.717 138.548ZM252.858 31.1347C252.973 31.3597 253.118 31.4757 253.126 31.4826C253.158 31.5093 253.168 31.5132 253.137 31.4941C253.078 31.4568 252.96 31.3925 252.768 31.3011C252.39 31.1214 251.84 30.8915 251.146 30.6244C249.764 30.0928 247.906 29.4487 245.93 28.8132C241.921 27.5234 237.661 26.3447 235.944 26.1581L236.249 23.3544C238.303 23.5776 242.843 24.8574 246.794 26.1285C248.799 26.7735 250.711 27.4354 252.159 27.9923C252.878 28.2693 253.506 28.5292 253.98 28.7544C254.213 28.8655 254.44 28.9825 254.63 29.1014C254.725 29.1605 254.837 29.2362 254.946 29.3281C255.031 29.4002 255.228 29.5745 255.369 29.8508L252.858 31.1347ZM223.662 45.0587C223.084 48.6407 223.875 50.6959 224.76 51.8756C225.675 53.0959 226.842 53.5826 227.316 53.7369L226.442 56.4183C225.658 56.1629 223.893 55.4204 222.503 53.5676C221.083 51.6741 220.199 48.8124 220.878 44.6091L223.662 45.0587ZM227.316 53.7369C227.236 53.7109 227.237 53.7227 227.429 53.7425C227.582 53.7583 227.794 53.7734 228.065 53.7868C228.606 53.8136 229.327 53.8309 230.175 53.8404C231.867 53.8595 234.014 53.8468 236.132 53.8212C238.248 53.7957 240.325 53.7574 241.875 53.7254C242.649 53.7094 243.291 53.6951 243.739 53.6847C243.964 53.6795 244.139 53.6753 244.259 53.6724C244.319 53.671 244.364 53.6698 244.395 53.6691C244.41 53.6687 244.422 53.6684 244.43 53.6682C244.434 53.6681 244.437 53.6681 244.439 53.668C244.44 53.668 244.44 53.668 244.441 53.668C244.441 53.6679 244.441 53.6679 244.441 53.6679C244.441 53.6679 244.441 53.6679 244.477 55.0776C244.512 56.4873 244.512 56.4873 244.512 56.4873C244.512 56.4873 244.512 56.4873 244.511 56.4873C244.511 56.4873 244.51 56.4874 244.509 56.4874C244.507 56.4874 244.504 56.4875 244.5 56.4876C244.492 56.4878 244.48 56.4881 244.465 56.4885C244.433 56.4893 244.387 56.4904 244.327 56.4918C244.207 56.4948 244.03 56.499 243.805 56.5042C243.354 56.5146 242.71 56.529 241.933 56.5451C240.379 56.5771 238.293 56.6156 236.166 56.6413C234.042 56.6669 231.868 56.6799 230.143 56.6605C229.282 56.6508 228.52 56.633 227.926 56.6037C227.631 56.5891 227.363 56.571 227.139 56.5478C226.952 56.5285 226.679 56.4955 226.442 56.4183L227.316 53.7369ZM244.477 55.0776C244.711 53.6871 244.71 53.6869 244.709 53.6868C244.709 53.6867 244.708 53.6866 244.707 53.6865C244.706 53.6863 244.705 53.6861 244.704 53.6859C244.702 53.6856 244.7 53.6853 244.699 53.6851C244.697 53.6848 244.696 53.6847 244.697 53.6848C244.698 53.685 244.706 53.6861 244.72 53.6877C244.748 53.6909 244.8 53.6961 244.872 53.7C245.017 53.708 245.243 53.7112 245.528 53.6858C246.098 53.6352 246.892 53.4717 247.753 53.0135C249.416 52.1277 251.623 49.9761 252.732 44.5514L255.495 45.1165C254.258 51.1647 251.647 54.1349 249.078 55.5028C247.823 56.1713 246.648 56.4176 245.777 56.495C245.342 56.5337 244.98 56.5305 244.717 56.516C244.586 56.5088 244.478 56.4987 244.398 56.4895C244.358 56.4849 244.325 56.4805 244.299 56.4768C244.286 56.475 244.274 56.4733 244.265 56.4718C244.26 56.4711 244.256 56.4704 244.252 56.4698C244.25 56.4695 244.249 56.4692 244.247 56.4689C244.246 56.4688 244.245 56.4686 244.245 56.4685C244.243 56.4683 244.242 56.4681 244.477 55.0776ZM252.732 44.5514C254.198 37.3834 254.244 34.2445 253.984 32.8505C253.867 32.2187 253.706 32.0611 253.679 32.0326C253.635 31.9853 253.609 31.9681 253.463 31.8492C253.359 31.7637 253.058 31.5259 252.858 31.1347L255.369 29.8508C255.274 29.6644 255.144 29.5803 255.245 29.6629C255.305 29.712 255.522 29.8773 255.726 30.0925C256.197 30.589 256.56 31.2765 256.757 32.3349C257.126 34.3213 256.962 37.9432 255.495 45.1165L252.732 44.5514ZM235.944 26.1581C233.197 25.8596 231.249 26.4149 229.805 27.4062C228.336 28.4153 227.244 29.9762 226.414 31.9333C224.716 35.9353 224.319 40.9863 223.662 45.0587L220.878 44.6091C221.477 40.8963 221.943 35.2509 223.818 30.8316C224.774 28.578 226.147 26.4971 228.209 25.0814C230.296 23.6479 232.945 22.9954 236.249 23.3544L235.944 26.1581ZM318.111 174.901C312.542 174.468 306.715 174.409 300.8 174.386C294.901 174.363 288.909 174.376 283.084 174.083C271.459 173.497 260.24 171.685 251.352 165.715L252.924 163.374C261.147 168.897 271.714 170.686 283.226 171.266C288.969 171.555 294.882 171.542 300.811 171.565C306.723 171.588 312.644 171.648 318.33 172.089L318.111 174.901ZM251.352 165.715C243.452 160.409 237.547 151.926 234.717 138.548L237.476 137.965C240.181 150.748 245.731 158.542 252.924 163.374L251.352 165.715ZM350.814 203.01C348.359 195.205 344.566 188.525 339.227 183.633C333.904 178.755 326.976 175.589 318.111 174.901L318.33 172.089C327.789 172.823 335.321 176.228 341.132 181.554C346.927 186.864 350.942 194.019 353.505 202.164L350.814 203.01ZM298.838 138.224L252.863 165.754L251.414 163.335L297.389 135.804L298.838 138.224ZM252.863 165.754L80.5346 268.947L79.0857 266.527L251.414 163.335L252.863 165.754ZM79.8102 267.737C80.5192 268.956 80.5191 268.956 80.519 268.956C80.519 268.956 80.5189 268.956 80.5188 268.956C80.5186 268.956 80.5184 268.956 80.5182 268.956C80.5178 268.957 80.5172 268.957 80.5165 268.957C80.5151 268.958 80.5133 268.959 80.5109 268.961C80.5061 268.963 80.4994 268.967 80.4908 268.972C80.4736 268.982 80.4488 268.996 80.4172 269.014C80.3541 269.05 80.2635 269.102 80.1513 269.164C79.9274 269.289 79.615 269.461 79.2609 269.646C78.5782 270.002 77.6503 270.458 76.8997 270.703L76.0257 268.022C76.5321 267.857 77.2779 267.5 77.9547 267.146C78.2804 266.976 78.5692 266.818 78.7765 266.702C78.8799 266.644 78.9625 266.597 79.0186 266.565C79.0466 266.549 79.068 266.537 79.082 266.529C79.089 266.525 79.0942 266.522 79.0974 266.52C79.099 266.519 79.1002 266.518 79.1008 266.518C79.1011 266.518 79.1013 266.518 79.1014 266.518C79.1014 266.518 79.1014 266.518 79.1014 266.518L79.1013 266.518C79.1013 266.518 79.1012 266.518 79.8102 267.737Z" fill="#E6E7E6"/>
<path d="M195.672 31.62C204.723 32.6034 204.471 37.3565 204.471 40.2247C204.471 44.7855 200.315 48.0099 195.672 48.0099C191.027 48.0099 178.362 47.3128 170.114 46.8279C164.708 46.5101 155.373 47.0054 153.773 40.2247C152.516 34.898 155.449 29.5713 161.315 29.5713C167.18 29.5713 185.477 30.2542 195.672 31.62Z" fill="white" stroke="#E6E7E6" stroke-width="2.82026"/>
<path d="M126.957 13.1821C139.024 16.4601 140.644 26.8403 139.946 31.6207C142.879 53.7471 145.392 59.8933 106.006 60.7128C66.6206 61.5323 67.0396 44.7327 65.3636 23.016C64.0228 5.64271 75.4196 1.84571 81.2856 2.11888C91.4812 4.44078 114.889 9.90409 126.957 13.1821Z" fill="white" stroke="#E6E7E6" stroke-width="2.82026"/>
</svg>
