<svg width="400" height="163" viewBox="0 0 400 163" fill="none" xmlns="http://www.w3.org/2000/svg">
    <path fill-rule="evenodd" clip-rule="evenodd" d="M12.069 156.895C19.3965 161.206 29.7421 162.929 44.3965 162.929C60.344 162.929 79.7429 160.774 102.154 158.188C131.465 155.169 164.223 153.013 199.999 153.016C235.773 153.016 269.397 154.739 298.706 158.188C321.121 160.774 340.086 162.929 356.034 162.929C377.585 162.929 400 159.484 400 133.621C400 80.6034 310.345 0 200 0C89.6552 0 0 81.0345 0 133.621C0 144.397 3.87853 152.153 12.069 156.895ZM247.462 116.881L245.68 119.388L243.649 121.696C232.915 133.898 217.294 141.554 199.909 141.554C184.23 141.554 169.994 135.33 159.476 125.163L157.334 123.093L155.409 120.817C146.676 110.489 141.402 97.0922 141.402 82.4269C141.402 71.9819 144.076 62.1902 148.762 53.6915L150.201 51.0825L151.895 48.6292C162.49 33.289 180.056 23.2993 199.909 23.2993C221.156 23.2993 239.791 34.7459 250.052 51.9429L251.628 54.5847L252.921 57.3735C256.443 64.971 258.415 73.4564 258.415 82.4269C258.415 95.2971 254.354 107.185 247.462 116.881ZM253.827 122.035C253.768 121.958 253.709 121.881 253.65 121.804C253.374 121.44 253.102 121.072 252.836 120.701C260.497 109.922 265.008 96.7061 265.008 82.4269C265.008 72.4806 262.82 63.0505 258.902 54.6004C267.419 46.4264 278.784 41.265 291.315 40.7838C291.953 40.7593 292.594 40.747 293.238 40.747C320.719 40.747 343.104 63.2543 343.104 91.1506C343.104 119.047 320.719 141.554 293.238 141.554C278.97 141.554 266.076 135.487 256.975 125.748C255.868 124.563 254.817 123.324 253.827 122.035ZM199.909 148.147C216.897 148.147 232.365 141.578 243.957 130.819C245.583 129.31 247.132 127.719 248.599 126.052L248.599 126.051C249.559 127.3 250.569 128.508 251.626 129.671C252.059 130.148 252.5 130.618 252.949 131.079C263.194 141.613 277.46 148.147 293.238 148.147C324.417 148.147 349.697 122.631 349.697 91.1506C349.697 59.6699 324.417 34.154 293.238 34.154C293.121 34.154 293.003 34.1544 292.886 34.1551C280.996 34.2286 269.978 38.0124 260.91 44.4174C259.097 45.698 257.362 47.0833 255.713 48.5648C254.573 46.6543 253.34 44.8072 252.019 43.0298C240.144 27.0469 221.223 16.7063 199.909 16.7063C178.941 16.7063 160.288 26.714 148.382 42.2561C147.724 43.1149 147.086 43.9906 146.47 44.8825C145.719 44.3358 144.954 43.8073 144.176 43.2977C135.495 37.6131 125.169 34.2707 114.078 34.157C113.883 34.155 113.688 34.154 113.493 34.154C82.3144 34.154 57.0349 59.6699 57.0349 91.1506C57.0349 122.631 82.3144 148.147 113.493 148.147H113.501C128.822 148.145 142.717 141.982 152.888 131.978C153.134 131.736 153.378 131.492 153.62 131.245C154.052 130.805 154.476 130.357 154.894 129.903C155.69 130.673 156.506 131.423 157.34 132.151C168.753 142.118 183.633 148.147 199.909 148.147ZM150.375 125.074C150.306 125.15 150.237 125.227 150.167 125.303C150.125 125.35 150.082 125.396 150.039 125.443C149.654 125.862 149.262 126.274 148.863 126.68C139.821 135.872 127.3 141.554 113.493 141.554C86.0122 141.554 63.6279 119.047 63.6279 91.1506C63.6279 63.2543 86.0122 40.747 113.493 40.747C113.748 40.747 114.002 40.7489 114.256 40.7528C124.988 40.9157 134.912 44.5109 142.989 50.508C137.778 59.9589 134.809 70.8429 134.809 82.4269C134.809 98.7019 140.669 113.595 150.375 125.074Z" fill="white"/>
</svg>
