<svg width="1880" height="1880" viewBox="0 0 1880 1880" fill="none" xmlns="http://www.w3.org/2000/svg">
<g clip-path="url(#clip0_1_2)">
<path d="M1854.72 971.9C1852.2 968.677 1848.96 966.086 1845.26 964.331C1841.57 962.576 1837.51 961.706 1833.42 961.79L1717.14 964.09C1694.42 964.543 1672.41 972.135 1654.24 985.79L1618.38 1012.79C1616.61 1014.12 1615.31 1015.96 1614.65 1018.07C1613.99 1020.18 1614.01 1022.44 1614.7 1024.54C1615.39 1026.64 1616.72 1028.46 1618.51 1029.77C1620.29 1031.07 1622.44 1031.77 1624.65 1031.79L1850.83 1033.48" stroke="white" stroke-width="2.7" stroke-linejoin="round"/>
<path d="M1669.83 976.03L1854.69 970.59" stroke="white" stroke-width="2.7" stroke-linejoin="round"/>
<path d="M1652.06 987.43L1854.61 983.35" stroke="white" stroke-width="2.7" stroke-linejoin="round"/>
<path d="M1636.89 998.83L1854.05 996.11" stroke="white" stroke-width="2.7" stroke-linejoin="round"/>
<path d="M1621.73 1010.23L1853.18 1008.87" stroke="white" stroke-width="2.7" stroke-linejoin="round"/>
<path d="M1614.64 1021.63H1852.08" stroke="white" stroke-width="2.7" stroke-linejoin="round"/>
<path d="M1135 1168.14C1151.19 1143.14 1159.63 1119.14 1208.54 1091.93C1257.45 1064.72 1392.74 1072.93 1415.54 1074C1438.34 1075.07 1738.3 1079.43 1756.78 1078.89C1775.26 1078.35 1831.14 1081.96 1848.3 1063.89" stroke="white" stroke-width="10" stroke-linejoin="round"/>
<path d="M22.45 969.68C27.71 963.36 33.45 960.81 41.45 960.68L157.75 963C180.475 963.448 202.482 971.041 220.65 984.7L256.51 1011.7C258.275 1013.03 259.58 1014.87 260.241 1016.98C260.901 1019.09 260.884 1021.35 260.192 1023.45C259.5 1025.55 258.167 1027.37 256.382 1028.68C254.597 1029.98 252.449 1030.68 250.24 1030.7L24.0599 1032.39" stroke="white" stroke-width="2" stroke-linejoin="round"/>
<path d="M205.06 974.89L21.5 969.49" stroke="white" stroke-width="2.7" stroke-linejoin="round"/>
<path d="M222.83 986.29L20.84 982.22" stroke="white" stroke-width="2.7" stroke-linejoin="round"/>
<path d="M238 997.69L20.84 994.97" stroke="white" stroke-width="2.7" stroke-linejoin="round"/>
<path d="M253.16 1009.08L21.71 1007.73" stroke="white" stroke-width="2.7" stroke-linejoin="round"/>
<path d="M260.25 1020.48H22.8199" stroke="white" stroke-width="2.7" stroke-linejoin="round"/>
<path d="M666.31 1089.45C617.4 1062.28 482.2 1072.45 459.36 1072.85C322.93 1075.56 173.64 1072.85 116.97 1073.36C114.29 1073.36 92.3299 1073.36 46.6099 1071.05C42.1099 1070.82 33.1399 1069.56 26.6099 1062.71C20.0799 1055.86 19.2299 1046.55 19.1899 1041.78" stroke="white" stroke-width="10" stroke-linejoin="round"/>
<path d="M632.93 812.43C621.12 812.428 609.575 815.928 599.754 822.488C589.934 829.048 582.279 838.373 577.758 849.283C573.237 860.193 572.053 872.199 574.356 883.783C576.659 895.366 582.345 906.006 590.695 914.358C599.045 922.709 609.685 928.397 621.267 930.702C632.85 933.007 644.857 931.825 655.768 927.306C666.679 922.787 676.005 915.134 682.566 905.314C689.128 895.495 692.63 883.95 692.63 872.14C692.611 856.311 686.316 841.136 675.124 829.943C663.933 818.749 648.759 812.451 632.93 812.43ZM632.93 929.15C621.656 929.15 610.636 925.807 601.263 919.544C591.889 913.28 584.583 904.378 580.269 893.963C575.955 883.548 574.826 872.087 577.025 861.03C579.225 849.973 584.653 839.816 592.625 831.845C600.597 823.873 610.753 818.445 621.81 816.245C632.867 814.046 644.328 815.175 654.743 819.489C665.158 823.803 674.061 831.109 680.324 840.482C686.587 849.856 689.93 860.876 689.93 872.15C689.909 887.261 683.897 901.747 673.212 912.432C662.527 923.117 648.041 929.129 632.93 929.15Z" fill="white"/>
<path d="M632.93 930.49C665.161 930.49 691.29 904.361 691.29 872.13C691.29 839.899 665.161 813.77 632.93 813.77C600.699 813.77 574.57 839.899 574.57 872.13C574.57 904.361 600.699 930.49 632.93 930.49Z" stroke="white" stroke-width="2.7" stroke-linejoin="round"/>
<path d="M615.08 941.19C615.08 941.19 356.75 941.92 341.74 941.92C326.73 941.92 312.24 942.1 301.97 939.36C291.7 936.62 280.12 941.36 261.68 899.49C257.73 893.69 252.78 878.18 235.88 879.49" stroke="white" stroke-width="2" stroke-linejoin="round"/>
<path d="M615.08 941.19C615.08 941.19 665.61 941.3 680.62 941.3C695.63 941.3 710.12 941.48 720.39 938.74C730.66 936 742.24 940.74 760.68 898.87C764.68 893.08 769.58 877.57 786.48 878.87V1007.7C786.478 1012.41 787.603 1017.06 789.76 1021.25C792.25 1026.1 796.029 1030.17 800.681 1033.01C805.334 1035.85 810.679 1037.35 816.13 1037.35H945.71" stroke="white" stroke-width="2.7" stroke-linejoin="round"/>
<path d="M460.85 832.46L562 831.1V892.57" stroke="white" stroke-width="2.7" stroke-linejoin="round"/>
<path d="M562.66 891.29L461.51 892.64V831.18" stroke="white" stroke-width="2.7" stroke-linejoin="round"/>
<path d="M471.35 791.68C517.11 790.68 576.67 792.6 604.27 798.13C631.87 803.66 656.7 805.67 711.41 844.13C716.59 848.13 718.1 849.13 723.88 850.41C729.66 851.69 732.18 850.8 740.73 858.65C749.28 866.5 761.4 873.12 761.62 897.34" stroke="white" stroke-width="2.7" stroke-linejoin="round"/>
<path d="M531.89 791.26C486.14 790.26 444.57 792.99 416.97 798.52C389.37 804.05 364.54 806.07 309.83 844.52C304.64 848.52 303.14 849.52 297.35 850.81C291.56 852.1 289.06 851.19 280.51 859.05C271.96 866.91 259.83 873.51 259.61 897.73" stroke="white" stroke-width="2.7" stroke-linejoin="round"/>
<path d="M391.76 811.89C379.95 811.888 368.405 815.388 358.584 821.948C348.764 828.508 341.109 837.833 336.588 848.743C332.067 859.653 330.883 871.659 333.186 883.243C335.489 894.826 341.175 905.466 349.525 913.818C357.875 922.169 368.515 927.857 380.097 930.162C391.68 932.467 403.687 931.285 414.598 926.766C425.509 922.247 434.835 914.594 441.396 904.774C447.958 894.955 451.46 883.41 451.46 871.6C451.441 855.771 445.146 840.596 433.954 829.403C422.763 818.209 407.589 811.911 391.76 811.89ZM391.76 928.61C380.486 928.61 369.466 925.267 360.093 919.004C350.719 912.741 343.413 903.838 339.099 893.423C334.785 883.008 333.656 871.547 335.855 860.49C338.055 849.433 343.483 839.277 351.455 831.305C359.427 823.333 369.583 817.905 380.64 815.705C391.697 813.506 403.158 814.635 413.573 818.949C423.988 823.263 432.891 830.569 439.154 839.943C445.417 849.316 448.76 860.336 448.76 871.61C448.739 886.721 442.727 901.207 432.042 911.892C421.357 922.577 406.871 928.589 391.76 928.61Z" fill="white"/>
<path d="M391.75 929.95C423.981 929.95 450.11 903.821 450.11 871.59C450.11 839.359 423.981 813.23 391.75 813.23C359.519 813.23 333.39 839.359 333.39 871.59C333.39 903.821 359.519 929.95 391.75 929.95Z" stroke="white" stroke-width="2.7" stroke-linejoin="round"/>
<path d="M837.84 1661.5C834.37 1643.35 826.11 1599.56 819.65 1560.96C817.28 1546.82 815.15 1533.37 813.59 1522.14C806.5 1471.05 786.27 1347.58 769.24 1262.44C752.21 1177.3 736.83 1164.16 722.72 1140.32" stroke="white" stroke-width="10" stroke-linejoin="round"/>
<path d="M1054.69 1402.17C1054.57 1402.02 1054.41 1401.9 1054.24 1401.82C1054.07 1401.73 1053.88 1401.69 1053.69 1401.68L828 1403.42C827.803 1403.42 827.609 1403.47 827.431 1403.55C827.253 1403.63 827.096 1403.76 826.97 1403.91C826.844 1404.06 826.753 1404.24 826.703 1404.43C826.653 1404.62 826.645 1404.82 826.68 1405.01L832.42 1436.89C833.859 1444.8 837.997 1451.97 844.13 1457.17C850.263 1462.37 858.01 1465.28 866.05 1465.41L1012.93 1467.5H1013.43C1021.4 1467.49 1029.12 1464.74 1035.3 1459.71C1041.48 1454.69 1045.74 1447.69 1047.37 1439.89L1054.96 1403.3C1055 1403.1 1055 1402.9 1054.96 1402.7C1054.91 1402.51 1054.82 1402.32 1054.69 1402.17ZM1013.43 1464.81H1013L866.11 1462.72C858.696 1462.61 851.551 1459.92 845.897 1455.13C840.243 1450.33 836.43 1443.72 835.11 1436.42L829.65 1406.11L1052.01 1404.4L1044.76 1439.35C1043.26 1446.55 1039.32 1453.01 1033.62 1457.64C1027.91 1462.28 1020.78 1464.81 1013.43 1464.81Z" fill="white"/>
<path d="M1054.44 1661.5L1068.21 1555.88L1072.59 1522.29C1072.59 1522.29 1085.16 1394.05 1090.59 1366.29C1096.02 1338.53 1119.39 1202.18 1136.78 1173.39C1154.17 1144.6 1174.27 1128.83 1201.44 1122.85C1228.61 1116.87 1257.44 1116.85 1274.26 1116.85C1291.08 1116.85 1636.15 1111.3 1656.26 1111.42C1843.63 1112.51 1825.42 1092.64 1848.26 1063.78" stroke="white" stroke-width="10" stroke-linejoin="round"/>
<path d="M982.64 1588.61C1025.52 1581.04 1056.64 1564.61 1068.21 1555.88" stroke="white" stroke-width="2.7" stroke-linejoin="round"/>
<path d="M819.65 1561C819.65 1561 857.54 1584.21 909.82 1590.87" stroke="white" stroke-width="2.7" stroke-linejoin="round"/>
<path d="M945.71 1473.63C936.06 1473.44 926.24 1475.44 920.03 1479.63C908.16 1487.63 899.35 1507.58 899.35 1540.89C899.35 1574.2 908.16 1587.6 918.11 1607.13" stroke="white" stroke-width="2.7" stroke-linejoin="round"/>
<path d="M910.85 1661.5C911.61 1644.74 913.63 1612.76 918.11 1607.15C918.11 1607.15 920.62 1626.15 921.85 1631.51C923.08 1636.87 930.11 1643.2 945.71 1643.51" stroke="white" stroke-width="2.7" stroke-linejoin="round"/>
<path d="M945.71 1473.63C955.37 1473.44 965.19 1475.44 971.4 1479.63C983.27 1487.63 992.07 1507.58 992.07 1540.89C992.07 1574.2 983.27 1587.6 973.31 1607.13" stroke="white" stroke-width="2.7" stroke-linejoin="round"/>
<path d="M945.71 1643.52C961.32 1643.2 968.38 1636.78 969.57 1631.52C970.76 1626.26 973.31 1607.16 973.31 1607.16C977.8 1612.77 979.82 1644.75 980.58 1661.51" stroke="white" stroke-width="2.7" stroke-linejoin="round"/>
<path d="M819.64 1397.83L832.75 1470.58L1046.13 1473.62L1062.26 1395.95L819.64 1397.83Z" stroke="white" stroke-width="2.7" stroke-linejoin="round"/>
<path d="M819.64 1397.83L832.75 1470.58L1046.13 1473.62L1062.26 1395.95L819.64 1397.83Z" stroke="white" stroke-width="2.7" stroke-linejoin="round"/>
<path d="M833.75 1436.65L828 1404.76L1053.63 1403.02L1046.04 1439.61C1044.46 1447.19 1040.3 1453.98 1034.26 1458.83C1028.22 1463.67 1020.68 1466.26 1012.94 1466.15L866.05 1464.06C858.322 1463.95 850.874 1461.15 844.981 1456.15C839.089 1451.15 835.118 1444.26 833.75 1436.65Z" stroke="white" stroke-width="2.7" stroke-linejoin="round"/>
<path d="M784.77 1345.17C784.77 1345.17 817.26 1367.35 945.71 1367.35C1074.16 1367.35 1095.71 1345.17 1095.71 1345.17" stroke="white" stroke-width="2.7" stroke-linejoin="round"/>
<path d="M780.27 1321.56C780.27 1321.56 817.27 1343.74 945.71 1343.74C1074.15 1343.74 1100.19 1321.56 1100.19 1321.56" stroke="white" stroke-width="2.7" stroke-linejoin="round"/>
<path d="M775.77 1298C775.77 1298 817.26 1320.18 945.71 1320.18C1074.16 1320.18 1104.71 1298 1104.71 1298" stroke="white" stroke-width="2.7" stroke-linejoin="round"/>
<path d="M771.27 1274.34C771.27 1274.34 817.27 1296.52 945.71 1296.52C1074.15 1296.52 1109.19 1274.34 1109.19 1274.34" stroke="white" stroke-width="2.7" stroke-linejoin="round"/>
<path d="M766.77 1250.73C766.77 1250.73 817.26 1272.91 945.71 1272.91C1074.16 1272.91 1113.71 1250.73 1113.71 1250.73" stroke="white" stroke-width="2.7" stroke-linejoin="round"/>
<path d="M802.2 1099.48H1088.36" stroke="white" stroke-width="2.7" stroke-linejoin="round"/>
<path d="M945.71 1066.63H1082.15C1084.46 1066.63 1086.74 1067.19 1088.79 1068.26C1090.84 1069.33 1092.59 1070.88 1093.91 1072.77C1095.23 1074.67 1096.07 1076.86 1096.36 1079.15C1096.65 1081.45 1096.38 1083.77 1095.57 1085.94C1089.57 1101.79 1077.87 1118.43 1065.57 1127.44C1047.92 1140.32 993.22 1147.44 945.76 1147.05" stroke="white" stroke-width="2.7" stroke-linejoin="round"/>
<path d="M945.67 1066.63H809.23C806.919 1066.63 804.642 1067.19 802.593 1068.26C800.545 1069.33 798.786 1070.88 797.467 1072.77C796.148 1074.67 795.309 1076.86 795.02 1079.15C794.732 1081.45 795.003 1083.77 795.81 1085.94C801.81 1101.79 813.51 1118.43 825.86 1127.44C843.51 1140.32 898.22 1147.44 945.67 1147.05" stroke="white" stroke-width="2.7" stroke-linejoin="round"/>
<path d="M816.69 1119.27H1075.28" stroke="white" stroke-width="2.7" stroke-linejoin="round"/>
<path d="M795.15 1083.59H1096.23" stroke="white" stroke-width="2.7" stroke-linejoin="round"/>
<path d="M808.46 947.43C815.811 947.43 821.77 941.471 821.77 934.12C821.77 926.769 815.811 920.81 808.46 920.81C801.109 920.81 795.15 926.769 795.15 934.12C795.15 941.471 801.109 947.43 808.46 947.43Z" stroke="white" stroke-width="2.7" stroke-linejoin="round"/>
<path d="M808.46 942.35C813.005 942.35 816.69 938.665 816.69 934.12C816.69 929.575 813.005 925.89 808.46 925.89C803.915 925.89 800.23 929.575 800.23 934.12C800.23 938.665 803.915 942.35 808.46 942.35Z" stroke="white" stroke-width="1.67" stroke-linejoin="round"/>
<path d="M808.46 919.46C805.561 919.46 802.726 920.32 800.315 921.931C797.905 923.541 796.026 925.831 794.916 928.51C793.806 931.189 793.516 934.136 794.082 936.98C794.647 939.824 796.044 942.436 798.094 944.486C800.144 946.536 802.756 947.933 805.6 948.498C808.444 949.064 811.391 948.774 814.07 947.664C816.749 946.554 819.038 944.675 820.649 942.265C822.26 939.854 823.12 937.019 823.12 934.12C823.115 930.233 821.568 926.508 818.82 923.76C816.072 921.011 812.346 919.465 808.46 919.46ZM808.46 946.08C806.087 946.08 803.767 945.376 801.793 944.058C799.82 942.739 798.282 940.865 797.373 938.672C796.465 936.479 796.228 934.067 796.691 931.739C797.154 929.411 798.297 927.273 799.975 925.595C801.653 923.916 803.791 922.774 806.119 922.31C808.447 921.847 810.859 922.085 813.052 922.993C815.245 923.902 817.119 925.44 818.438 927.413C819.756 929.386 820.46 931.707 820.46 934.08C820.46 937.263 819.196 940.315 816.945 942.565C814.695 944.816 811.643 946.08 808.46 946.08Z" fill="white"/>
<path d="M808.46 925.06C806.665 925.058 804.91 925.588 803.417 926.584C801.924 927.58 800.76 928.997 800.072 930.654C799.385 932.312 799.204 934.137 799.554 935.897C799.903 937.657 800.768 939.274 802.037 940.543C803.306 941.812 804.923 942.676 806.683 943.026C808.443 943.376 810.268 943.195 811.926 942.508C813.583 941.82 815 940.656 815.996 939.163C816.991 937.67 817.522 935.915 817.52 934.12C817.517 931.718 816.562 929.415 814.863 927.716C813.165 926.018 810.862 925.063 808.46 925.06ZM808.46 941.52C806.996 941.522 805.564 941.09 804.346 940.278C803.128 939.466 802.178 938.311 801.616 936.959C801.055 935.607 800.907 934.119 801.191 932.682C801.475 931.246 802.179 929.927 803.214 928.891C804.248 927.855 805.567 927.149 807.003 926.863C808.438 926.577 809.927 926.722 811.28 927.282C812.632 927.842 813.789 928.791 814.602 930.008C815.416 931.225 815.85 932.656 815.85 934.12C815.847 936.08 815.068 937.959 813.683 939.346C812.298 940.733 810.42 941.515 808.46 941.52Z" fill="white"/>
<path d="M810 979.54H807C802.61 979.545 798.401 981.292 795.296 984.396C792.192 987.501 790.445 991.71 790.44 996.1V1007.51C790.445 1011.9 792.192 1016.11 795.296 1019.21C798.401 1022.32 802.61 1024.06 807 1024.07H810C814.39 1024.06 818.599 1022.32 821.704 1019.21C824.808 1016.11 826.555 1011.9 826.56 1007.51V996.1C826.555 991.71 824.808 987.501 821.704 984.396C818.599 981.292 814.39 979.545 810 979.54ZM823.86 1007.54C823.847 1011.21 822.381 1014.72 819.784 1017.32C817.187 1019.91 813.669 1021.36 810 1021.37H807C803.325 1021.37 799.801 1019.91 797.202 1017.31C794.604 1014.71 793.143 1011.19 793.14 1007.51V1002.64H823.9L823.86 1007.54ZM823.86 1001H793.08V996.1C793.083 992.425 794.544 988.901 797.142 986.302C799.741 983.704 803.265 982.243 806.94 982.24H809.94C813.614 982.245 817.137 983.707 819.735 986.305C822.333 988.903 823.795 992.426 823.8 996.1L823.86 1001Z" fill="white"/>
<path d="M1886.54 499.88V690.81C1862.73 716.12 1836.98 742.54 1813.93 763.88C1754.05 819.32 1740.86 868.13 1733.78 894.35L1733.45 895.56C1705.62 891.06 1692.23 883.92 1676.45 875.56C1673.9 874.2 1671.29 872.81 1668.54 871.38C1661.41 867.69 1655.17 863.22 1648.54 858.48C1634.75 848.59 1619.54 837.71 1592.45 831.54H1592.63C1597.09 831.69 1601.45 831.83 1605.63 831.83C1624.54 831.83 1641.11 829.01 1654.84 811.09C1676.2 783.23 1817.62 592.09 1827.78 577.74C1832.8 570.69 1859.65 535.24 1886.54 499.88Z" fill="white"/>
<path d="M268.2 834.09C259.32 876.28 254 879.35 194.88 879.41C166.37 879.41 133.62 894.2 132.04 894.68L123.66 895.8C112.73 824.56 84.47 790.53 69.25 772.21L67.67 770.3C65.45 767.62 61.53 762.85 56.37 756.56L48.5 747L47.06 745.25L37.32 733.42L35.92 731.72C34.99 730.58 34.04 729.42 33.07 728.26L29.17 723.52C22.44 715.36 15.26 706.67 7.94 697.86C7.06667 696.8 6.18667 695.74 5.3 694.68C4.92 694.207 4.53 693.737 4.13 693.27L-0.18 688.08C-6.66 680.29 -13.18 672.52 -19.45 665.08L-22.83 661.08C-23.09 660.77 -23.35 660.45 -23.62 660.14L-27.71 655.3C-31.44 650.9 -35.06 646.65 -38.5 642.61V453.66L-35.64 458.1C-33.64 461.1 -31.64 464.26 -29.58 467.46L-27.67 470.4C-27.13 471.24 -26.59 472.08 -26.04 472.92C-25.49 473.76 -24.95 474.61 -24.39 475.46C-23.69 476.56 -22.97 477.66 -22.24 478.78C-21.67 479.67 -21.09 480.57 -20.5 481.47C-18.18 485.077 -15.7967 488.743 -13.35 492.47L-9.67 498.16C-2.08 509.91 5.93 522.28 14.16 535.01L17.71 540.49L21.71 546.61L27.17 555.06L29.55 558.74C31.2833 561.407 33.0133 564.073 34.74 566.74C36.2 568.99 37.67 571.25 39.13 573.52L43.66 580.52C52.77 594.72 62 608.92 71 622.89C73.5067 626.777 76.0067 630.643 78.5 634.49L82.22 640.23L84.85 644.29L91.48 654.55C92.25 655.73 93.01 656.91 93.76 658.08L107.11 678.73L113.53 688.66L126.72 709.06C127.44 710.19 128.17 711.31 128.89 712.42L135.17 722.15L136.8 724.66C136.85 724.75 136.91 724.84 136.97 724.93C137.42 725.63 137.86 726.32 138.31 727L143.82 735.54L144.64 736.81L146.25 739.3L147.82 741.74L148.2 742.32C148.56 742.89 148.93 743.45 149.29 744.01L150.85 746.44C151.27 747.08 151.68 747.71 152.08 748.34L162 763.7L163.54 766.1L164.98 768.34C165.17 768.63 165.35 768.92 165.54 769.2L166.9 771.32L167.48 772.22L167.53 772.29C167.737 772.63 167.947 772.963 168.16 773.29C168.43 773.7 168.68 774.1 168.93 774.49L169.65 775.61C169.89 775.97 170.11 776.32 170.32 776.61L171.26 778.08L171.53 778.5L172.65 780.25C174.9 783.79 176.89 787.1 178.86 790.13C217.85 850.16 253.36 828.78 268.2 834.09Z" fill="white"/>
<path d="M711.41 824C751.97 822.59 1044.33 825.09 1136.78 828.22C1229.23 831.35 1478.78 838.86 1523.22 840.73C1567.66 842.6 1613.92 862.63 1634.56 875.73C1655.2 888.83 1685.27 908.19 1753.56 917.04" stroke="white" stroke-width="10" stroke-linejoin="round"/>
<path d="M218.63 960.64C232.84 960.76 647.11 961.52 655.3 961.52C679.3 961.52 711.16 975.03 721.07 991.43C730.98 1007.83 777 1093.72 789 1110.22C801 1126.72 818.32 1152.89 865.31 1156.99C912.3 1161.09 994.61 1165.5 1030.87 1156.99C1067.13 1148.48 1090.16 1137.75 1109.71 1098.65C1129.26 1059.55 1173.41 972.91 1186.97 958.2C1200.53 943.49 1212.5 919.15 1269.59 918.27C1326.68 917.39 1311.03 917.09 1311.03 917.09" stroke="white" stroke-width="10" stroke-linejoin="round"/>
<path d="M226.65 833.1C235.88 832.61 296.49 835.96 313.27 824.66C318.14 821.39 401.08 775.26 479.03 775.26C537.26 775.26 602.49 783.54 628.11 788.49C639.8 790.75 661.11 800.11 678.93 805.39C690.206 810.774 701.063 816.995 711.41 824C726.408 834.204 740.824 845.238 754.59 857.05C773.26 872.84 779.34 875.93 786.48 878.86L788.43 879.65C796.53 882.92 815.96 876.52 899.13 875.39C982.3 874.26 1039.89 877.87 1054.73 878.2C1069.57 878.53 1091 880 1098 881.4C1099.82 881.77 1102.28 882.28 1104.92 882.97C1110.92 884.54 1117.84 887.03 1120.44 890.89C1121.12 891.857 1121.49 893.008 1121.5 894.19C1121.5 902.02 1128.98 903.47 1135.62 903.47C1142.26 903.47 1303.7 902.8 1311.01 917.09C1335.59 917.09 1526.93 924.39 1553.17 926.09C1579.41 927.79 1838.85 942.69 1838.85 942.69C1838.85 942.69 1853.13 942.69 1854.46 965.28C1854.59 967.36 1854.66 969.59 1854.69 971.93C1854.69 975.54 1854.69 979.4 1854.58 983.38C1854.46 987.57 1854.26 991.89 1854.02 996.14C1853.78 1000.39 1853.47 1004.83 1853.15 1008.9C1852.78 1013.58 1852.4 1017.9 1852.04 1021.66C1851.48 1027.66 1851.04 1031.97 1850.8 1033.46C1850.14 1038.69 1856.8 1042.02 1856.8 1042.02C1856.8 1042.02 1859.8 1046.2 1848.29 1063.88C1844.23 1070.15 1852.55 1057.32 1844.09 1067.4" stroke="white" stroke-width="10" stroke-linejoin="round"/>
<path d="M678.93 805.39C725.72 803.98 966.7 802.72 1025.33 805.39C1083.96 808.06 1238.94 816.22 1317.8 818.94C1396.66 821.66 1501.29 823.81 1563.8 828.65C1626.31 833.49 1640.95 858.56 1667.91 872.53C1694.87 886.5 1708.78 897.53 1774.17 900.92C1839.56 904.31 1838.84 942.66 1838.84 942.66C1833.84 924.74 1810.39 921.51 1786.33 919.66C1762.27 917.81 1615.33 906.13 1452.98 897.11C1290.63 888.09 1142.98 890.34 1120.44 890.92" stroke="white" stroke-width="10" stroke-linejoin="round"/>
<path d="M1161.9 1128.94C1132.2 1163.64 1118.67 1219.15 1053.1 1225.65C987.53 1232.15 968.04 1230.37 946.78 1231.55C925.52 1232.73 802.28 1237.65 744.83 1168.96C717.66 1136.48 710.5 1116.08 664.61 1088.32" stroke="white" stroke-width="10" stroke-linejoin="round"/>
<path d="M786.48 902.94H1104.95" stroke="white" stroke-width="2.7" stroke-linejoin="round"/>
<path d="M510.51 721.09C339.8 721.09 201.41 859.48 201.41 1030.19C201.41 1200.9 339.8 1339.29 510.51 1339.29C681.22 1339.29 819.61 1200.9 819.61 1030.19C819.61 859.48 681.22 721.09 510.51 721.09ZM731.15 984.31C727.68 984.1 715.53 982.14 709.68 979.97C703.83 977.8 696.23 979.54 699.05 992.55C701.87 1005.56 705.77 1031.48 706.64 1037.18C707.51 1042.88 704.69 1043.31 713.36 1051.12C722.03 1058.93 732.67 1067.17 736.14 1070.2C739.61 1073.23 750.02 1081.05 747.85 1106.64C745.68 1132.23 714 1176.48 711 1181.47C709.4 1184.09 692.92 1203.47 675.21 1219.47C659.21 1233.91 642.21 1245.04 635.08 1248.75C620.08 1256.56 617.3 1258.94 610.14 1260.46C602.98 1261.98 576.96 1265.67 568.5 1241.59C560.04 1217.51 561.34 1218.59 560.5 1209.49C559.66 1200.39 551.61 1202.77 546.62 1202.77C541.63 1202.77 510.56 1202.55 510.56 1202.55C510.56 1202.55 479.49 1202.77 474.5 1202.77C469.51 1202.77 461.5 1200.38 460.62 1209.49C459.74 1218.6 461.06 1217.49 452.62 1241.59C444.18 1265.69 418.13 1261.98 410.97 1260.46C403.81 1258.94 400.97 1256.56 386.03 1248.75C378.93 1245.04 361.89 1233.91 345.9 1219.47C328.2 1203.47 311.71 1184.13 310.12 1181.47C307.12 1176.47 275.41 1132.24 273.24 1106.64C271.07 1081.04 281.49 1073.24 284.96 1070.2C288.43 1067.16 299.05 1058.92 307.73 1051.12C316.41 1043.32 313.59 1042.87 314.45 1037.18C315.31 1031.49 319.23 1005.57 322.05 992.55C324.87 979.53 317.2 977.81 311.35 980C305.5 982.19 293.35 984.13 289.87 984.34C286.39 984.55 271.87 986.34 266.23 967.86C260.59 949.38 271 936.63 285.54 923.39C300.08 910.15 313.3 897.12 317 889.53C320.7 881.94 327.19 863.28 331.53 856.13C335.87 848.98 340.64 846.8 350.83 837.69C361.02 828.58 386.4 812.1 408.31 801.47C430.22 790.84 464.69 780.76 510.52 780.76C556.35 780.76 590.83 790.84 612.73 801.47C634.63 812.1 660 828.58 670.2 837.69C680.4 846.8 685.2 848.97 689.51 856.13C693.82 863.29 700.35 881.94 704.04 889.53C707.73 897.12 720.96 910.13 735.49 923.36C750.02 936.59 760.43 949.36 754.79 967.83C749.15 986.3 734.62 984.53 731.15 984.31Z" fill="white" stroke="white" stroke-width="4" stroke-miterlimit="10"/>
<path d="M679.87 984.17C676.06 973.59 674.16 965.96 655.1 959.82C636.04 953.68 588.41 936.33 510.51 936.33C432.61 936.33 385 953.69 365.92 959.82C346.84 965.95 344.92 973.59 341.15 984.17C337.38 994.75 335.01 1013.17 331.2 1041.96C357.45 1047.04 401.49 1061.44 431.97 1102.51C462.45 1143.58 463.51 1171.73 465.63 1186.98C475.37 1186.34 510.51 1185.92 510.51 1185.92C510.51 1185.92 545.66 1186.34 555.39 1186.98C557.51 1171.73 558.57 1143.58 589.05 1102.51C619.53 1061.44 663.57 1047 689.82 1042C686 1013.17 683.68 994.75 679.87 984.17ZM510.51 1072.6C502.122 1072.6 493.923 1070.11 486.948 1065.45C479.974 1060.79 474.538 1054.17 471.328 1046.42C468.118 1038.67 467.279 1030.14 468.915 1021.92C470.551 1013.69 474.591 1006.13 480.522 1000.2C486.453 994.27 494.01 990.231 502.236 988.595C510.463 986.958 518.99 987.798 526.74 991.008C534.489 994.218 541.113 999.654 545.773 1006.63C550.433 1013.6 552.92 1021.8 552.92 1030.19C552.92 1041.44 548.452 1052.22 540.498 1060.18C532.545 1068.13 521.758 1072.6 510.51 1072.6Z" fill="white" stroke="white" stroke-width="4" stroke-miterlimit="10"/>
<path d="M-38.5 453.66C-38.5 453.66 154.41 748.32 173.75 778.66C193.09 809 199.56 824.88 226.65 833.07" stroke="white" stroke-width="10" stroke-linejoin="round"/>
<path d="M1105 882.69V1007.69C1105 1012.4 1103.87 1017.05 1101.72 1021.24C1099.23 1026.09 1095.45 1030.16 1090.8 1033C1086.15 1035.84 1080.8 1037.34 1075.35 1037.34H945.71" stroke="white" stroke-width="2.7" stroke-linejoin="round"/>
<path d="M850.93 902.94V1037.36" stroke="white" stroke-width="2.7" stroke-linejoin="round"/>
<path d="M1080.74 902.94V1037.36" stroke="white" stroke-width="2.7" stroke-linejoin="round"/>
<path d="M902.79 1145.49L911.57 1137.26C915.91 1133.21 921.63 1130.95 927.57 1130.96H945.75" stroke="white" stroke-width="2.7" stroke-linejoin="round"/>
<path d="M988.62 1145.49L979.84 1137.26C975.501 1133.2 969.78 1130.95 963.84 1130.96H945.7" stroke="white" stroke-width="2.7" stroke-linejoin="round"/>
<path d="M-38.5 643.76C-0.669998 688 55.28 756.58 66.63 770.3C81.8 788.63 111.2 821.55 122.3 895.8" stroke="white" stroke-width="10" stroke-linejoin="round"/>
<path d="M1575.45 829.84C1607.45 829.48 1633.72 836.48 1653.85 810.22C1673.98 783.96 1816.25 591.79 1826.75 576.91C1831.75 569.77 1859.3 533.45 1886.54 497.63" stroke="white" stroke-width="10" stroke-linejoin="round"/>
<path d="M1886.54 692.77C1863.01 717.77 1837.72 743.68 1814.84 764.86C1753.33 821.81 1741.17 872.32 1734.43 897.09" stroke="white" stroke-width="10" stroke-linejoin="round"/>
<path d="M235.88 879.49C232.23 877.56 44.8101 904.21 38.2901 916C35.4801 921.09 33.1001 923.88 29.1701 931.76C20.03 950.1 20.42 1015.14 24.06 1032.27" stroke="white" stroke-width="10" stroke-linejoin="round"/>
<path d="M24 1032C25.23 1035.77 19.27 1042 19.1 1042.49" stroke="white" stroke-width="10" stroke-linejoin="round"/>
</g>
<defs>
<clipPath id="clip0_1_2">
<rect width="1880" height="1880" fill="white"/>
</clipPath>
</defs>
</svg>
