<svg width="336" height="400" viewBox="0 0 336 400" fill="none" xmlns="http://www.w3.org/2000/svg">
<path fill-rule="evenodd" clip-rule="evenodd" d="M29.793 37.603C23.7423 47.0271 17.523 56.7145 13.161 64.3271C4.02045 80.2791 15.5648 94.0539 31.1908 93.6033C46.8169 93.1534 73.7621 88.5363 85.2816 86.2848C91.4794 84.6578 106.88 79.341 109.885 64.3271C113.641 45.5602 117.774 5.58855 96.5504 2.39623C75.3265 -0.79609 53.7291 -2.97046 46.4042 10.6537C42.846 17.2717 36.421 27.2794 29.793 37.603ZM132.428 35.0496L132.442 35.0273L132.452 35.0114L132.452 35.0111C135.473 30.2615 138.234 25.92 140.122 22.6809C145.809 12.922 158.163 13.8846 171.863 16.1124C184.979 18.2456 180.538 41.9654 178.009 55.4752L178.008 55.4767C177.896 56.0762 177.788 56.6556 177.684 57.212C175.745 67.6895 167.785 72.5436 163.785 73.6784C156.349 75.2504 137.249 76.228 127.163 76.5423C117.076 76.8565 112.435 69.4877 118.335 58.3552C121.977 51.4835 127.54 42.7363 132.427 35.0511L132.428 35.0496ZM99.3582 99.0781L163.906 272.879C163.922 272.921 163.942 272.959 163.966 272.993L63.9373 388.8C55.1439 372.277 19.1909 214.287 1.78671 134.91C1.76425 134.806 1.74075 134.7 1.71646 134.59L1.6824 134.437L1.60593 134.094C0.702087 130.052 -0.950348 122.658 0.710144 116.894C1.75043 113.28 4.09302 110.307 8.73587 109.199C13.6986 108.015 19.3871 106.646 25.3524 105.211L25.3565 105.209L25.3612 105.209C43.3843 100.871 63.9361 95.9253 74.6592 93.6221C80.4432 92.8686 90.9081 94.7398 99.3582 99.0781ZM64.4863 389.694C64.4865 389.694 64.4867 389.693 64.4869 389.693L154.161 285.874C154.248 285.957 154.365 286.009 154.495 286.012L317.335 289.96C320.653 293.051 323.551 296.65 325.95 300.81C330.174 309.549 332.957 322.607 329.712 340.221C328.44 347.125 327.426 353.546 326.494 359.449L326.493 359.453L326.492 359.458C324.973 369.075 323.671 377.319 321.824 384.044C320.428 389.122 318.722 393.334 316.377 396.618C313.876 400.12 305.921 399.836 299.807 399.617H299.804C298.45 399.569 297.187 399.524 296.093 399.524C266.043 399.524 73.7198 399.149 64.7049 389.953C64.6349 389.881 64.562 389.795 64.4863 389.694ZM154.898 285.021L204.687 227.378C204.732 227.326 204.765 227.266 204.785 227.204C227.584 218.888 269.133 209.029 307.438 214.2C324.024 216.399 333.44 231.369 334.423 237.74C334.7 239.529 334.941 240.986 335.145 242.225L335.146 242.226L335.146 242.229C335.548 244.661 335.811 246.251 335.928 247.85C336.151 250.867 335.858 253.922 335.013 262.736L335.013 262.736C334.84 264.543 334.643 266.591 334.423 268.931C332.326 278.539 329.106 285.22 319.531 289.014C319.526 289.013 319.521 289.013 319.516 289.013C319.511 289.012 319.506 289.012 319.501 289.012L154.898 285.021ZM204.136 226.582C233.896 177.066 213.976 153.855 203.187 141.285C202.251 140.194 201.383 139.183 200.623 138.242C192.385 128.047 189.259 117.991 186.177 108.074C185.673 106.451 185.169 104.832 184.645 103.216C181.073 92.21 177.338 87.5996 172.659 81.8255C172.514 81.6462 172.368 81.4663 172.221 81.285L172.04 81.0607C168.063 76.1421 161.151 76.2052 158.192 76.8518L117.444 81.0607C105.507 81.0607 101.24 90.5326 100.494 96.5901V99.2631L164.7 272.143L203.93 226.725C203.988 226.658 204.059 226.61 204.136 226.582ZM164.435 298.745C164.992 298.477 165.558 298.207 166.135 297.936L165.556 297.957L165.037 297.976C164.652 298.485 164.435 298.745 164.435 298.745Z" fill="white"/>
</svg>
