<svg width="494" height="506" viewBox="0 0 494 506" fill="none" xmlns="http://www.w3.org/2000/svg">
<g clip-path="url(#clip0_1003_116)">
<path d="M102.21 287.35L68.3397 266.17C65.5614 264.419 62.2517 263.71 58.9997 264.17C48.6297 265.69 25.4897 270.36 15.5597 282.84C12.7397 286.38 62.9697 306.44 64.3097 310.77L91.3097 366C100.532 384.776 104.642 405.652 103.225 426.523C101.809 447.394 94.9151 467.522 83.2397 484.88C80.9297 488.3 79.8597 490.48 80.7897 490.69C105.3 496.15 139.11 472.82 146.54 467.4C147.568 466.65 148.695 466.048 149.89 465.61C152.538 464.621 154.82 462.846 156.429 460.522C158.038 458.198 158.897 455.437 158.89 452.61V416.15C158.885 414.277 158.504 412.423 157.77 410.7L107.57 293.63C106.462 291.041 104.592 288.851 102.21 287.35Z" fill="white"/>
<path d="M101.5 370.5C83.96 311.5 45.5797 270.22 24.4397 276.5C21.7345 277.353 19.3026 278.905 17.3897 281C2.99971 296.17 2.64971 343.15 17.9997 394.78C35.5197 453.78 66.8397 496.57 87.9997 490.28C109.16 483.99 119.06 429.5 101.5 370.5ZM82.1497 471.62C63.5697 477.15 37.1497 443.25 23.0597 395.9C8.96971 348.55 12.6597 305.69 31.2297 300.15C49.7997 294.61 76.2297 328.52 90.3197 375.87C104.41 423.22 100.72 466.09 82.1497 471.62Z" fill="white"/>
<path d="M335.75 122.27L37 118.39L11.64 54.39V16C11.64 16 158 19.88 219.82 45.8C223.053 47.1733 226.179 48.7878 229.17 50.63C235.68 54.63 249.65 63.22 265.47 73.25C245.88 60.37 225.47 47.76 209.01 39.4C161.81 15.44 0.5 0.55 0.5 0.55V319.11C1.17 294.7 7.35 246.4 26.67 248.53C92 260.18 128.19 397.46 142.41 448C156.63 498.54 157.93 488.79 222.59 505C392 512.12 493.18 413.7 493.18 413.7V161.77C493.18 147.57 335.75 122.27 335.75 122.27ZM415.14 297.74C411.73 309.5 405.14 326.22 394.37 331.62C377.13 340.25 250.83 345.62 192.2 322.88C192.2 322.88 164.2 265.73 201.68 252.93C201.68 252.93 384.03 263.86 399.12 269.93C401.103 270.72 403.031 271.642 404.89 272.69C409.178 275.103 412.525 278.895 414.385 283.45C416.246 288.005 416.512 293.055 415.14 297.78V297.74Z" fill="white"/>
</g>
<defs>
<clipPath id="clip0_1003_116">
<rect width="493.68" height="505.81" fill="white"/>
</clipPath>
</defs>
</svg>
