<svg width="358" height="240" viewBox="0 0 358 240" fill="none" xmlns="http://www.w3.org/2000/svg">
<path fill-rule="evenodd" clip-rule="evenodd" d="M118.699 38.4072L111.369 37.7441C111.369 37.7441 103.889 38.9935 103.889 42.3255C103.889 45.6575 105.211 47.846 105.211 47.846L118.699 38.4072Z" fill="white"/>
<path fill-rule="evenodd" clip-rule="evenodd" d="M100.408 51.2802L30.4395 77.5189C1.66272 102.508 8.93454 116.252 8.93454 116.252L1.45465 125.041L2.28554 143.532L0 152.278L4.98722 180.808C16.2068 218.084 158.327 239.325 158.327 239.325C158.327 239.325 206.738 247.03 207.777 210.379C208.816 173.728 241.645 132.495 241.645 132.495C241.645 132.495 244.138 128.122 258.891 132.704C273.642 137.285 262.838 180.392 262.838 180.392L336.184 117.71C336.184 117.71 345.949 75.0202 352.39 77.3109C357.051 78.9682 356.599 88.1471 355.993 93.0961L355.507 96.2609C355.507 96.2609 355.761 94.9874 355.993 93.0961L358 80.0177C358 80.0177 355.299 48.9896 353.845 45.0329C352.812 42.2245 350 40.3602 347.489 38.6956C346.463 38.015 345.486 37.3677 344.702 36.703C342.001 34.4123 330.574 14.4209 330.574 14.4209C330.574 14.4209 326.21 7.08025 304.861 4.42545C283.512 1.77018 260.293 0.832915 260.293 0.832915C260.293 0.832915 208.401 -1.04114 195.467 0.832915C182.532 2.70697 167.573 5.51877 159.158 10.3602C150.742 15.2016 100.408 51.2802 100.408 51.2802ZM83.734 151.862C94.3308 159.775 93.0837 186.847 93.0837 186.847C93.5391 199.27 16.8297 174.769 9.97313 158.317C3.11605 141.866 13.5052 129.788 13.5052 129.788C13.5052 129.788 73.1372 143.949 83.734 151.862ZM103.889 145.615L187.208 135.202C187.208 135.202 201.128 140.409 188.869 161.025C182.844 164.981 128.822 174.977 114.693 169.979C100.564 164.981 98.0709 150.613 100.98 148.113L103.889 145.615ZM259.722 58.5687L261.799 69.814C261.799 69.814 313.328 58.7772 312.912 55.2367C312.497 51.6966 300.238 13.3799 300.238 13.3799C300.238 13.3799 291.719 14.8373 282.161 16.9199C272.604 19.0025 259.722 58.5687 259.722 58.5687ZM303.147 12.9059C303.147 12.9059 320.387 11.2447 325.795 13.3788C331.202 15.513 340.49 38.7214 341.114 41.3758C341.737 44.0296 316.181 54.4421 316.181 54.4421C316.181 54.4421 304.596 17.0931 303.147 12.9059ZM269.66 14.547L163.526 10.7383L101.934 53.9357L239.359 73.3544L246.216 69.8144L269.66 14.547ZM303.627 76.0745L312.829 69.8699L316.292 69.1525L316.572 71.9058L304.625 77.5641L303.627 76.0745ZM341.647 53.4826L335.056 58.4508L335.991 59.9702L344.793 55.8015L344.292 53.1524L341.647 53.4826Z" fill="white"/>
<path fill-rule="evenodd" clip-rule="evenodd" d="M307.492 57.68C307.829 61.8831 306.246 69.9662 299.389 71.8407C292.533 73.7148 264.691 77.0467 264.691 77.0467C264.691 77.0467 260.535 76.8387 261.989 69.7586L269.885 67.8094V63.5108C269.885 63.5108 269.989 54.5566 278.611 52.6821C287.234 50.808 307.194 53.9622 307.492 57.68Z" fill="white"/>
</svg>
