<svg width="337" height="400" viewBox="0 0 337 400" fill="none" xmlns="http://www.w3.org/2000/svg">
<path fill-rule="evenodd" clip-rule="evenodd" d="M306.239 37.603C312.29 47.0271 318.51 56.7145 322.873 64.3271C332.014 80.2791 320.469 94.0539 304.841 93.6033C289.213 93.1534 262.265 88.5363 250.745 86.2848C244.546 84.6578 229.144 79.341 226.139 64.3271C222.382 45.5602 218.249 5.58855 239.475 2.39623C260.701 -0.79609 282.3 -2.97046 289.626 10.6537C293.185 17.2717 299.61 27.2794 306.239 37.603ZM203.593 35.0487L203.579 35.0273L203.569 35.0116C200.548 30.2619 197.787 25.9201 195.899 22.6809C190.21 12.922 177.855 13.8846 164.154 16.1124C151.037 18.2456 155.478 41.9654 158.008 55.4751L158.008 55.4752L158.008 55.4767C158.12 56.0762 158.229 56.6556 158.332 57.212C160.272 67.6895 168.232 72.5436 172.233 73.6784C179.67 75.2504 198.772 76.228 208.859 76.5423C218.947 76.8565 223.588 69.4877 217.687 58.3552C214.045 51.4828 208.481 42.7347 203.593 35.049L203.593 35.0487ZM236.666 99.0782L172.111 272.88C172.096 272.921 172.076 272.959 172.052 272.993L272.091 388.8C280.885 372.278 316.842 214.287 334.248 134.91C334.303 134.656 334.364 134.384 334.429 134.094C335.333 130.052 336.985 122.658 335.325 116.894C334.284 113.28 331.942 110.307 327.298 109.199C322.335 108.015 316.646 106.646 310.68 105.211L310.676 105.209L310.671 105.209C292.646 100.871 272.092 95.9253 261.368 93.6221C255.583 92.8686 245.117 94.7398 236.666 99.0782ZM271.542 389.694C271.542 389.694 271.542 389.694 271.541 389.693L181.858 285.874C181.771 285.957 181.654 286.009 181.524 286.012L18.6672 289.96C15.3486 293.051 12.4503 296.65 10.0506 300.81C5.82648 309.549 3.04378 322.607 6.28893 340.221C7.56107 347.125 8.57513 353.545 9.50746 359.449L9.50807 359.453L9.50893 359.458L9.50899 359.458C11.028 369.076 12.3301 377.319 14.178 384.044C15.5732 389.122 17.2795 393.334 19.6252 396.618C22.1265 400.12 30.0823 399.836 36.1964 399.617H36.2001C37.554 399.569 38.8175 399.524 39.9112 399.524C69.9647 399.524 262.308 399.149 271.323 389.953C271.393 389.881 271.466 389.795 271.542 389.694ZM181.121 285.021L131.327 227.378C131.281 227.326 131.249 227.266 131.229 227.204C108.427 218.888 66.8744 209.029 28.5649 214.2C11.9773 216.399 2.56065 231.369 1.57676 237.74C1.30041 239.529 1.05945 240.987 0.854639 242.226L0.854587 242.226L0.85417 242.229C0.452159 244.661 0.189355 246.251 0.07152 247.85C-0.150674 250.867 0.1422 253.922 0.987332 262.736L0.987347 262.736C1.16055 264.543 1.35695 266.591 1.57687 268.931C3.67475 278.539 6.89429 285.22 16.4709 289.014C16.4807 289.013 16.4905 289.012 16.5004 289.012L181.121 285.021ZM131.877 226.582C102.114 177.066 122.036 153.855 132.827 141.285C133.763 140.194 134.631 139.183 135.391 138.242C143.63 128.047 146.756 117.991 149.838 108.074C150.343 106.451 150.846 104.832 151.371 103.216C154.943 92.21 158.679 87.5996 163.358 81.8255L163.625 81.4956L163.796 81.285L163.977 81.0607C167.954 76.1421 174.867 76.2052 177.826 76.8518L218.579 81.0607C230.517 81.0607 234.785 90.5326 235.531 96.5901V99.263L171.318 272.143L132.084 226.725C132.026 226.658 131.955 226.61 131.877 226.582ZM171.583 298.745C171.026 298.477 170.46 298.207 169.883 297.936L170.462 297.957L170.98 297.976C171.366 298.485 171.583 298.745 171.583 298.745Z" fill="white"/>
</svg>
