<?xml version="1.0" encoding="utf-8"?>
<!-- Generator: Adobe Illustrator 24.0.0, SVG Export Plug-In . SVG Version: 6.00 Build 0)  -->
<svg version="1.1" id="Calque_1" xmlns="http://www.w3.org/2000/svg" xmlns:xlink="http://www.w3.org/1999/xlink" x="0px" y="0px"
	 viewBox="0 0 493.2 506" style="enable-background:new 0 0 493.2 506;" xml:space="preserve">
<style type="text/css">
	.st0{clip-path:url(#SVGID_2_);}
	.st1{fill:#FFFFFF;}
</style>
<g>
	<defs>
		<rect id="SVGID_1_" width="493.7" height="505.8"/>
	</defs>
	<clipPath id="SVGID_2_">
		<use xlink:href="#SVGID_1_"  style="overflow:visible;"/>
	</clipPath>
	<g class="st0">
		<path class="st1" d="M391.5,287.4l33.9-21.2c2.8-1.8,6.1-2.5,9.3-2c10.4,1.5,33.5,6.2,43.4,18.7c2.8,3.5-47.4,23.6-48.8,27.9
			l-27,55.2c-9.2,18.8-13.3,39.7-11.9,60.5c1.4,20.9,8.3,41,20,58.4c2.3,3.4,3.4,5.6,2.5,5.8c-24.5,5.5-58.3-17.9-65.8-23.3
			c-1-0.8-2.2-1.4-3.4-1.8c-2.6-1-4.9-2.8-6.5-5.1c-1.6-2.3-2.5-5.1-2.5-7.9v-36.5c0-1.9,0.4-3.7,1.1-5.4l50.2-117.1
			C387.2,291,389.1,288.9,391.5,287.4z"/>
		<path class="st1" d="M392.2,370.5c17.5-59,55.9-100.3,77.1-94c2.7,0.9,5.1,2.4,7.1,4.5c14.4,15.2,14.7,62.1-0.6,113.8
			c-17.5,59-48.8,101.8-70,95.5S374.6,429.5,392.2,370.5z M411.5,471.6c18.6,5.5,45-28.4,59.1-75.7s10.4-90.2-8.2-95.8
			c-18.6-5.5-45,28.4-59.1,75.7C389.3,423.2,393,466.1,411.5,471.6z"/>
		<path class="st1" d="M157.9,122.3l298.8-3.9l25.4-64V16c0,0-146.4,3.9-208.2,29.8c-3.2,1.4-6.4,3-9.3,4.8
			c-6.5,4-20.5,12.6-36.3,22.6c19.6-12.9,40-25.5,56.5-33.8c47.2-24,208.5-38.9,208.5-38.9v318.6c-0.7-24.4-6.9-72.7-26.2-70.6
			C401.7,260.2,365.5,397.5,351.3,448s-15.5,40.8-80.2,57C101.7,512.1,0.5,413.7,0.5,413.7V161.8C0.5,147.6,157.9,122.3,157.9,122.3
			z M78.5,297.7c3.4,11.8,10,28.5,20.8,33.9c17.2,8.6,143.5,14,202.2-8.7c0,0,28-57.1-9.5-70c0,0-182.4,10.9-197.4,17
			c-2,0.8-3.9,1.7-5.8,2.8c-4.3,2.4-7.6,6.2-9.5,10.8C77.4,288,77.2,293.1,78.5,297.7L78.5,297.7z"/>
	</g>
</g>
</svg>
