<svg width="360" height="301" viewBox="0 0 360 301" fill="none" xmlns="http://www.w3.org/2000/svg">
<g clip-path="url(#clip0_839_119)">
<path fill-rule="evenodd" clip-rule="evenodd" d="M351.6 128.1L344.8 114.9C344.2 113.4 332.9 99.5 331.6 98.5L306.3 74.8C306.16 74.6258 306.009 74.4515 305.854 74.2731C305.563 73.9394 305.26 73.5909 305 73.2L259.7 9C258.3 7 256.2 5.8 253.8 5.6L180.2 0H180.1H180L106.3 5.5C104 5.7 101.8 7 100.4 8.9L54.9997 73.1C54.5997 73.7 54.0997 74.2 53.5997 74.7L28.2997 98.4C27.0997 99.5 15.7997 113.4 15.2997 114.9L8.49974 128.1C7.89974 129.6 -0.200264 175.3 -0.000263673 176.9L7.89974 262.6C8.19974 266.4 18.2997 279.9 21.7997 281.3L79.9997 301C80.5997 301.3 83.8997 299.8 86.7997 298.4C87.339 298.166 87.8672 297.931 88.3664 297.71C89.9965 296.986 91.317 296.4 91.6997 296.4H180H268.2C268.674 296.4 270.026 297.026 271.659 297.783C272.09 297.983 272.54 298.191 273 298.4C273.303 298.536 273.613 298.676 273.923 298.816C276.581 300.014 279.363 301.269 279.9 301L338.2 281.3C341.6 279.9 351.7 266.4 352.1 262.6L360 176.9C360.2 175.3 352.1 129.5 351.6 128.1ZM21.0997 145.2L83.2997 167.3C83.2997 167.3 93.3997 170.8 89.9997 179.5L89.9996 179.501C89.6996 180.4 89.3997 181.3 88.9997 182.3C85.7997 191.3 80.9997 204.7 66.6997 202.4L66.1963 202.318C49.9988 199.67 12.081 193.473 10.2997 181.4C8.39974 169.3 12.0997 145.6 15.3997 144.5H15.4997C15.5177 144.496 15.5371 144.492 15.5579 144.488C16.1171 144.373 17.7254 144.043 21.0997 145.2ZM276.6 167.4L338.8 145.3C342.3 144 344 144.4 344.4 144.6H344.5C347.7 145.7 351.4 169.3 349.6 181.5C347.7 193.7 309.1 200 293.2 202.5C278.9 204.8 274.1 191.4 270.9 182.4C270.726 181.82 270.518 181.274 270.316 180.742C270.169 180.356 270.026 179.978 269.9 179.6C266.6 170.9 276.6 167.4 276.6 167.4ZM181.088 182.2C180.944 182.2 180.814 182.2 180.7 182.2H180.3C180.194 182.2 180.034 182.2 179.823 182.199C172.454 182.181 102.788 182.012 95.3997 192.9C87.5997 204.3 79.0997 227.7 81.9997 236.2C84.8997 244.7 86.8997 250.1 105.6 250.8C118.408 251.319 150.391 251.09 169.332 250.953C172.277 250.932 174.906 250.913 177.1 250.9H180.2C181.061 250.906 182.054 250.914 183.163 250.923C199.313 251.047 240.022 251.361 254.9 250.8C273.6 250.1 275.6 244.7 278.5 236.2C281.4 227.7 272.9 204.3 265.1 192.9C257.914 182.171 190.172 182.196 181.088 182.2ZM62 74.5H297.5L255.695 14.8458C253.988 12.4096 251.284 10.86 248.319 10.6179L179.5 5L111.177 10.6156C108.214 10.8591 105.513 12.4084 103.807 14.843L62 74.5Z" fill="white"/>
</g>
<defs>
<clipPath id="clip0_839_119">
<rect width="360" height="301" fill="white"/>
</clipPath>
</defs>
</svg>
