<svg width="358" height="240" viewBox="0 0 358 240" fill="none" xmlns="http://www.w3.org/2000/svg">
<path fill-rule="evenodd" clip-rule="evenodd" d="M239.301 38.4072L246.631 37.7441C246.631 37.7441 254.111 38.9935 254.111 42.3255C254.111 45.6575 252.789 47.846 252.789 47.846L239.301 38.4072Z" fill="white"/>
<path fill-rule="evenodd" clip-rule="evenodd" d="M257.592 51.2802L327.56 77.5189C356.337 102.508 349.065 116.252 349.065 116.252L356.545 125.041L355.714 143.532L358 152.278L353.013 180.808C341.793 218.084 199.673 239.325 199.673 239.325C199.673 239.325 151.262 247.03 150.223 210.379C149.184 173.728 116.355 132.495 116.355 132.495C116.355 132.495 113.862 128.122 99.1093 132.704C84.3577 137.285 95.1616 180.392 95.1616 180.392L21.8164 117.71C21.8164 117.71 12.051 75.0202 5.60956 77.3109C0.949493 78.9682 1.40131 88.1471 2.00739 93.0961L2.49316 96.2609C2.49316 96.2609 2.23901 94.9874 2.00739 93.0961L0 80.0177C0 80.0177 2.70074 48.9896 4.1554 45.0329C5.18756 42.2245 7.99969 40.3602 10.5107 38.6956C11.5374 38.015 12.5138 37.3677 13.2975 36.703C15.9987 34.4123 27.4264 14.4209 27.4264 14.4209C27.4264 14.4209 31.7899 7.08025 53.1392 4.42545C74.4879 1.77018 97.7071 0.832915 97.7071 0.832915C97.7071 0.832915 149.599 -1.04114 162.533 0.832915C175.468 2.70697 190.427 5.51877 198.842 10.3602C207.258 15.2016 257.592 51.2802 257.592 51.2802ZM274.266 151.862C263.669 159.775 264.916 186.847 264.916 186.847C264.461 199.27 341.17 174.769 348.027 158.317C354.884 141.866 344.495 129.788 344.495 129.788C344.495 129.788 284.863 143.949 274.266 151.862ZM254.111 145.615L170.792 135.202C170.792 135.202 156.872 140.409 169.131 161.025C175.156 164.981 229.178 174.977 243.307 169.979C257.436 164.981 259.929 150.613 257.02 148.113L254.111 145.615ZM98.2783 58.5687L96.2009 69.814C96.2009 69.814 44.6721 58.7772 45.0877 55.2367C45.5034 51.6966 57.762 13.3799 57.762 13.3799C57.762 13.3799 66.2809 14.8373 75.8387 16.9199C85.3965 19.0025 98.2783 58.5687 98.2783 58.5687ZM54.853 12.9059C54.853 12.9059 37.6129 11.2447 32.2053 13.3788C26.7977 15.513 17.5097 38.7214 16.886 41.3758C16.2627 44.0296 41.8192 54.4421 41.8192 54.4421C41.8192 54.4421 53.4035 17.0931 54.853 12.9059ZM88.3396 14.547L194.474 10.7383L256.066 53.9357L118.641 73.3544L111.784 69.8144L88.3396 14.547ZM54.3727 76.0745L45.1706 69.8699L41.7076 69.1525L41.4276 71.9058L53.3745 77.5641L54.3727 76.0745ZM16.3529 53.4826L22.9443 58.4508L22.0091 59.9702L13.2074 55.8015L13.7076 53.1524L16.3529 53.4826Z" fill="white"/>
<path fill-rule="evenodd" clip-rule="evenodd" d="M50.5075 57.68C50.1706 61.8831 51.7541 69.9662 58.6107 71.8407C65.4673 73.7148 93.3094 77.0467 93.3094 77.0467C93.3094 77.0467 97.4648 76.8387 96.0106 69.7586L88.1151 67.8094V63.5108C88.1151 63.5108 88.0113 54.5566 79.3886 52.6821C70.7659 50.808 50.8057 53.9622 50.5075 57.68Z" fill="white"/>
</svg>
