<?xml version="1.0" encoding="utf-8"?>
<!-- Generator: Adobe Illustrator 24.0.0, SVG Export Plug-In . SVG Version: 6.00 Build 0)  -->
<svg version="1.1" id="Calque_1" xmlns="http://www.w3.org/2000/svg" xmlns:xlink="http://www.w3.org/1999/xlink" x="0px" y="0px"
	 viewBox="0 0 494 423" style="enable-background:new 0 0 494 423;" xml:space="preserve">
<style type="text/css">
	.st0{clip-path:url(#SVGID_2_);}
	.st1{fill:#FFFFFF;}
</style>
<g>
	<defs>
		<rect id="SVGID_1_" y="-83" width="493.7" height="505.8"/>
	</defs>
	<clipPath id="SVGID_2_">
		<use xlink:href="#SVGID_1_"  style="overflow:visible;"/>
	</clipPath>
	<g class="st0">
		<path class="st1" d="M102.2,204.4l-33.9-21.2c-2.8-1.8-6.1-2.5-9.3-2c-10.4,1.5-33.5,6.2-43.4,18.7c-2.8,3.5,47.4,23.6,48.8,27.9
			l27,55.2c9.2,18.8,13.3,39.7,11.9,60.5c-1.4,20.9-8.3,41-20,58.4c-2.3,3.4-3.4,5.6-2.4,5.8c24.5,5.5,58.3-17.9,65.8-23.3
			c1-0.8,2.2-1.4,3.4-1.8c2.6-1,4.9-2.8,6.5-5.1s2.5-5.1,2.5-7.9v-36.5c0-1.9-0.4-3.7-1.1-5.4l-50.2-117.1
			C106.5,208,104.6,205.9,102.2,204.4z"/>
		<path class="st1" d="M101.5,287.5c-17.5-59-55.9-100.3-77.1-94c-2.7,0.9-5.1,2.4-7,4.5C3,213.2,2.6,260.1,18,311.8
			c17.5,59,48.8,101.8,70,95.5C109.2,401,119.1,346.5,101.5,287.5z M82.1,388.6c-18.6,5.5-45-28.4-59.1-75.7s-10.4-90.2,8.2-95.8
			s45,28.4,59.1,75.7C104.4,340.2,100.7,383.1,82.1,388.6z"/>
		<path class="st1" d="M335.8,39.3L37,35.4l-25.4-64V-67c0,0,146.4,3.9,208.2,29.8c3.2,1.4,6.4,3,9.3,4.8c6.5,4,20.5,12.6,36.3,22.6
			c-19.6-12.9-40-25.5-56.5-33.8C161.8-67.6,0.5-82.4,0.5-82.4v318.6c0.7-24.4,6.8-72.7,26.2-70.6C92,177.2,128.2,314.5,142.4,365
			s15.5,40.8,80.2,57c169.4,7.1,270.6-91.3,270.6-91.3V78.8C493.2,64.6,335.8,39.3,335.8,39.3z M415.1,214.7
			c-3.4,11.8-10,28.5-20.8,33.9c-17.2,8.6-143.5,14-202.2-8.7c0,0-28-57.1,9.5-70c0,0,182.4,10.9,197.4,17c2,0.8,3.9,1.7,5.8,2.8
			c4.3,2.4,7.6,6.2,9.5,10.8C416.2,205,416.5,210.1,415.1,214.7L415.1,214.7z"/>
	</g>
</g>
</svg>
