<svg width="300" height="295" viewBox="0 0 300 295" fill="none" xmlns="http://www.w3.org/2000/svg">
<path fill-rule="evenodd" clip-rule="evenodd" d="M119.822 47.785C119.822 24.6241 131.285 19.9699 149.778 19.9699C152.54 19.9699 154.771 22.2014 154.771 24.9629C154.771 27.7184 152.54 29.956 149.778 29.956C134.306 29.956 129.808 32.2922 129.808 47.7852C129.808 50.5406 127.576 52.7762 124.815 52.7762C122.053 52.7762 119.822 50.5406 119.822 47.7852M131.854 123.852C132.707 124.475 133.741 124.814 134.801 124.814H139.792V169.749C139.792 175.256 144.271 179.735 149.778 179.735C155.284 179.735 159.764 175.256 159.764 169.749V124.814H164.755C165.815 124.814 166.848 124.475 167.701 123.852C187.737 109.218 199.704 73.6793 199.704 47.7852C199.704 16.52 182.44 0 149.778 0C117.115 0 99.8516 16.52 99.8516 47.7852C99.8516 73.6809 111.818 109.218 131.854 123.852" fill="white"/>
<path fill-rule="evenodd" clip-rule="evenodd" d="M89.8648 164.756H74.8876C72.1301 164.756 69.8945 166.998 69.8945 169.749C69.8945 172.501 72.1301 174.742 74.8876 174.742H89.8648C92.6202 174.742 94.8578 172.501 94.8578 169.749C94.8578 166.998 92.6202 164.756 89.8648 164.756" fill="white"/>
<path fill-rule="evenodd" clip-rule="evenodd" d="M89.8648 244.642H74.8876C72.1301 244.642 69.8945 246.884 69.8945 249.635C69.8945 252.384 72.1301 254.626 74.8876 254.626H89.8648C92.6202 254.626 94.8578 252.384 94.8578 249.635C94.8578 246.884 92.6202 244.642 89.8648 244.642" fill="white"/>
<path fill-rule="evenodd" clip-rule="evenodd" d="M89.8648 204.696H74.8876C72.1301 204.696 69.8945 206.938 69.8945 209.689C69.8945 212.441 72.1301 214.682 74.8876 214.682H89.8648C92.6202 214.682 94.8578 212.441 94.8578 209.689C94.8578 206.938 92.6202 204.696 89.8648 204.696" fill="white"/>
<path fill-rule="evenodd" clip-rule="evenodd" d="M124.814 169.748V239.644C124.814 253.409 136.012 264.607 149.777 264.607C163.541 264.607 174.74 253.409 174.74 239.644V169.748C174.74 164.301 172.934 159.073 169.747 154.82V169.748C169.747 180.761 160.79 189.72 149.777 189.72C138.763 189.72 129.807 180.761 129.807 169.748V154.82C126.62 159.073 124.813 164.3 124.813 169.748" fill="white"/>
<path fill-rule="evenodd" clip-rule="evenodd" d="M89.8652 184.729H74.888C66.6301 184.729 59.9087 178.008 59.9087 169.749C59.9087 161.491 66.6296 154.772 74.888 154.772H89.8652C98.1231 154.772 104.845 161.491 104.845 169.749C104.845 178.007 98.1236 184.729 89.8652 184.729ZM89.8652 224.669H74.888C66.6301 224.669 59.9087 217.95 59.9087 209.692C59.9087 201.433 66.6296 194.712 74.888 194.712H89.8652C98.1231 194.712 104.845 201.433 104.845 209.692C104.845 217.95 98.1236 224.669 89.8652 224.669ZM89.8652 264.611H74.888C66.6301 264.611 59.9087 257.89 59.9087 249.634C59.9087 241.376 66.6296 234.655 74.888 234.655H89.8652C98.1231 234.655 104.845 241.376 104.845 249.634C104.845 257.89 98.1236 264.611 89.8652 264.611ZM209.507 42.9805C209.591 44.5647 209.692 46.1407 209.692 47.7845C209.692 75.7884 197.041 114.793 173.594 131.92C172.407 132.79 171.108 133.449 169.75 133.928V141.187C179.027 147.693 184.729 158.349 184.729 169.751V239.647C184.729 258.919 169.048 274.596 149.78 274.596C130.513 274.596 114.831 258.918 114.831 239.647V169.751C114.831 158.349 120.533 147.693 129.811 141.187V133.928C128.453 133.445 127.154 132.785 125.96 131.916C102.52 114.792 89.8687 75.7906 89.8687 47.7856C89.8687 46.1418 89.9694 44.5658 90.0536 42.9816C37.8346 54.8643 0 101.111 0 156.08V212.032C0 257.541 37.0267 294.569 82.5369 294.569H217.028C262.537 294.569 299.565 257.542 299.565 212.032V156.08C299.565 101.111 261.731 54.8643 209.511 42.9816" fill="white"/>
</svg>
