<svg width="219" height="300" viewBox="0 0 219 300" fill="none" xmlns="http://www.w3.org/2000/svg">
<path fill-rule="evenodd" clip-rule="evenodd" d="M0 0H218.424V300H0V0ZM187.551 32.0414H28.1564C23.8138 32.0414 23.8138 26.8978 28.1564 26.8978H187.551C191.893 26.8978 191.893 32.0414 187.551 32.0414ZM28.1564 124.326H77.0301C81.3727 124.326 81.3727 119.182 77.0301 119.182H28.1564C23.8138 119.182 23.8138 124.326 28.1564 124.326ZM77.0301 147.613H28.1564C23.8138 147.613 23.8138 142.47 28.1564 142.47H77.0301C81.3727 142.47 81.3727 147.613 77.0301 147.613ZM28.1564 170.901H77.0301C81.3727 170.901 81.3727 165.757 77.0301 165.757H28.1564C23.8138 165.757 23.8138 170.901 28.1564 170.901ZM77.0301 194.187H28.1564C23.8138 194.187 23.8138 189.043 28.1564 189.043H77.0301C81.3727 189.043 81.3727 194.187 77.0301 194.187ZM28.1564 243.212H77.0301C81.3727 243.212 81.3727 238.069 77.0301 238.069H28.1564C23.8138 238.069 23.8138 243.212 28.1564 243.212ZM77.0301 217.474H28.1564C23.8138 217.474 23.8138 212.33 28.1564 212.33H77.0301C81.3727 212.33 81.3727 217.474 77.0301 217.474ZM138.932 217.474H187.806C192.149 217.474 192.149 212.33 187.806 212.33H138.932C134.59 212.33 134.59 217.474 138.932 217.474ZM187.806 194.187H138.932C134.59 194.187 134.59 189.043 138.932 189.043H187.806C192.149 189.043 192.149 194.187 187.806 194.187ZM189.744 270.279C191.304 270.424 192.805 270.237 194.294 269.697C194.965 269.455 195.251 270.52 194.588 270.76C192.887 271.371 191.137 271.564 189.345 271.329C189.239 271.317 189.147 271.29 189.071 271.246C188.832 271.67 188.494 272.005 188.033 272.03C187.269 272.069 186.749 271.591 186.399 270.95C186.133 270.466 186.172 269.872 186.231 269.346C186.233 269.33 186.235 269.313 186.238 269.294L186.245 269.243L186.254 269.172C186.314 268.75 186.413 268.038 186.128 267.812C185.975 267.637 185.81 267.597 185.632 267.694C185.797 268.611 185.886 269.507 185.61 270.412C185.055 272.22 182.901 272.353 181.543 271.438C181.395 271.337 181.267 271.223 181.146 271.105C180.47 271.571 179.573 271.81 178.856 271.546C178.585 271.445 178.336 271.312 178.114 271.152C177.103 272.232 175.715 272.97 174.133 273.152C174.342 274.044 174.507 274.947 174.621 275.857H202.299C203.426 275.857 203.426 277.603 202.299 277.603H174.775C174.794 277.993 174.803 278.384 174.801 278.774C174.788 281.119 174.505 283.49 173.83 285.742C173.341 287.372 171.675 286.41 171.194 285.266C170.837 284.419 170.735 283.467 170.636 282.547C170.62 282.4 170.605 282.253 170.588 282.109C170.438 280.814 170.327 279.514 170.29 278.209C170.284 278.007 170.279 277.806 170.275 277.603H160.906C159.78 277.603 159.78 275.857 160.906 275.857H170.265C170.284 274.125 170.396 272.384 170.701 270.693C170.793 270.18 171.638 270.18 171.732 270.693L171.887 271.546C171.931 271.791 171.818 271.978 171.655 272.074C171.559 273.337 171.464 274.594 171.425 275.857H173.459C173.344 274.959 173.182 274.065 172.969 273.184H172.945C172.634 273.165 172.397 272.945 172.387 272.627C172.37 272.136 172.36 271.645 172.355 271.154L172.353 271.148C172.004 270.205 171.637 269.216 172.281 268.313L172.35 268.214L172.389 268.159L172.419 268.115C172.535 265.777 172.802 263.446 173.243 261.147C173.613 259.216 174.069 257.297 174.665 255.422C175.121 253.992 175.668 252.595 176.869 251.629C177.273 251.303 177.788 251.518 177.845 252.033C178.321 256.473 177.564 261.056 175.59 265.072C175.094 266.078 174.547 267.062 173.908 267.987C173.872 268.04 173.836 268.093 173.8 268.145L173.774 268.182L173.774 268.183L173.772 268.185C173.684 268.313 173.597 268.437 173.519 268.562C173.487 269.319 173.475 270.076 173.475 270.836C173.585 271.157 173.694 271.48 173.788 271.808C173.805 271.863 173.819 271.919 173.834 271.975L173.836 271.982L173.846 272.021L173.854 272.05C175.259 271.912 176.475 271.255 177.332 270.284C177.103 269.896 176.963 269.45 176.933 268.961C176.834 267.38 177.66 266.083 178.54 264.842C178.826 264.44 179.482 264.452 179.625 264.983C180.147 266.909 179.775 268.786 178.811 270.261C179.341 270.577 180.024 270.501 180.525 270.153C180.056 268.954 180.352 267.435 180.887 266.31C181.067 265.932 181.676 265.95 181.861 266.31C182.519 267.585 182.679 269.013 181.93 270.276C182.497 270.848 183.601 271.297 184.215 270.597C184.759 269.978 184.661 269.278 184.566 268.595C184.477 267.963 184.391 267.344 184.816 266.816C185.386 266.108 186.608 266.653 187.055 267.19C187.439 267.657 187.446 268.377 187.38 268.944C187.374 268.998 187.366 269.054 187.357 269.111C187.352 269.149 187.346 269.188 187.34 269.227C187.267 269.703 187.181 270.261 187.474 270.641C188.075 271.423 188.445 269.835 188.479 269.655C188.59 269.087 189.364 269.186 189.527 269.655L189.744 270.279ZM173.62 277.603H171.411C171.415 277.806 171.421 278.008 171.429 278.211L171.433 278.343C171.473 279.504 171.659 284.901 172.725 285.401C173.437 282.869 173.76 280.231 173.62 277.603ZM175.385 256.932C174.931 258.557 174.537 260.198 174.246 261.86V261.858C173.997 263.273 173.812 264.697 173.684 266.122C175.91 262.233 177.029 257.891 176.805 253.37C176.099 254.365 175.755 255.601 175.426 256.785L175.385 256.932ZM178.666 266.801C178.656 267.674 178.439 268.503 178.055 269.235C177.875 268.476 178.22 267.585 178.666 266.801Z" fill="white"/>
</svg>
