<svg width="335" height="217" viewBox="0 0 335 217" fill="none" xmlns="http://www.w3.org/2000/svg">
<path d="M52.3946 51.5371C44.0599 50.0155 27.3906 49.009 27.3906 57.155C27.3906 65.301 27.3906 107.053 27.3906 126.911" stroke="white" stroke-width="2.33682"/>
<path d="M58.7039 58.673C51.7714 57.3097 37.9062 56.4078 37.9062 63.7068C37.9062 71.0058 37.9062 108.417 37.9062 126.21" stroke="white" stroke-width="2.33682"/>
<path d="M219.474 25.3992H93.7199C90.7564 25.3992 88.3418 23.3428 88.3418 20.819V20.0245C88.3418 17.5007 90.7564 15.4443 93.7199 15.4443H219.501C222.464 15.4443 224.879 17.5007 224.879 20.0245V20.819C224.852 23.3428 222.464 25.3992 219.474 25.3992Z" fill="white"/>
<path d="M107.439 114.035H67.9271C59.0368 114.035 51.8203 107.889 51.8203 100.318V39.0229H66.1436V100.318C66.1436 101.136 66.9667 101.837 67.9271 101.837H107.439V114.035Z" fill="white"/>
<path d="M71.1369 35.6113H46.085V40.4953H71.1369V35.6113Z" fill="white"/>
<path d="M252.401 116H184.609C182.06 116 180 117.755 180 119.925V128.564C180 130.735 182.06 132.489 184.609 132.489H252.384C254.933 132.489 256.993 130.735 256.993 128.564V119.925C257.01 117.755 254.95 116 252.401 116Z" fill="#FAFAFA"/>
<path d="M215.604 52.6931H210.062V76.6222H215.604V52.6931Z" fill="white"/>
<path d="M227.238 52.6931H221.695V76.6222H227.238V52.6931Z" fill="white"/>
<path d="M250.543 77.9564V60.8977C249.308 59.6825 247.771 58.6777 246.043 58H245V81.2514C247.14 80.5737 249.061 79.4286 250.543 77.9564Z" fill="white"/>
<path d="M238.873 52.6931H233.33V76.6222H238.873V52.6931Z" fill="white"/>
<path d="M203.97 52.6931H198.428V76.6222H203.97V52.6931Z" fill="white"/>
<path d="M186.793 73.5147C188.33 74.7532 190.223 75.6879 192.336 76.202V52.6936H190.333C189.016 53.2077 187.836 53.9087 186.793 54.75V73.5147Z" fill="white"/>
<path d="M183.39 105.739C183.39 109.034 182.156 111.675 180.619 111.675C179.082 111.675 177.848 109.011 177.848 105.739C177.848 102.444 179.082 99.8037 180.619 99.8037C182.156 99.8037 183.39 102.468 183.39 105.739Z" fill="white"/>
<path d="M193.05 105.739C193.05 109.034 191.815 111.675 190.278 111.675C188.742 111.675 187.507 109.011 187.507 105.739C187.507 102.444 188.742 99.8037 190.278 99.8037C191.815 99.8037 193.05 102.468 193.05 105.739Z" fill="white"/>
<path d="M202.735 105.739C202.735 109.034 201.5 111.675 199.964 111.675C198.427 111.675 197.192 109.011 197.192 105.739C197.192 102.444 198.427 99.8037 199.964 99.8037C201.473 99.8037 202.735 102.468 202.735 105.739Z" fill="white"/>
<path d="M212.394 105.739C212.394 109.034 211.16 111.675 209.623 111.675C208.086 111.675 206.852 109.011 206.852 105.739C206.852 102.444 208.086 99.8037 209.623 99.8037C211.16 99.8037 212.394 102.468 212.394 105.739Z" fill="white"/>
<path d="M222.052 105.739C222.052 109.034 220.818 111.675 219.281 111.675C217.745 111.675 216.51 109.011 216.51 105.739C216.51 102.444 217.745 99.8037 219.281 99.8037C220.818 99.8037 222.052 102.468 222.052 105.739Z" fill="white"/>
<path d="M231.739 105.739C231.739 109.034 230.504 111.675 228.968 111.675C227.431 111.675 226.196 109.011 226.196 105.739C226.196 102.444 227.431 99.8037 228.968 99.8037C230.477 99.8037 231.739 102.468 231.739 105.739Z" fill="white"/>
<path d="M241.397 105.739C241.397 109.034 240.162 111.675 238.626 111.675C237.089 111.675 235.854 109.011 235.854 105.739C235.854 102.444 237.089 99.8037 238.626 99.8037C240.162 99.8037 241.397 102.468 241.397 105.739Z" fill="white"/>
<path d="M251.055 105.739C251.055 109.034 249.821 111.675 248.284 111.675C246.747 111.675 245.513 109.011 245.513 105.739C245.513 102.444 246.747 99.8037 248.284 99.8037C249.821 99.8037 251.055 102.468 251.055 105.739Z" fill="white"/>
<path d="M260.715 105.739C260.715 109.034 259.48 111.675 257.943 111.675C256.407 111.675 255.172 109.011 255.172 105.739C255.172 102.444 256.407 99.8037 257.943 99.8037C259.48 99.8037 260.715 102.468 260.715 105.739Z" fill="white"/>
<path d="M199.443 92.7932H186.684V96.3452H199.443V92.7932Z" fill="white"/>
<path d="M197.768 92.8398H188.823V82.6279C188.823 78.8423 192.445 75.7577 196.89 75.7577H258.244V59.7037H255.555V52.0857H259.122C263.568 52.0857 267.189 55.1703 267.189 58.9559V76.5288C267.189 80.3145 263.568 83.3991 259.122 83.3991H197.768V92.8398Z" fill="white"/>
<path d="M253.305 62.2042H186.272C182.677 62.2042 179.769 60.2179 179.769 57.7642V46.5007C179.769 44.0471 182.677 42.0608 186.272 42.0608H246.912C249.601 42.0608 252.016 43.1825 252.976 44.8883L259.397 56.1518C261.043 59.0728 257.888 62.2042 253.305 62.2042Z" fill="white"/>
<path d="M189.29 44.8416C189.29 45.379 188.769 45.823 188.138 45.823C187.507 45.823 186.985 45.379 186.985 44.8416C186.985 44.3041 187.507 43.8601 188.138 43.8601C188.769 43.8601 189.29 44.3041 189.29 44.8416Z" fill="#7E8082" fill-opacity="0.2"/>
<path d="M247.928 44.8416C247.928 45.379 247.407 45.823 246.775 45.823C246.144 45.823 245.623 45.379 245.623 44.8416C245.623 44.3041 246.144 43.8601 246.775 43.8601C247.407 43.8601 247.928 44.3041 247.928 44.8416Z" fill="#E5E6E6"/>
<path d="M189.29 59.3999C189.29 59.9374 188.769 60.3814 188.138 60.3814C187.507 60.3814 186.985 59.9374 186.985 59.3999C186.985 58.8625 187.507 58.4185 188.138 58.4185C188.769 58.4185 189.29 58.8625 189.29 59.3999Z" fill="#7E8082" fill-opacity="0.2"/>
<path d="M250.891 52.3896H179.988V54.0722H250.891V52.3896Z" fill="#BCBEC0" fill-opacity="0.2"/>
<path d="M256.159 59.3999C256.159 59.9374 255.638 60.3814 255.007 60.3814C254.376 60.3814 253.854 59.9374 253.854 59.3999C253.854 58.8625 254.376 58.4185 255.007 58.4185C255.638 58.4185 256.159 58.8625 256.159 59.3999Z" fill="#E5E6E6"/>
<path d="M256.983 96.2983H175.159V97.8173H256.983V96.2983Z" fill="white"/>
<path d="M197.878 92.8633H196.095V96.2283H197.878V92.8633Z" fill="white"/>
<path d="M217.69 92.7932H204.931V96.3452H217.69V92.7932Z" fill="white"/>
<path d="M216.153 92.8633H214.369V96.2283H216.153V92.8633Z" fill="white"/>
<path d="M215.961 92.723H207.016V90.316C207.016 86.8809 210.638 84.1001 215.083 84.1001H263.156V91.7181H215.961V92.723Z" fill="white"/>
<path d="M267.382 87.9091C267.382 90.0122 265.379 91.7181 262.909 91.7181C260.44 91.7181 258.437 90.0122 258.437 87.9091C258.437 85.806 260.44 84.1001 262.909 84.1001C265.379 84.1001 267.382 85.806 267.382 87.9091Z" fill="#FAFAFA"/>
<path d="M235.25 34.7466H80.5753C77.6119 34.7466 75.1973 32.6902 75.1973 30.1664V25.4928C75.1973 22.969 77.6119 20.9126 80.5753 20.9126H235.222C238.186 20.9126 240.6 22.969 240.6 25.4928V30.1664C240.628 32.7135 238.213 34.7466 235.25 34.7466Z" fill="#FAFAFA"/>
<path opacity="0.1" d="M75.1973 28.2502V29.7692C75.1973 32.5266 77.804 34.7466 81.0418 34.7466H234.756C237.994 34.7466 240.6 32.5266 240.6 29.7692V28.2502H75.1973Z" fill="white"/>
<path d="M203.148 35.0503H188.715V42.1542H203.148V35.0503Z" fill="#A7A9AC" fill-opacity="0.2"/>
<path d="M190.489 42.1851H193.233V35.0811H190.489V42.1851Z" fill="white"/>
<path d="M203.751 33.321H187.754V36.2654H203.751V33.321Z" fill="white"/>
<path d="M221.861 35.0503H207.428V42.1542H221.861V35.0503Z" fill="#A7A9AC" fill-opacity="0.2"/>
<path d="M209.222 42.1848H211.966V35.0809H209.222V42.1848Z" fill="white"/>
<path d="M222.491 33.321H206.494V36.2654H222.491V33.321Z" fill="white"/>
<path d="M229.79 35.0503H224.823V42.1542H229.79V35.0503Z" fill="#A7A9AC" fill-opacity="0.2"/>
<path d="M225.45 42.1851H226.383V35.0811H225.45V42.1851Z" fill="white"/>
<path d="M229.982 33.321H224.494V36.2654H229.982V33.321Z" fill="white"/>
<path d="M236.595 35.0503H231.629V42.1542H236.595V35.0503Z" fill="#A7A9AC" fill-opacity="0.2"/>
<path d="M232.251 42.1851H233.184V35.0811H232.251V42.1851Z" fill="white"/>
<path d="M236.788 33.321H231.3V36.2654H236.788V33.321Z" fill="white"/>
<path d="M180.812 36.0786H141.08V37.8079H180.812V36.0786Z" fill="white"/>
<path d="M180.812 41.3831H141.08V43.1123H180.812V41.3831Z" fill="white"/>
<path d="M104.979 41.3831H65.2471V43.1123H104.979V41.3831Z" fill="white"/>
<path d="M104.979 46.0566H65.2471V47.7859H104.979V46.0566Z" fill="white"/>
<path d="M180.812 46.6877H141.08V48.417H180.812V46.6877Z" fill="white"/>
<path opacity="0.5" d="M118.772 64.728H94.0491C89.4942 64.728 85.8174 61.5967 85.8174 57.7176V56.5024C85.8174 52.6233 89.4942 49.4919 94.0491 49.4919H118.772C123.327 49.4919 127.004 52.6233 127.004 56.5024V57.7176C127.004 61.5967 123.327 64.728 118.772 64.728Z" fill="#414042" fill-opacity="0.2"/>
<path d="M119.677 65.3589H94.9544C90.3995 65.3589 86.7227 62.2275 86.7227 58.3484V57.1333C86.7227 53.2541 90.3995 50.1228 94.9544 50.1228H119.677C124.232 50.1228 127.909 53.2541 127.909 57.1333V58.3484C127.909 62.2042 124.205 65.3589 119.677 65.3589Z" fill="white"/>
<path d="M115.698 85.0116C115.698 92.5362 108.537 98.6353 99.7011 98.6353C90.8657 98.6353 83.7041 92.5362 83.7041 85.0116C83.7041 77.487 90.8657 71.3879 99.7011 71.3879C108.537 71.3879 115.698 77.5104 115.698 85.0116Z" fill="white"/>
<path d="M133.389 75.8861C143.706 70.4159 146.863 58.8584 140.44 50.0719C134.016 41.2853 120.446 38.5969 110.128 44.0671C99.8111 49.5374 96.6543 61.0948 103.078 69.8814C109.501 78.668 123.072 81.3564 133.389 75.8861Z" fill="white"/>
<path d="M137.842 59.9374C137.842 67.3451 130.79 73.3274 122.119 73.3274C113.421 73.3274 106.396 67.3218 106.396 59.9374C106.396 52.5297 113.448 46.5474 122.119 46.5474C130.817 46.5241 137.842 52.5297 137.842 59.9374Z" fill="#E3DEDF" fill-opacity="0.2"/>
<path d="M124.15 137.52C118.937 137.076 113.805 136.211 109.168 134.155C101.924 130.93 79.6985 122.12 79.6985 122.12C73.5521 119.947 70.5613 116.745 70.2594 111.955C70.0948 109.431 71.7686 107.118 71.7686 107.118C72.5095 106.019 73.4698 105.085 74.6223 104.29C74.6223 104.29 80.9333 100.715 86.8327 97.4901C99.0431 90.8301 99.1803 90.8769 99.8663 90.8769C103.625 90.8769 106.507 88.2363 106.507 85.0348V84.8479L106.561 84.6609C109.333 75.337 113.476 61.3395 113.86 59.8205C113.943 56.9229 115.946 54.3991 119.458 53.5579C122.97 52.7166 166.104 53.5812 166.104 53.5812L166.132 53.6046C166.434 53.6046 166.708 53.5812 166.982 53.5812C181.69 53.5812 193.653 63.7698 193.653 76.2951C193.653 82.9317 190.8 89.171 185.449 94.0082C177.162 101.463 168.492 111.16 152.056 124.2C142.205 132.028 136.031 138.525 124.15 137.52ZM82.4699 119.293L110.869 131.491C114.903 133.454 119.485 134.482 124.123 134.482C133.534 134.482 142.397 130.182 147.199 123.289L147.556 122.798L147.94 122.681L181.855 91.3442L181.937 91.2741C187.095 87.5352 190.059 82.0671 190.059 76.2951C190.059 65.4523 179.687 56.6191 166.955 56.6191C166.406 56.6191 165.803 56.6425 165.117 56.6892L163.854 56.7827L163.772 56.5957L122.778 56.4088L122.613 56.3854C122.065 56.2919 121.543 56.2919 120.94 56.3854L120.775 56.4088C118.827 56.7827 117.427 58.2782 117.427 59.9841C117.427 60.2412 117.427 60.3814 110.074 85.2218C108.125 90.3628 106.836 91.2274 100.443 94.312C98.2199 95.457 85.5979 101.743 77.229 106.347L77.0644 106.51L76.9272 106.604C76.0491 107.165 75.3082 107.889 74.7869 108.707L74.6771 108.87C74.1009 109.828 73.7991 110.857 73.7991 111.932C73.7991 115.437 77.0095 118.358 81.0979 118.615L82.0583 118.685L82.4699 119.293Z" fill="#E3DEDF"/>
<path d="M108.289 85.0115C108.289 89.0542 104.448 92.3258 99.7008 92.3258C94.9538 92.3258 91.1123 89.0542 91.1123 85.0115C91.1123 80.9688 94.9538 77.6973 99.7008 77.6973C104.448 77.6973 108.289 80.9688 108.289 85.0115Z" fill="#E3DEDF"/>
<path d="M105.847 85.0116C105.847 87.9092 103.104 90.246 99.7011 90.246C96.2986 90.246 93.5547 87.9092 93.5547 85.0116C93.5547 82.1139 96.2986 79.7771 99.7011 79.7771C103.104 79.8005 105.847 82.1373 105.847 85.0116Z" fill="white"/>
<path d="M124.149 136.001C139.97 136.001 152.796 125.078 152.796 111.605C152.796 98.1309 139.97 87.2083 124.149 87.2083C108.328 87.2083 95.5029 98.1309 95.5029 111.605C95.5029 125.078 108.328 136.001 124.149 136.001Z" fill="white"/>
<path d="M124.149 129.037C135.454 129.037 144.619 121.232 144.619 111.605C144.619 101.977 135.454 94.1719 124.149 94.1719C112.844 94.1719 103.68 101.977 103.68 111.605C103.68 121.232 112.844 129.037 124.149 129.037Z" fill="#A7A9AC" fill-opacity="0.2"/>
<path opacity="0.1" d="M104.283 112.119C104.283 102.491 113.448 94.6861 124.753 94.6861C130.241 94.6861 135.235 96.5322 138.912 99.5234C135.18 96.2051 129.939 94.1487 124.122 94.1487C112.817 94.1487 103.652 101.954 103.652 111.581C103.652 116.535 106.067 120.999 109.963 124.177C106.451 121.045 104.283 116.816 104.283 112.119Z" fill="#231F20"/>
<path opacity="0.1" d="M132.792 111.909C132.792 115.647 129.253 118.662 124.863 118.662C120.472 118.662 116.933 115.647 116.933 111.909C116.933 108.17 120.472 105.155 124.863 105.155C129.225 105.132 132.792 108.17 132.792 111.909Z" fill="#231F20"/>
<path d="M132.08 111.605C132.08 115.344 128.512 118.358 124.15 118.358C119.759 118.358 116.22 115.32 116.22 111.605C116.22 107.866 119.759 104.851 124.15 104.851C128.512 104.828 132.08 107.866 132.08 111.605Z" fill="white"/>
<path d="M130.049 111.605C130.049 114.385 127.415 116.629 124.149 116.629C120.884 116.629 118.25 114.385 118.25 111.605C118.25 108.824 120.884 106.581 124.149 106.581C127.387 106.557 130.049 108.824 130.049 111.605Z" fill="#E3DEDF" fill-opacity="0.2"/>
<path d="M120.253 96.9529L121.186 103.473H126.893L127.799 96.9529H120.253Z" fill="white"/>
<path d="M109.25 103.589L115.287 107.632L119.32 104.197L114.573 99.0325L109.25 103.589Z" fill="white"/>
<path d="M106.945 114.9L114.601 114.105V109.245L106.945 108.473V114.9Z" fill="white"/>
<path d="M114.737 124.27L119.484 119.129L115.451 115.694L109.387 119.737L114.737 124.27Z" fill="white"/>
<path d="M128.018 126.233L127.085 119.714H121.378L120.473 126.233H128.018Z" fill="white"/>
<path d="M139.021 119.597L132.985 115.554L128.951 119.012L133.698 124.153L139.021 119.597Z" fill="white"/>
<path d="M141.326 108.287L133.671 109.081V113.942L141.326 114.713V108.287Z" fill="white"/>
<path d="M133.534 98.9158L128.787 104.057L132.848 107.492L138.885 103.449L133.534 98.9158Z" fill="white"/>
<path d="M81.7016 120.158C87.0358 120.158 91.3601 116.475 91.3601 111.932C91.3601 107.389 87.0358 103.706 81.7016 103.706C76.3673 103.706 72.043 107.389 72.043 111.932C72.043 116.475 76.3673 120.158 81.7016 120.158Z" fill="white"/>
<path d="M88.6164 111.932C88.6164 115.18 85.5158 117.821 81.7018 117.821C77.8877 117.821 74.7871 115.18 74.7871 111.932C74.7871 108.684 77.8877 106.043 81.7018 106.043C85.5158 106.043 88.6164 108.684 88.6164 111.932Z" fill="#A7A9AC" fill-opacity="0.2"/>
<path opacity="0.1" d="M75.0066 112.119C75.0066 108.871 78.1072 106.23 81.9213 106.23C83.7872 106.23 85.4609 106.861 86.6957 107.866C85.4335 106.744 83.6774 106.043 81.7018 106.043C77.8877 106.043 74.7871 108.684 74.7871 111.932C74.7871 113.591 75.6103 115.11 76.9274 116.185C75.72 115.133 75.0066 113.708 75.0066 112.119Z" fill="#231F20" fill-opacity="0.2"/>
<path opacity="0.1" d="M84.6105 112.049C84.6105 113.311 83.4032 114.339 81.9215 114.339C80.4397 114.339 79.2324 113.311 79.2324 112.049C79.2324 110.787 80.4397 109.759 81.9215 109.759C83.4306 109.759 84.6105 110.787 84.6105 112.049Z" fill="#231F20"/>
<path d="M81.7017 114.222C83.1869 114.222 84.3908 113.196 84.3908 111.932C84.3908 110.667 83.1869 109.642 81.7017 109.642C80.2166 109.642 79.0127 110.667 79.0127 111.932C79.0127 113.196 80.2166 114.222 81.7017 114.222Z" fill="white"/>
<path d="M83.677 111.932C83.677 112.866 82.7715 113.638 81.674 113.638C80.5764 113.638 79.6709 112.866 79.6709 111.932C79.6709 110.997 80.5764 110.226 81.674 110.226C82.799 110.249 83.677 110.997 83.677 111.932Z" fill="#E3DEDF"/>
<path d="M80.3848 107.001L80.6866 109.198H82.6348L82.9366 107.001H80.3848Z" fill="white"/>
<path d="M76.6807 109.245L78.7112 110.6L80.0831 109.432L78.4642 107.702L76.6807 109.245Z" fill="white"/>
<path d="M75.8848 113.054L78.464 112.797V111.137L75.8848 110.88V113.054Z" fill="white"/>
<path d="M78.519 116.208L80.1379 114.479L78.7659 113.311L76.708 114.689L78.519 116.208Z" fill="white"/>
<path d="M83.0186 116.886L82.6894 114.689H80.7686L80.4668 116.886H83.0186Z" fill="white"/>
<path d="M86.7228 114.642L84.6923 113.287L83.3203 114.432L84.9118 116.185L86.7228 114.642Z" fill="white"/>
<path d="M87.4914 110.833L84.9121 111.091V112.726L87.4914 112.983V110.833Z" fill="white"/>
<path d="M84.8845 107.655L83.2656 109.408L84.6376 110.553L86.6681 109.198L84.8845 107.655Z" fill="white"/>
<path d="M191.488 80.0386C193.906 68.5156 184.897 57.5051 171.367 55.4461C157.836 53.3871 144.908 61.0592 142.49 72.5822C140.072 84.1053 149.081 95.1157 162.611 97.1747C176.142 99.2337 189.07 91.5616 191.488 80.0386Z" fill="white"/>
<path d="M184.763 76.2952C184.763 84.661 176.806 91.4378 166.983 91.4378C157.16 91.4378 149.202 84.661 149.202 76.2952C149.202 67.9294 157.16 61.1526 166.983 61.1526C176.806 61.1526 184.763 67.9294 184.763 76.2952Z" fill="#FBFBFB"/>
<path opacity="0.1" d="M149.751 76.7625C149.751 68.3967 157.708 61.62 167.532 61.62C172.306 61.62 176.641 63.2324 179.824 65.8262C176.586 62.9519 172.032 61.1526 166.983 61.1526C157.16 61.1526 149.202 67.9294 149.202 76.2952C149.202 80.5949 151.315 84.474 154.69 87.2315C151.644 84.5208 149.751 80.8286 149.751 76.7625Z" fill="#231F20"/>
<path opacity="0.1" d="M174.501 76.5522C174.501 79.8004 171.428 82.4176 167.614 82.4176C163.8 82.4176 160.727 79.8004 160.727 76.5522C160.727 73.304 163.8 70.6868 167.614 70.6868C171.428 70.6868 174.501 73.3274 174.501 76.5522Z" fill="#231F20"/>
<path d="M173.898 76.2953C173.898 79.5435 170.824 82.1608 167.01 82.1608C163.196 82.1608 160.123 79.5435 160.123 76.2953C160.123 73.0472 163.196 70.4299 167.01 70.4299C170.797 70.4299 173.898 73.0472 173.898 76.2953Z" fill="white"/>
<path d="M172.114 76.2951C172.114 78.7021 169.809 80.665 166.983 80.665C164.156 80.665 161.852 78.7021 161.852 76.2951C161.852 73.8882 164.156 71.9253 166.983 71.9253C169.809 71.9253 172.114 73.8882 172.114 76.2951Z" fill="#E3DEDF"/>
<path d="M163.635 63.583L164.431 69.2381H169.397L170.193 63.583H163.635Z" fill="#E3DEDF"/>
<path d="M154.059 69.3318L159.299 72.8604L162.812 69.8693L158.696 65.3826L154.059 69.3318Z" fill="#E3DEDF"/>
<path d="M152.056 79.1695L158.696 78.4918V74.2621L152.056 73.5845V79.1695Z" fill="#E3DEDF"/>
<path d="M158.806 87.3252L162.949 82.8385L159.437 79.8474L154.169 83.376L158.806 87.3252Z" fill="#E3DEDF"/>
<path d="M170.358 89.0076L169.562 83.3525H164.596L163.8 89.0076H170.358Z" fill="#E3DEDF"/>
<path d="M179.934 83.2591L174.666 79.7539L171.153 82.7217L175.297 87.2084L179.934 83.2591Z" fill="#E3DEDF"/>
<path d="M181.91 73.4209L175.297 74.0986V78.3282L181.91 79.0059V73.4209Z" fill="#E3DEDF"/>
<path d="M175.16 65.2888L171.044 69.7521L174.556 72.7433L179.797 69.238L175.16 65.2888Z" fill="#E3DEDF"/>
<path opacity="0.1" d="M106.507 60.4048C106.507 52.9971 113.558 47.0149 122.229 47.0149C126.455 47.0149 130.269 48.4403 133.095 50.7304C130.241 48.1833 126.208 46.5942 121.735 46.5942C113.037 46.5942 106.013 52.5999 106.013 59.9842C106.013 63.7932 107.879 67.2283 110.869 69.6586C108.18 67.2517 106.507 63.9802 106.507 60.4048Z" fill="#231F20"/>
<path d="M128.567 59.9843C128.567 63.1857 125.521 65.7796 121.762 65.7796C118.003 65.7796 114.957 63.1857 114.957 59.9843C114.957 56.7828 118.003 54.189 121.762 54.189C125.521 54.189 128.567 56.7828 128.567 59.9843Z" fill="white"/>
<path d="M160 101H154V106H160V101Z" fill="white"/>
<path d="M66.8561 100.248C60.9292 100.248 56.1273 96.1352 56.1273 91.111C56.1273 90.854 56.1273 90.5969 56.1548 90.3399L54.8926 66.6913C55.4139 58.0217 63.8926 51.0813 74.2097 51.0813C84.8836 51.0813 93.5544 58.4656 93.5544 67.5559C93.5544 69.6356 93.0879 71.7154 92.1824 73.6316L76.5146 95.1303C76.1579 95.7613 75.6915 96.3689 75.1701 96.9063L73.1122 98.5421C71.3012 99.6404 69.1061 100.248 66.8561 100.248ZM58.3499 69.7291L59.7219 90.3866V90.5034C59.6944 90.7138 59.6944 90.9007 59.6944 91.111C59.6944 94.476 62.9048 97.2101 66.8561 97.2101C68.6122 97.2101 70.3134 96.6493 71.6305 95.6444L72.1518 95.2472L72.3439 95.0135C72.728 94.6162 73.0573 94.1722 73.3317 93.7049L73.4415 93.5413L87.0787 75.4777L88.0391 73.9588C89.2738 71.9958 89.9598 69.7992 89.9598 67.5559C89.9598 60.1482 82.8805 54.1425 74.2097 54.1425C65.539 54.1425 58.4597 60.1715 58.4597 67.5559C58.4597 67.7662 58.4597 67.9531 58.4871 68.1401L58.5694 69.7291H58.3499Z" fill="#E3DEDF"/>
<path d="M91.743 67.5321C91.743 75.7811 83.8954 82.4644 74.2094 82.4644C64.5234 82.4644 56.6758 75.7811 56.6758 67.5321C56.6758 59.2832 64.5234 52.5999 74.2094 52.5999C83.868 52.5999 91.743 59.2832 91.743 67.5321Z" fill="white"/>
<path d="M78.9632 77.4144C85.3679 75.1696 88.4232 68.9282 85.7873 63.4737C83.1515 58.0192 75.8227 55.4173 69.418 57.662C63.0133 59.9068 59.9581 66.1483 62.5939 71.6027C65.2297 77.0572 72.5585 79.6592 78.9632 77.4144Z" fill="#A7A9AC" fill-opacity="0.2"/>
<path opacity="0.1" d="M62.0267 67.8595C62.0267 61.9707 67.6518 57.1802 74.5664 57.1802C77.9414 57.1802 80.9872 58.3019 83.2372 60.148C80.9597 58.1149 77.7494 56.853 74.1823 56.853C67.2676 56.853 61.6426 61.6435 61.6426 67.5323C61.6426 70.5702 63.1243 73.3042 65.5115 75.2438C63.3712 73.3276 62.0267 70.7337 62.0267 67.8595Z" fill="#231F20"/>
<path opacity="0.1" d="M79.4771 67.7192C79.4771 70.0093 77.3094 71.8554 74.6204 71.8554C71.9314 71.8554 69.7637 70.0093 69.7637 67.7192C69.7637 65.4291 71.9314 63.583 74.6204 63.583C77.3094 63.583 79.4771 65.4291 79.4771 67.7192Z" fill="#231F20"/>
<path d="M74.1819 71.6683C76.8642 71.6683 79.0387 69.8165 79.0387 67.5322C79.0387 65.2478 76.8642 63.396 74.1819 63.396C71.4996 63.396 69.3252 65.2478 69.3252 67.5322C69.3252 69.8165 71.4996 71.6683 74.1819 71.6683Z" fill="white"/>
<path d="M77.8035 67.5321C77.8035 69.238 76.1846 70.6167 74.1815 70.6167C72.1785 70.6167 70.5596 69.238 70.5596 67.5321C70.5596 65.8262 72.1785 64.4475 74.1815 64.4475C76.1846 64.4475 77.8035 65.8262 77.8035 67.5321Z" fill="#E3DEDF"/>
<path d="M71.8223 58.5588L72.371 62.5548H75.8833L76.432 58.5588H71.8223Z" fill="white"/>
<path d="M65.0713 62.6248L68.7756 65.1018L71.2451 62.9987L68.3365 59.844L65.0713 62.6248Z" fill="white"/>
<path d="M63.6729 69.5652L68.3375 69.0745V66.1067L63.6729 65.616V69.5652Z" fill="white"/>
<path d="M68.4196 75.3139L71.3281 72.1592L68.8586 70.0327L65.1543 72.5097L68.4196 75.3139Z" fill="white"/>
<path d="M76.5689 76.5057L75.9926 72.5098H72.5079L71.9316 76.5057H76.5689Z" fill="white"/>
<path d="M83.3193 72.4394L79.615 69.9624L77.1455 72.0655L80.0541 75.2202L83.3193 72.4394Z" fill="white"/>
<path d="M84.7185 65.4993L80.0264 65.99V68.9811L84.7185 69.4485V65.4993Z" fill="white"/>
<path d="M79.9437 59.7739L77.0352 62.9286L79.5047 65.0318L83.209 62.5547L79.9437 59.7739Z" fill="white"/>
<path d="M75.8015 91.0878C75.8015 95.294 71.7953 98.7058 66.8563 98.7058C61.9173 98.7058 57.9111 95.294 57.9111 91.0878C57.9111 86.8815 61.9173 83.4697 66.8563 83.4697C71.7953 83.4697 75.8015 86.8815 75.8015 91.0878Z" fill="white"/>
<path d="M139.516 80.291H118.937V81.9735H139.516V80.291Z" fill="white"/>
<path d="M139.516 83.1887H118.937V84.8712H139.516V83.1887Z" fill="white"/>
<path d="M71.1372 35.6113H65.9512V40.4953H71.1372V35.6113Z" fill="white"/>
<path d="M188.071 181.312C183.771 173.648 186.482 163.926 194.147 159.603C194.544 159.393 194.941 159.183 195.362 158.996L230.321 137.146C243.874 130.416 260.536 135.417 268.06 148.76C275.818 162.548 270.935 180.074 257.147 187.832C253.993 189.608 250.511 190.776 246.935 191.267L202.91 189.398C201.695 189.468 200.456 189.398 199.241 189.187L195.245 187.926C192.207 186.547 189.707 184.233 188.071 181.312ZM228.217 144.25L197.862 163.693L197.675 163.786C197.348 163.926 197.021 164.09 196.74 164.254C191.646 167.128 189.824 173.624 192.698 178.718C193.983 181.009 196.063 182.714 198.54 183.556L199.545 183.883L200.035 183.93C200.923 184.093 201.835 184.14 202.723 184.093H203.05L240.416 186.266L243.43 186.22C247.309 186.173 251.142 185.121 254.53 183.205C265.747 176.872 269.743 162.594 263.433 151.378C257.101 140.161 242.823 136.165 231.606 142.474C231.302 142.638 230.998 142.825 230.718 143.012L228.358 144.484L228.217 144.25Z" fill="#E3DEDF"/>
<path d="M255.815 185.518C243.29 192.575 227.423 188.136 220.366 175.61C213.308 163.085 217.748 147.218 230.274 140.161C242.799 133.103 258.666 137.543 265.723 150.069C272.781 162.594 268.341 178.461 255.815 185.518Z" fill="white"/>
<path d="M252.17 179.046C243.22 184.093 231.886 180.915 226.839 171.965C221.791 163.015 224.969 151.681 233.919 146.634C242.869 141.586 254.203 144.764 259.25 153.714C264.298 162.664 261.12 174.021 252.17 179.046Z" fill="#F1F2F2"/>
<path opacity="0.1" d="M233.709 147.428C242.659 142.381 253.992 145.559 259.04 154.509C261.493 158.856 261.984 163.763 260.839 168.25C262.265 163.576 261.844 158.341 259.25 153.738C254.203 144.764 242.869 141.61 233.919 146.634C229.315 149.228 226.254 153.481 225.039 158.225C226.371 153.808 229.362 149.859 233.709 147.428Z" fill="#231F20"/>
<path opacity="0.1" d="M246.632 169.862C243.173 171.825 238.756 170.586 236.817 167.128C234.854 163.646 236.093 159.253 239.551 157.313C243.01 155.35 247.426 156.589 249.366 160.047C251.305 163.506 250.09 167.899 246.632 169.862Z" fill="#231F20"/>
<path d="M246.585 169.137C243.126 171.1 238.71 169.862 236.77 166.403C234.807 162.945 236.046 158.528 239.504 156.589C242.963 154.626 247.379 155.864 249.319 159.323C251.282 162.781 250.067 167.174 246.585 169.137Z" fill="white"/>
<path d="M245.673 167.525C243.079 168.974 239.808 168.063 238.359 165.492C236.91 162.898 237.821 159.627 240.392 158.178C242.986 156.729 246.257 157.64 247.706 160.211C249.178 162.805 248.267 166.076 245.673 167.525Z" fill="white"/>
<path d="M254.928 152.102L249.296 156.238L251.843 160.772L258.293 158.084L254.928 152.102Z" fill="white"/>
<path d="M243.85 146.867L242.799 153.761L247.8 155.163L250.464 148.714L243.85 146.867Z" fill="white"/>
<path d="M232.307 150.98L236.443 156.612L240.976 154.065L238.289 147.615L232.307 150.98Z" fill="white"/>
<path d="M227.072 162.033L233.966 163.108L235.368 158.108L228.918 155.444L227.072 162.033Z" fill="white"/>
<path d="M231.162 173.577L236.817 169.441L234.27 164.931L227.797 167.595L231.162 173.577Z" fill="white"/>
<path d="M242.238 178.835L243.313 171.918L238.312 170.54L235.625 176.989L242.238 178.835Z" fill="white"/>
<path d="M253.782 174.722L249.646 169.091L245.136 171.638L247.8 178.087L253.782 174.722Z" fill="white"/>
<path d="M259.04 163.646L252.123 162.594L250.721 167.595L257.194 170.259L259.04 163.646Z" fill="white"/>
<path d="M208.471 185.074C202.092 188.673 193.983 186.406 190.384 180.027C186.786 173.647 189.052 165.539 195.432 161.94C201.811 158.341 209.92 160.608 213.519 166.987C217.117 173.367 214.851 181.476 208.471 185.074Z" fill="white"/>
<path fill-rule="evenodd" clip-rule="evenodd" d="M5.76341 1.68774H166.521H329.543H330.107L330.127 2.2513C330.299 7.11037 330.535 13.2623 330.802 20.2196L330.802 20.2296C331.843 47.308 333.351 86.5787 333.351 109.3C333.351 140.358 328.368 157.496 323.329 166.891C320.809 171.592 318.274 174.356 316.344 175.95C315.38 176.747 314.57 177.25 313.991 177.557C313.702 177.71 313.471 177.814 313.308 177.881C313.257 177.902 313.213 177.919 313.176 177.933C313.155 177.941 313.137 177.948 313.121 177.953L313.057 177.994C313.009 178.025 312.948 178.064 312.873 178.111C312.818 178.146 312.755 178.185 312.684 178.229C312.354 178.434 311.857 178.734 311.189 179.118C309.853 179.887 307.832 180.994 305.078 182.352C299.571 185.068 291.138 188.788 279.411 192.821C255.955 200.885 219.324 210.195 166.576 215.211L166.521 214.629L166.465 215.211C114.448 210.195 78.3253 200.885 55.1945 192.82C43.6292 188.787 35.3125 185.067 29.8818 182.351C27.1665 180.993 25.1727 179.886 23.8552 179.116C23.1964 178.732 22.7067 178.432 22.3804 178.227C22.2931 178.172 22.2174 178.124 22.1534 178.083C22.0978 178.047 22.051 178.017 22.0128 177.992L21.9511 177.952C21.9059 177.936 21.8442 177.912 21.7672 177.88C21.6062 177.813 21.3781 177.709 21.0925 177.555C20.5212 177.248 19.7213 176.745 18.7702 175.948C16.867 174.352 14.3674 171.589 11.8819 166.888C6.91414 157.494 2 140.358 2 109.3C2 86.5792 3.48747 47.3095 4.51315 20.2311L4.51317 20.2306C4.77687 13.269 5.01004 7.11317 5.17957 2.25159L5.19923 1.68774H5.76341ZM166.521 214.043C219.154 209.034 255.676 199.745 279.031 191.716C290.712 187.699 299.1 183.998 304.561 181.304C307.292 179.957 309.292 178.862 310.606 178.106C311.263 177.727 311.749 177.434 312.069 177.235C312.229 177.136 312.348 177.061 312.426 177.011C312.465 176.986 312.494 176.967 312.513 176.955L312.534 176.941L312.538 176.938L312.539 176.938L312.61 176.891L312.688 176.867L312.688 176.867L312.689 176.866L312.691 176.866L312.693 176.865L312.709 176.86L312.723 176.855C312.752 176.844 312.799 176.827 312.864 176.8C312.992 176.747 313.189 176.659 313.444 176.524C313.954 176.254 314.698 175.795 315.6 175.05C317.403 173.56 319.844 170.918 322.3 166.339C327.214 157.175 332.183 140.25 332.183 109.3C332.183 86.6054 330.676 47.3759 329.636 20.2964L329.636 20.2923L329.634 20.263C329.378 13.5738 329.149 7.62721 328.979 2.85615H166.521H6.32753C6.15965 7.63251 5.9341 13.587 5.68039 20.2853L5.68015 20.2917L5.68007 20.2938C4.65438 47.3733 3.16841 86.6046 3.16841 109.3C3.16841 140.251 8.06837 157.177 12.9147 166.342C15.3363 170.922 17.7437 173.563 19.5208 175.052C20.4098 175.797 21.1434 176.256 21.6455 176.526C21.8966 176.661 22.0902 176.749 22.2168 176.801C22.28 176.828 22.3266 176.845 22.3552 176.856C22.3695 176.861 22.3793 176.864 22.3846 176.866L22.3862 176.867L22.3875 176.867L22.3884 176.867L22.3889 176.867L22.4678 176.892L22.5387 176.94L22.5396 176.94L22.5442 176.943L22.5645 176.957C22.583 176.969 22.6114 176.988 22.6499 177.013C22.6775 177.031 22.7102 177.052 22.7481 177.076C22.816 177.12 22.9004 177.174 23.0017 177.237C23.3174 177.436 23.7964 177.729 24.4443 178.107C25.7401 178.864 27.7117 179.959 30.4045 181.306C35.79 183.999 44.0605 187.7 55.5791 191.717C78.6078 199.746 114.621 209.034 166.521 214.043Z" fill="white"/>
<path d="M330.107 1.68774L331.274 1.64645L331.235 0.519334H330.107V1.68774ZM330.127 2.2513L331.294 2.21001V2.21001L330.127 2.2513ZM330.802 20.2196L331.97 20.1771L331.97 20.1747L330.802 20.2196ZM330.802 20.2296L329.635 20.2722L329.635 20.2745L330.802 20.2296ZM323.329 166.891L322.3 166.339L323.329 166.891ZM316.344 175.95L315.6 175.05L316.344 175.95ZM313.991 177.557L314.538 178.589L314.538 178.589L313.991 177.557ZM313.308 177.881L312.864 176.8L312.864 176.8L313.308 177.881ZM313.176 177.933L312.764 176.84L312.763 176.84L313.176 177.933ZM313.121 177.953L312.725 176.854L312.6 176.899L312.488 176.971L313.121 177.953ZM313.057 177.994L313.688 178.978L313.69 178.977L313.057 177.994ZM312.873 178.111L312.252 177.122L312.252 177.122L312.873 178.111ZM312.684 178.229L312.069 177.235L312.069 177.235L312.684 178.229ZM311.189 179.118L310.606 178.106L310.606 178.106L311.189 179.118ZM279.411 192.821L279.79 193.926L279.411 192.821ZM166.576 215.211L165.413 215.322L165.524 216.485L166.687 216.374L166.576 215.211ZM166.521 214.629L167.684 214.519L165.358 214.517L166.521 214.629ZM166.465 215.211L166.353 216.374L167.516 216.486L167.628 215.323L166.465 215.211ZM55.1945 192.82L54.8098 193.923H54.8098L55.1945 192.82ZM29.8818 182.351L29.3592 183.396L29.8818 182.351ZM22.3804 178.227L23.0017 177.237H23.0017L22.3804 178.227ZM22.1534 178.083L22.7831 177.099L22.7829 177.099L22.1534 178.083ZM22.0128 177.992L21.3736 178.97L21.3757 178.972L22.0128 177.992ZM21.9511 177.952L22.5903 176.974L22.4777 176.9L22.3514 176.854L21.9511 177.952ZM21.7672 177.88L22.2169 176.801L22.2168 176.801L21.7672 177.88ZM21.0925 177.555L21.6455 176.526L21.6455 176.526L21.0925 177.555ZM18.7702 175.948L18.0197 176.843L18.0197 176.843L18.7702 175.948ZM11.8819 166.888L10.849 167.435L11.8819 166.888ZM4.51315 20.2311L3.34557 20.1869L4.51315 20.2311ZM4.51317 20.2306L3.3456 20.1863V20.1863L4.51317 20.2306ZM5.17957 2.25159L4.01187 2.21086L4.01187 2.21087L5.17957 2.25159ZM5.19923 1.68774V0.519334H4.07087L4.03153 1.64701L5.19923 1.68774ZM166.521 214.043L166.409 215.206L166.521 215.216L166.632 215.206L166.521 214.043ZM279.031 191.716L279.411 192.821L279.031 191.716ZM304.561 181.304L305.078 182.352L304.561 181.304ZM310.606 178.106L310.023 177.093L310.023 177.093L310.606 178.106ZM312.069 177.235L312.684 178.229L312.684 178.229L312.069 177.235ZM312.426 177.011L313.057 177.995L313.057 177.994L312.426 177.011ZM312.513 176.955L313.151 177.934L313.153 177.932L312.513 176.955ZM312.534 176.941L313.174 177.919L313.178 177.916L312.534 176.941ZM312.538 176.938L313.183 177.913L313.186 177.91L312.538 176.938ZM312.539 176.938L311.893 175.964L311.891 175.966L312.539 176.938ZM312.61 176.891L312.267 175.774L312.105 175.824L311.963 175.917L312.61 176.891ZM312.688 176.867L313.031 177.984L313.038 177.981L313.046 177.979L312.688 176.867ZM312.688 176.867L312.349 175.749L312.34 175.751L312.331 175.754L312.688 176.867ZM312.689 176.866L313.029 177.984L313.032 177.983L312.689 176.866ZM312.691 176.866L313.033 177.983L313.056 177.976L313.078 177.968L312.691 176.866ZM312.693 176.865L312.315 175.759L312.305 175.763L312.693 176.865ZM312.709 176.86L313.087 177.965L313.098 177.961L312.709 176.86ZM312.723 176.855L313.112 177.957L313.116 177.955L312.723 176.855ZM312.864 176.8L312.419 175.72L312.419 175.72L312.864 176.8ZM313.444 176.524L312.897 175.492L313.444 176.524ZM315.6 175.05L314.856 174.149V174.149L315.6 175.05ZM322.3 166.339L321.27 165.787L322.3 166.339ZM329.636 20.2964L330.803 20.2515L330.803 20.243L329.636 20.2964ZM329.636 20.2923L328.468 20.3361L328.468 20.3457L329.636 20.2923ZM329.634 20.263L330.802 20.2193L330.802 20.2182L329.634 20.263ZM328.979 2.85615L330.147 2.81453L330.107 1.68774L328.979 1.68774V2.85615ZM6.32753 2.85615V1.68774H5.19947L5.15984 2.81511L6.32753 2.85615ZM5.68039 20.2853L4.51282 20.2411L4.51282 20.2411L5.68039 20.2853ZM5.68015 20.2917L4.51257 20.2475L4.51257 20.2476L5.68015 20.2917ZM5.68007 20.2938L6.84764 20.338L6.84765 20.3379L5.68007 20.2938ZM12.9147 166.342L11.8819 166.888H11.8819L12.9147 166.342ZM19.5208 175.052L20.2713 174.157H20.2713L19.5208 175.052ZM21.6455 176.526L22.1984 175.497L21.6455 176.526ZM22.2168 176.801L21.7671 177.88L21.7674 177.88L22.2168 176.801ZM22.3846 176.866L22.7789 175.766L22.768 175.762L22.757 175.759L22.3846 176.866ZM22.3862 176.867L21.9919 177.966L22.0118 177.974L22.0319 177.98L22.3862 176.867ZM22.3875 176.867L22.7457 175.755L22.7418 175.754L22.3875 176.867ZM22.3884 176.867L22.0303 177.979L22.0464 177.985L22.0627 177.989L22.3884 176.867ZM22.3889 176.867L22.7364 175.752L22.7256 175.749L22.7147 175.745L22.3889 176.867ZM22.4678 176.892L23.1204 175.923L22.9786 175.827L22.8153 175.777L22.4678 176.892ZM22.5387 176.94L21.8861 177.909L21.8868 177.909L22.5387 176.94ZM22.5396 176.94L21.8876 177.91L21.8893 177.911L22.5396 176.94ZM22.5442 176.943L21.8938 177.914L21.8974 177.917L22.5442 176.943ZM22.5645 176.957L21.9177 177.93L21.9201 177.932L22.5645 176.957ZM22.6499 177.013L23.2868 176.033L23.2868 176.033L22.6499 177.013ZM22.7481 177.076L22.1167 178.059L22.1167 178.06L22.7481 177.076ZM23.0017 177.237L22.3803 178.227L22.3804 178.227L23.0017 177.237ZM24.4443 178.107L23.8552 179.116L23.8552 179.116L24.4443 178.107ZM30.4045 181.306L30.9271 180.261L30.4045 181.306ZM55.5791 191.717L55.9638 190.613L55.5791 191.717ZM166.521 0.519334H5.76341V2.85615H166.521V0.519334ZM166.521 2.85615H329.543V0.519334H166.521V2.85615ZM329.543 2.85615H330.107V0.519334H329.543V2.85615ZM328.939 1.72903L328.959 2.29259L331.294 2.21001L331.274 1.64645L328.939 1.72903ZM328.959 2.29259C329.131 7.15384 329.367 13.3078 329.635 20.2644L331.97 20.1747C331.702 13.2168 331.466 7.0669 331.294 2.21001L328.959 2.29259ZM329.634 20.2621L329.635 20.2722L331.97 20.1871L331.97 20.1771L329.634 20.2621ZM329.635 20.2745C330.676 47.3635 332.183 86.6067 332.183 109.3H334.519C334.519 86.5506 333.01 47.2525 331.97 20.1848L329.635 20.2745ZM332.183 109.3C332.183 140.25 327.214 157.175 322.3 166.339L324.359 167.444C329.521 157.817 334.519 140.467 334.519 109.3H332.183ZM322.3 166.339C319.844 170.918 317.403 173.56 315.6 175.05L317.089 176.851C319.145 175.152 321.773 172.266 324.359 167.444L322.3 166.339ZM315.6 175.05C314.698 175.795 313.954 176.254 313.444 176.524L314.538 178.589C315.186 178.246 316.062 177.699 317.089 176.851L315.6 175.05ZM313.444 176.524C313.189 176.659 312.992 176.747 312.864 176.8L313.752 178.962C313.949 178.881 314.215 178.761 314.538 178.589L313.444 176.524ZM312.864 176.8C312.824 176.817 312.79 176.83 312.764 176.84L313.588 179.026C313.636 179.008 313.691 178.987 313.752 178.961L312.864 176.8ZM312.763 176.84C312.749 176.845 312.736 176.85 312.725 176.854L313.517 179.053C313.538 179.045 313.562 179.036 313.589 179.026L312.763 176.84ZM312.488 176.971L312.424 177.012L313.69 178.977L313.753 178.936L312.488 176.971ZM312.426 177.011C312.381 177.04 312.323 177.077 312.252 177.122L313.495 179.1C313.573 179.051 313.637 179.01 313.688 178.978L312.426 177.011ZM312.252 177.122C312.198 177.155 312.138 177.193 312.069 177.235L313.299 179.222C313.372 179.177 313.437 179.136 313.495 179.1L312.252 177.122ZM312.069 177.235C311.749 177.434 311.263 177.727 310.606 178.106L311.772 180.131C312.451 179.74 312.958 179.434 313.299 179.222L312.069 177.235ZM310.606 178.106C309.292 178.862 307.292 179.957 304.561 181.304L305.595 183.4C308.371 182.031 310.414 180.912 311.772 180.131L310.606 178.106ZM304.561 181.304C299.1 183.998 290.712 187.699 279.031 191.716L279.79 193.926C291.564 189.878 300.043 186.138 305.595 183.4L304.561 181.304ZM279.031 191.716C255.668 199.748 219.128 209.04 166.466 214.048L166.687 216.374C219.52 211.35 256.242 202.022 279.79 193.926L279.031 191.716ZM167.74 215.1L167.684 214.519L165.358 214.74L165.413 215.322L167.74 215.1ZM167.628 215.323L167.684 214.742L165.358 214.517L165.302 215.099L167.628 215.323ZM54.8098 193.923C78.0345 202.021 114.25 211.35 166.353 216.374L166.577 214.048C114.647 209.04 78.616 199.748 55.5791 191.717L54.8098 193.923ZM29.3592 183.396C34.8351 186.134 43.1978 189.874 54.8098 193.923L55.5791 191.717C44.0606 187.7 35.79 183.999 30.4045 181.306L29.3592 183.396ZM23.2661 180.125C24.6054 180.907 26.6213 182.026 29.3592 183.396L30.4045 181.306C27.7117 179.959 25.7401 178.864 24.4443 178.107L23.2661 180.125ZM21.7591 179.216C22.0961 179.428 22.5965 179.735 23.2661 180.125L24.4443 178.107C23.7964 177.729 23.3174 177.436 23.0017 177.237L21.7591 179.216ZM21.5236 179.067C21.5905 179.11 21.669 179.16 21.7592 179.216L23.0017 177.237C22.9172 177.184 22.8443 177.138 22.7831 177.099L21.5236 179.067ZM21.3757 178.972C21.4162 178.998 21.4656 179.03 21.5238 179.067L22.7829 177.099C22.73 177.065 22.6857 177.036 22.65 177.013L21.3757 178.972ZM21.3118 178.93L21.3736 178.97L22.652 177.014L22.5903 176.974L21.3118 178.93ZM21.3174 178.958C21.4112 178.997 21.4893 179.027 21.5507 179.05L22.3514 176.854C22.3225 176.844 22.2773 176.827 22.2169 176.801L21.3174 178.958ZM20.5395 178.584C20.8595 178.756 21.1222 178.877 21.3175 178.958L22.2168 176.801C22.0902 176.749 21.8966 176.661 21.6455 176.526L20.5395 178.584ZM18.0197 176.843C19.0328 177.692 19.8991 178.24 20.5396 178.584L21.6455 176.526C21.1434 176.256 20.4098 175.797 19.5207 175.052L18.0197 176.843ZM10.849 167.435C13.3985 172.256 15.9903 175.142 18.0197 176.843L19.5208 175.052C17.7437 173.563 15.3363 170.922 12.9147 166.342L10.849 167.435ZM0.83159 109.3C0.83159 140.464 5.7599 157.81 10.849 167.435L12.9147 166.342C8.06838 157.177 3.16841 140.251 3.16841 109.3H0.83159ZM3.34557 20.1869C2.32029 47.2548 0.83159 86.5515 0.83159 109.3H3.16841C3.16841 86.6068 4.65464 47.3641 5.68072 20.2753L3.34557 20.1869ZM3.3456 20.1863L3.34557 20.1869L5.68072 20.2753L5.68074 20.2748L3.3456 20.1863ZM4.01187 2.21087C3.84242 7.0703 3.60932 13.2241 3.3456 20.1863L5.68074 20.2748C5.94442 13.3138 6.17767 7.15604 6.34727 2.29231L4.01187 2.21087ZM4.03153 1.64701L4.01187 2.21086L6.34726 2.29232L6.36693 1.72848L4.03153 1.64701ZM5.76341 0.519334H5.19923V2.85615H5.76341V0.519334ZM166.632 215.206C219.35 210.189 255.963 200.882 279.411 192.821L278.651 190.611C255.389 198.608 218.958 207.879 166.411 212.879L166.632 215.206ZM279.411 192.821C291.138 188.788 299.571 185.068 305.078 182.352L304.045 180.256C298.628 182.928 290.286 186.61 278.651 190.611L279.411 192.821ZM305.078 182.352C307.832 180.994 309.853 179.887 311.189 179.118L310.023 177.093C308.731 177.837 306.753 178.92 304.045 180.256L305.078 182.352ZM311.189 179.118C311.857 178.734 312.354 178.434 312.684 178.229L311.454 176.242C311.145 176.434 310.67 176.721 310.023 177.093L311.189 179.118ZM312.684 178.229C312.85 178.126 312.974 178.048 313.057 177.995L311.796 176.027C311.723 176.074 311.609 176.146 311.454 176.242L312.684 178.229ZM313.057 177.994C313.099 177.968 313.13 177.947 313.151 177.934L311.875 175.976C311.858 175.987 311.832 176.004 311.795 176.027L313.057 177.994ZM313.153 177.932L313.174 177.919L311.893 175.964L311.872 175.978L313.153 177.932ZM313.178 177.916L313.183 177.913L311.894 175.964L311.889 175.967L313.178 177.916ZM313.186 177.91L313.187 177.91L311.891 175.966L311.89 175.966L313.186 177.91ZM313.185 177.911L313.256 177.864L311.963 175.917L311.893 175.964L313.185 177.911ZM312.953 178.008L313.031 177.984L312.345 175.75L312.267 175.774L312.953 178.008ZM313.046 177.979L313.046 177.979L312.331 175.754L312.33 175.754L313.046 177.979ZM313.028 177.985L313.029 177.984L312.35 175.748L312.349 175.749L313.028 177.985ZM313.032 177.983L313.033 177.983L312.348 175.749L312.347 175.749L313.032 177.983ZM313.078 177.968L313.08 177.968L312.305 175.763L312.303 175.764L313.078 177.968ZM313.07 177.971L313.086 177.965L312.331 175.754L312.315 175.76L313.07 177.971ZM313.098 177.961L313.112 177.957L312.334 175.753L312.32 175.758L313.098 177.961ZM313.116 177.955C313.162 177.939 313.226 177.914 313.308 177.881L312.419 175.72C312.372 175.739 312.342 175.75 312.329 175.755L313.116 177.955ZM313.308 177.881C313.471 177.814 313.702 177.71 313.991 177.557L312.897 175.492C312.676 175.609 312.514 175.681 312.419 175.72L313.308 177.881ZM313.991 177.557C314.57 177.25 315.38 176.747 316.344 175.95L314.856 174.149C314.016 174.843 313.338 175.258 312.897 175.492L313.991 177.557ZM316.344 175.95C318.274 174.356 320.809 171.592 323.329 166.891L321.27 165.787C318.88 170.244 316.532 172.764 314.856 174.149L316.344 175.95ZM323.329 166.891C328.368 157.496 333.351 140.358 333.351 109.3H331.014C331.014 140.142 326.06 156.854 321.27 165.787L323.329 166.891ZM333.351 109.3C333.351 86.5774 331.843 47.3204 330.803 20.2515L328.468 20.3412C329.509 47.4313 331.014 86.6334 331.014 109.3H333.351ZM330.803 20.243L330.803 20.239L328.468 20.3457L328.469 20.3497L330.803 20.243ZM330.803 20.2486L330.802 20.2193L328.467 20.3068L328.468 20.3361L330.803 20.2486ZM330.802 20.2182C330.545 13.5284 330.317 7.58362 330.147 2.81453L327.811 2.89778C327.982 7.67081 328.21 13.6192 328.467 20.3079L330.802 20.2182ZM328.979 1.68774H166.521V4.02456H328.979V1.68774ZM6.32753 4.02456H166.521V1.68774H6.32753V4.02456ZM6.84796 20.3295C7.10166 13.6318 7.32727 7.6755 7.49522 2.8972L5.15984 2.81511C4.99203 7.58952 4.76655 13.5422 4.51282 20.2411L6.84796 20.3295ZM6.84772 20.3359L6.84796 20.3295L4.51282 20.2411L4.51257 20.2475L6.84772 20.3359ZM6.84765 20.3379L6.84772 20.3359L4.51257 20.2476L4.51249 20.2497L6.84765 20.3379ZM4.33682 109.3C4.33682 86.6323 5.82155 47.428 6.84764 20.338L4.5125 20.2495C3.4872 47.3186 2 86.577 2 109.3H4.33682ZM13.9476 165.796C9.22261 156.86 4.33682 140.145 4.33682 109.3H2C2 140.358 6.91413 157.494 11.8819 166.888L13.9476 165.796ZM20.2713 174.157C18.6204 172.773 16.3051 170.254 13.9476 165.796L11.8819 166.888C14.3674 171.589 16.867 174.352 18.7702 175.948L20.2713 174.157ZM22.1984 175.497C21.7655 175.264 21.0983 174.85 20.2713 174.157L18.7702 175.948C19.7213 176.745 20.5212 177.248 21.0925 177.555L22.1984 175.497ZM22.6664 175.723C22.5742 175.684 22.4152 175.613 22.1984 175.497L21.0925 177.555C21.3781 177.709 21.6062 177.813 21.7671 177.88L22.6664 175.723ZM22.7534 175.757C22.742 175.753 22.7125 175.742 22.6662 175.723L21.7674 177.88C21.8475 177.913 21.9112 177.938 21.957 177.954L22.7534 175.757ZM22.757 175.759C22.7604 175.76 22.7591 175.759 22.7534 175.757L21.957 177.954C21.9799 177.962 21.9983 177.969 22.0122 177.973L22.757 175.759ZM22.7805 175.767L22.7789 175.766L21.9903 177.966L21.9919 177.966L22.7805 175.767ZM22.7418 175.754L22.7404 175.753L22.0319 177.98L22.0333 177.98L22.7418 175.754ZM22.7466 175.755L22.7457 175.755L22.0294 177.979L22.0303 177.979L22.7466 175.755ZM22.7147 175.745L22.7142 175.745L22.0627 177.989L22.0631 177.99L22.7147 175.745ZM22.8153 175.777L22.7364 175.752L22.0414 177.983L22.1203 178.008L22.8153 175.777ZM23.1914 175.971L23.1204 175.923L21.8152 177.861L21.8861 177.909L23.1914 175.971ZM23.1916 175.971L23.1907 175.97L21.8868 177.909L21.8876 177.91L23.1916 175.971ZM23.1945 175.973L23.19 175.97L21.8893 177.911L21.8938 177.914L23.1945 175.973ZM23.2113 175.984L23.191 175.97L21.8974 177.917L21.9177 177.93L23.2113 175.984ZM23.2868 176.033C23.2513 176.01 23.2254 175.993 23.2089 175.982L21.9201 177.932C21.9406 177.945 21.9716 177.966 22.013 177.993L23.2868 176.033ZM23.3795 176.093C23.3435 176.07 23.3127 176.05 23.2868 176.033L22.0129 177.992C22.0423 178.012 22.0768 178.034 22.1167 178.059L23.3795 176.093ZM23.623 176.248C23.5251 176.186 23.444 176.135 23.3795 176.093L22.1167 178.06C22.1879 178.105 22.2758 178.161 22.3803 178.227L23.623 176.248ZM25.0333 177.098C24.3963 176.726 23.928 176.439 23.623 176.248L22.3804 178.227C22.7067 178.432 23.1964 178.732 23.8552 179.116L25.0333 177.098ZM30.9271 180.261C28.2569 178.925 26.3074 177.842 25.0333 177.098L23.8552 179.116C25.1727 179.886 27.1665 180.993 29.8818 182.351L30.9271 180.261ZM55.9638 190.613C44.4919 186.613 36.2675 182.932 30.9271 180.261L29.8818 182.351C35.3125 185.067 43.6292 188.787 55.1945 192.82L55.9638 190.613ZM166.634 212.88C114.82 207.879 78.8986 198.61 55.9638 190.613L55.1945 192.82C78.317 200.882 114.423 210.188 166.409 215.206L166.634 212.88Z" fill="white"/>
<rect x="289.814" y="90.4565" width="31.3134" height="32.2481" rx="4.67364" fill="white"/>
<rect x="289.814" y="48.6274" width="31.3134" height="32.2481" rx="4.67364" fill="white"/>
<rect x="19.4453" y="150.746" width="161.474" height="8.64623" fill="white"/>
<rect x="60.8066" y="165.001" width="119.178" height="23.6019" fill="white"/>
<rect x="278.599" y="150.746" width="10.282" height="14.2546" fill="white"/>
<rect x="310.847" y="150.746" width="10.282" height="14.2546" fill="white"/>
<rect x="294.723" y="150.746" width="10.282" height="14.2546" fill="white"/>
<rect x="278.599" y="135.557" width="42.5301" height="8.64623" fill="white"/>
<path opacity="0.5" d="M29.3124 126.098V136.24H19.4043L29.3124 126.098Z" fill="white"/>
<path d="M17.1839 137.876L16.9035 137.619C15.9922 136.777 15.9221 135.375 16.7633 134.441L25.2693 125.07C26.1106 124.159 27.5127 124.089 28.4474 124.93L28.7278 125.187C29.6392 126.028 29.7093 127.43 28.868 128.365L20.3387 137.712C19.5208 138.647 18.0953 138.717 17.1839 137.876Z" fill="white"/>
<path opacity="0.5" d="M38.7109 126.098V136.24H28.8027L38.7109 126.098Z" fill="white"/>
<path d="M26.5834 137.876L26.3029 137.619C25.3916 136.777 25.3215 135.375 26.1627 134.44L34.6687 125.07C35.51 124.158 36.9121 124.088 37.8468 124.93L38.1273 125.187C39.0386 126.028 39.1087 127.43 38.2675 128.365L29.7381 137.712C28.9202 138.647 27.4947 138.717 26.5834 137.876Z" fill="white"/>
<path opacity="0.5" d="M48.1112 126.098V136.24H38.2031L48.1112 126.098Z" fill="white"/>
<path d="M35.9828 137.876L35.7024 137.619C34.791 136.777 34.7209 135.375 35.5621 134.44L44.0682 125.07C44.9094 124.158 46.3115 124.088 47.2462 124.93L47.5267 125.187C48.438 126.028 48.5081 127.43 47.6669 128.365L39.1375 137.712C38.3196 138.647 36.8941 138.717 35.9828 137.876Z" fill="white"/>
<path opacity="0.5" d="M57.5097 126.098V136.24H47.6016L57.5097 126.098Z" fill="white"/>
<path d="M45.3822 137.876L45.1018 137.619C44.1904 136.777 44.1203 135.375 44.9616 134.441L53.4676 125.07C54.3088 124.159 55.7109 124.089 56.6457 124.93L56.9261 125.187C57.8374 126.028 57.9075 127.43 57.0663 128.365L48.5369 137.712C47.719 138.647 46.2935 138.717 45.3822 137.876Z" fill="white"/>
<path opacity="0.5" d="M66.9091 126.098V136.24H57.001L66.9091 126.098Z" fill="white"/>
<path d="M54.7806 137.876L54.5002 137.619C53.5888 136.777 53.5187 135.375 54.36 134.44L62.866 125.07C63.7073 124.158 65.1094 124.088 66.0441 124.93L66.3245 125.187C67.2359 126.028 67.306 127.43 66.4647 128.365L57.9353 137.712C57.1174 138.647 55.692 138.717 54.7806 137.876Z" fill="white"/>
<path opacity="0.5" d="M76.3075 126.098V136.24H66.3994L76.3075 126.098Z" fill="white"/>
<path d="M64.18 137.876L63.8996 137.619C62.9883 136.777 62.9182 135.375 63.7594 134.441L72.2654 125.07C73.1067 124.159 74.5088 124.089 75.4435 124.93L75.7239 125.187C76.6353 126.028 76.7054 127.43 75.8641 128.365L67.3347 137.712C66.5169 138.647 65.0914 138.717 64.18 137.876Z" fill="white"/>
<path opacity="0.5" d="M85.7079 126.098V136.24H75.7998L85.7079 126.098Z" fill="white"/>
<path d="M73.5795 137.876L73.299 137.619C72.3877 136.777 72.3176 135.375 73.1588 134.441L81.6648 125.07C82.5061 124.159 83.9082 124.089 84.8429 124.93L85.1233 125.187C86.0347 126.028 86.1048 127.43 85.2636 128.365L76.7342 137.712C75.9163 138.647 74.4908 138.717 73.5795 137.876Z" fill="white"/>
<path fill-rule="evenodd" clip-rule="evenodd" d="M270.589 11.939H267.269C266.736 11.939 266.289 12.386 266.226 12.9607L265.874 16.2893C263.502 16.8748 261.391 18.1261 259.751 19.8332L256.689 18.4737C256.157 18.2395 255.54 18.4098 255.263 18.8568L253.603 21.7304C253.326 22.1987 253.497 22.7947 253.965 23.1565L256.692 25.1371C256.372 26.2526 256.2 27.4307 256.2 28.6483C256.2 29.8677 256.372 31.0474 256.693 32.1643L253.944 34.1613C253.497 34.5231 253.348 35.1191 253.603 35.5874L255.263 38.461C255.54 38.9293 256.136 39.0996 256.668 38.8441L259.759 37.4716C261.397 39.174 263.504 40.4219 265.871 41.0067L266.225 44.3572C266.289 44.9532 266.736 45.3789 267.268 45.3789H270.589C271.121 45.3789 271.568 44.9319 271.632 44.3572L271.986 41.0069C274.347 40.4238 276.45 39.1807 278.087 37.4851L281.147 38.8441C281.7 39.0996 282.317 38.9293 282.573 38.461L284.233 35.5874C284.51 35.1191 284.34 34.5231 283.871 34.1613L281.158 32.1904C281.483 31.0657 281.658 29.8772 281.658 28.6483C281.658 27.4304 281.486 26.2521 281.166 25.1364L283.892 23.1565C284.339 22.8159 284.51 22.1986 284.233 21.7303L282.573 18.8568C282.296 18.3885 281.7 18.2182 281.168 18.4736L278.107 19.8328C276.467 18.1258 274.356 16.8746 271.984 16.2892L271.632 12.9607C271.568 12.386 271.121 11.939 270.589 11.939ZM275.197 31.6503C275.627 30.7471 275.868 29.7364 275.868 28.6696C275.868 24.8382 272.761 21.7305 268.929 21.7305C265.098 21.7305 261.99 24.8382 261.99 28.6696C261.99 32.5011 265.098 35.6088 268.929 35.6088C271.302 35.6088 273.397 34.4171 274.648 32.6L275.197 31.6503Z" fill="white"/>
<path fill-rule="evenodd" clip-rule="evenodd" d="M297.971 9.60254H295.346C294.926 9.60254 294.572 9.95583 294.522 10.4101L294.244 13.0407C292.369 13.5033 290.701 14.4923 289.404 15.8415L286.985 14.7672C286.565 14.5822 286.077 14.7168 285.858 15.07L284.546 17.3412C284.327 17.7113 284.462 18.1823 284.832 18.4683L286.986 20.0333C286.733 20.9151 286.598 21.8462 286.598 22.8088C286.598 23.7727 286.734 24.7051 286.988 25.588L284.815 27.1661C284.461 27.4521 284.344 27.9232 284.546 28.2933L285.858 30.5644C286.076 30.9345 286.548 31.0691 286.968 30.8672L289.411 29.7825C290.705 31.1279 292.371 32.1142 294.242 32.5764L294.522 35.2245C294.572 35.6956 294.925 36.032 295.346 36.032H297.97C298.391 36.032 298.744 35.6787 298.795 35.2245L299.075 32.5764C300.941 32.1155 302.602 31.1331 303.896 29.793L306.315 30.8672C306.752 31.0691 307.24 30.9345 307.442 30.5644L308.754 28.2933C308.973 27.9232 308.838 27.4521 308.468 27.1661L306.323 25.6082C306.581 24.7194 306.719 23.78 306.719 22.8088C306.719 21.8463 306.583 20.9152 306.33 20.0335L308.485 18.4683C308.838 18.1992 308.973 17.7113 308.754 17.3412L307.442 15.07C307.223 14.6999 306.752 14.5653 306.332 14.7672L303.912 15.8416C302.616 14.4924 300.948 13.5034 299.073 13.0407L298.795 10.4101C298.744 9.95583 298.391 9.60254 297.971 9.60254ZM301.61 25.1849C301.952 24.4702 302.143 23.6702 302.143 22.8256C302.143 19.7974 299.686 17.3412 296.658 17.3412C293.63 17.3412 291.174 19.7974 291.174 22.8256C291.174 25.8538 293.63 28.31 296.658 28.31C298.535 28.31 300.192 27.3668 301.181 25.9287L301.61 25.1849Z" fill="white"/>
</svg>
