<svg xmlns="http://www.w3.org/2000/svg" viewBox="0 0 1788 1342.39">
  <title>20230213_roofLining</title>
  <g id="Ciel_de_toit_v4_FOND" data-name="Ciel de toit v4 FOND">
    <path d="M749.86,0l-5.69,2.28c-39.3,0,1.79-.76,0,0C738.81,4.56,690,18.35,650.39,32.55S542.14,71.94,521.23,83.73l-.51.28-1.11.62-1.24.68-1.37.74-4.82,2.57-2.79,1.47-2,1-1.67.88-.43.22-2.2,1.14L502,94l-2.34,1.21-.75.39-2.93,1.51-3.88,2-1.33.68-7.94,4.06c-.15.08-.3.16-.46.23l-6.14,3.12-10.8,5.47-1.62.82-3.28,1.65-1.66.84-6.74,3.39-8.61,4.33L440,125.4l-7.06,3.54-5.07,2.53-8.1,4L417,136.86l-9.21,4.57-3.58,1.78c-7.44,3.69-14.8,7.33-22,10.86L67.82,0Z" fill="#fff" stroke="#fff" stroke-miterlimit="10"/>
    <path d="M1612,748.53l-4.91-15.06c-.28-.85-.57-1.7-.87-2.54-.15-.41-.3-.84-.47-1.25s-.25-.7-.4-1l-.13-.36-.42-1c-.11-.27-.23-.54-.34-.8s-.34-.79-.51-1.18c-.43-1-.86-1.93-1.33-2.88-.18-.4-.38-.8-.57-1.18-.36-.73-.73-1.43-1.1-2.13s-.63-1.18-1-1.76c-.71-1.29-1.46-2.56-2.23-3.8l-1.14-1.78c-.33-.51-.66-1-1-1.52-1-1.49-2.05-3-3.13-4.35q-.55-.74-1.14-1.47c-.36-.47-.73-.93-1.11-1.39l0,0-.86-1c-.3-.37-.61-.73-.92-1.08s-.62-.71-.94-1.06a96.28,96.28,0,0,0-6.89-6.95l-1.19-1.05a80.07,80.07,0,0,0-17.53-11.88c-.26-.12-.51-.25-.78-.36-1.21-.58-2.41-1.1-3.61-1.57-19.14-7.49-80.28-17-110.6-18.94s-112.59-6.66-138.33-1.9-71.71-.39-121.34,45.14L920.6,536.14s218.11-5.62,339.26-3.27,336.33,17.59,336.33,17.59c8.42,9.45,19.12,16.08,27.56,25.54l2.08,2.33,20.46,22.91,2.07,2.31c.84,1,1.69,1.89,2.53,2.83l2.32,2.6,3.41,3.81,2.21,2.47,1.09,1.22,3.18,3.55,8.15,9.09,1.19,1.33c.1.11.2.23.31.34l1.73,1.93c.84.94,1.66,1.86,2.46,2.74l1.56,1.73,3.52,3.91,1.86,2.06c.19.22.38.44.58.64l1,1.08.84.92.61.69,2.46,2.68c.13.14.25.26.35.38l.31.33c.09.11.19.21.3.32l.53.58,1.46,1.59.39.43c.26.3.54.62.84.94,17.31,19.26,83.69,95.7,94.41,108.11,0,5.87.1,20.1.1,20.1Z" fill="#fff"/>
    <path d="M1797.67,0V745.57c-11.79-13.17-73-81.46-92-101.89l-.93-1-.43-.46-1.6-1.69-.58-.61-.33-.34-.34-.35-.39-.41-2.7-2.84-.68-.73-.92-1-1.07-1.14-.63-.68-2-2.19-3.87-4.15c-.56-.6-1.12-1.21-1.71-1.83l-2.71-2.91c-.62-.67-1.25-1.36-1.9-2l-.34-.36-1.31-1.41-9-9.65c-1.14-1.24-2.31-2.49-3.5-3.77l-1.19-1.29-2.43-2.62-3.75-4-2.55-2.76-2.79-3-2.27-2.45-21.36-23.08-3.42-3.7-28-30.34c-13-14-25.48-27.61-36.35-39.4-1.07-1.16-2.12-2.29-3.14-3.41l-4.53-4.91-2.88-3.12-2.76-3-1.21-1.31c-.42-.46-.84-.92-1.27-1.37-5.64-6.14-10.34-11.24-13.77-15l-.2-.22-1.28-1.39c-.47-.5-.9-1-1.3-1.42s-.78-.84-1.11-1.21L1531,455c-1-1.05-1.64-1.79-2-2.21l-.28-.31c-3.75-4.28-151.13-151.66-173.63-172.56s-124.33-112.53-170.42-156.48-131.83-96.46-150-105.57-25.19-15.54-25.19-15.54h0L1651.51,0l-128.2.46c-18.5,20.78-64.71,48.92-39.79,104.39s70.74,119,82.8,130.23,74.76,64.31,112.54,82S1794,376.56,1794,376.56V271.25s-61.28-13.66-89.41-31.35-104.51-86-116.56-137.46c30.54,1.61,28.93.8,50.64,4s61.9-2.58,74-17.86S1651.54,0,1651.53,0Z" fill="#fff"/>
    <path d="M1797.67,810.56V1024.8l-3.67-.93-126.08-32c-.48-8-1-14.81-1.39-20-1.59-18.9-16.83-98.28-21-118.45-2.75-13.44-12.11-49.52-18.06-72.09Z" fill="#fff"/>
    <path d="M1797.67,792.86v17.7l-170.16-29.21c-1.48-5.65-2.76-10.45-3.65-13.85s-1.43-5.37-1.43-5.37Z" fill="#fff"/>
    <path d="M1709.92,1276.41a321.6,321.6,0,0,1,14.27-33.15,75.49,75.49,0,0,1,6.1-10.53,60.19,60.19,0,0,1,8.55-9.29c4.66-4.2,9.83-8,15.78-10,13-4.31,30.29,2.51,43.05,7.44v127.36h-28c-7.55-7.54-17.21-12.52-25.8-18.86-3.87-2.85-7.52-6-11.26-9a231,231,0,0,0-30.28-20.65C1704.46,1292.14,1707,1284.26,1709.92,1276.41Z" fill="#fff"/>
    <path d="M1797.67,1024.8v22.32l-128.61-33.29c-.37-8-.76-15.35-1.14-21.94l126.08,32Z" fill="#fff"/>
    <path d="M1769.68,1348.27h-73.52v-.59s-1-19.71-3.16-31.69-7.25-19.71-22.7-29.64a111.39,111.39,0,0,0-12.7-6.67c3,1.29,5.07,2.08,8.6,3.36a231.71,231.71,0,0,1,66.42,37.37c3.74,3,7.39,6.15,11.26,9C1752.47,1335.75,1762.13,1340.73,1769.68,1348.27Z" fill="#fff"/>
    <path d="M1709.92,1276.41c-2.9,7.85-5.46,15.73-7.58,23.35A231.15,231.15,0,0,0,1666.2,1283c-3.53-1.28-5.58-2.07-8.6-3.36l-.29-.12c-3.25-1.5-6.8-3-10.52-4.61l-.21-.09c-20.11-8.45-45.3-17.4-56.07-21.62,3.48-3.56,4.1-9-.62-11.86-.62-.38-1.38-.8-2.26-1.26h0l.49-7.82h.09c4.6.44,8.94,2.26,13.2,4C1636.79,1251,1673.44,1264.72,1709.92,1276.41Z" fill="#fff"/>
    <path d="M1605.77,716.51l-.63-1.25C1605.35,715.67,1605.57,716.09,1605.77,716.51Z" fill="#fff"/>
    <path d="M1590.51,1194.51l-2.39,37.78-.49,7.82c-9.66-5.14-33.25-15.14-33.25-15.14l12.2-37.47C1574.31,1189.87,1582.45,1192.28,1590.51,1194.51Z" fill="#fff"/>
    <path d="M1568.68,675.64l-1.15-.69C1567.92,675.17,1568.3,675.41,1568.68,675.64Z" fill="#fff"/>
    <path d="M1561,671.45l-.85-.39C1560.39,671.18,1560.67,671.32,1561,671.45Z" fill="#fff"/>
    <path d="M1554.05,480c-41.09-7.14-428.46-4.5-499.11-3.06S791.3,489.29,791.3,489.29l2.82-12.35s246.07-22.22,371.8-22.13l365.2.26,0,0c.33.37.7.77,1.11,1.21l1.3,1.42,1.28,1.39.2.22c3.43,3.75,8.13,8.85,13.77,15,.43.45.85.91,1.27,1.37l1.21,1.31Z" fill="#fff"/>
    <path d="M1491.44,440.65l-2.15-2.41s-221.94-3.1-339.84-2.91-349.62,22.44-349.62,22.44-186.89-98.43-235-121.59S295,205.78,295,205.78c28.33-5.48,50.14-16.91,73.42-28.4,4.78-2.36,10.05-5,15.71-7.81l2.26-1.14,1.73-.85c.95-.49,1.92-1,2.89-1.46l2.95-1.48,13.84-7,4.8-2.42.85-.44c6.71-3.4,13.6-6.9,20.57-10.46,1.12-.57,2.24-1.13,3.35-1.71l8.63-4.4c.85-.45,1.7-.88,2.54-1.3l7.59-3.9,4.74-2.43c2.21-1.15,4.43-2.28,6.62-3.41l3.28-1.69,8.06-4.17,6.31-3.26,1.56-.81,3.07-1.59,1.52-.79,10.11-5.27,5.75-3c.15-.07.29-.15.43-.23q3.87-2,7.44-3.91l1.25-.65,3.63-1.92,2.74-1.45.71-.38,2.19-1.16,1.07-.57,2.06-1.1.4-.21,1.56-.85c.64-.33,1.27-.67,1.87-1l2.61-1.41,4.51-2.48,1.29-.71,1.16-.66,1-.59.48-.27c19.58-11.35,84-32,121.19-45.74s83.92-28.23,89-30.23C761.33,8.14,793.57.1,818.73.15,892.35.3,984.88-1.11,984.89,0c0,0,24.16,17.81,41.27,26.5s85.27,55.19,133.43,93c47.53,37.35,145.31,133.69,166.47,153.67s159.7,161,163.23,165a3.75,3.75,0,0,0,.26.3c.24.28.63.71,1.15,1.29l.4.45Z" fill="#fff"/>
    <path d="M1525.12,1174s-9.18,25.77-14.08,37.93c-2.94-1.37-12.75-4.08-22.56-5.3-6.37-.78-9.47,2.17-9.47,2.17s-36-21.19-108.25-45.55c-13.23-4.46-25.64-8.38-37.08-11.81,6.18-15.14,10.9-32.38,21.81-41.29C1367.11,1113.86,1487.8,1160.7,1525.12,1174Z" fill="#fff"/>
    <path d="M1268.71,1134.37c-11.47-2.53-17.75-3.61-17.75-3.61-1.46-6.81-3.89-11.18-11.19-13.86s-15.32-5.59-15.32-5.59l11-38.54,37.5,11.68C1276.89,1091.74,1268.81,1133.84,1268.71,1134.37Z" fill="#fff"/>
    <path d="M1207.85,1064.17,1194.11,1103s-7.8-2.25-14.37-4.3-6.77-3.29-12.7.56c-10.9-4.09-68.47-21.18-109.78-21.61h0c4.49-13.92,10.89-29.07,10.89-29.07s9.38-23.45,24.66-27.68c7.52,5.61,15.27,9,21.07,11.94C1128.65,1040.37,1207.85,1064.17,1207.85,1064.17Z" fill="#fff"/>
    <path d="M1169.27,707.91c-7.15,6.33-15.47,17.56-15.47,17.56-12.76-7.89-110.17-71.09-224-136.78-17.81-10.27-36-20.63-54.17-30.93l-6.83-3.86L865.34,552l-12.74-7.17q-16.15-9.07-32.12-18l-3.81-2.12-5.09-2.83-3.81-2.12-11.31-6.27-8.54-4.72-16.23-9-4.81-2.64-12-6.58-4.34-2.38c-11.14-6.1-22-12-32.36-17.65l-3.83-2.08-.76-.41-2.86-1.55c-11.93-6.47-23.26-12.59-33.82-18.27l-3.58-1.93-5.77-3.09-3.48-1.87-2.77-1.48L659,438.67l-2.07-1.1-3.39-1.81-8.15-4.35-2.93-1.56-4.71-2.5-3.82-2-3.67-1.94-3.51-1.85-3.35-1.77-1.61-.85-3.11-1.63-5.7-3L610.4,413,608,411.7l-4-2.07-1.19-.61-1.75-.89L598.79,407l-.09-.05-1.16-.58c-.36-.18-.72-.36-1.1-.53a.3.3,0,0,0-.11-.06l-2.66-1.29-1.45-.7-.86-.41q-2.8-1.35-6.11-2.9l-5.67-2.66-7.27-3.38-4.18-1.93-9.64-4.43-3.18-1.46-3-1.37-2-.9L547,382.82l-5.16-2.35-2.71-1.23-2.59-1.18-8.21-3.73-5.44-2.46c-10.69-4.84-22-9.94-33.66-15.18l-8-3.61c-12.75-5.73-25.83-11.59-38.88-17.42l-6.42-2.87-3.2-1.43-5.05-2.25c-15.07-6.73-29.94-13.34-44.06-19.61L381,308.36,373.43,305l-5-2.2-7.28-3.23L357.68,298l-31.75-14-3.42-1.5-2.27-1-4.89-2.15-6.87-3-1.77-.78-1.7-.75-1.65-.72-.41-.18-2.67-1.16-7.2-3.15-1.56-.68-2.45-1.06-1.26-.54-.7-.3c-28.3-12.11-91.92-37.21-106.57-54.08l1.31-.13.34,0,2.32-.25.48-.05.16,0,1.53-.17,1.29-.15.7-.08c1.42-.16,3-.35,4.77-.57l1.71-.21,4.84-.62,2.1-.28q3.81-.51,8.12-1.13l2.3-.34q3.42-.5,7.08-1.06l2.89-.45,3.25-.53,2.73-.44,3.25-.55,2.46-.42,1.63-.29c1.47-.25,3-.52,4.47-.8,1.34-.23,2.68-.48,4-.74,0,0,247.62,115.81,298.88,140.09S794.12,476.94,794.12,476.94l-2.82,12.35,58.59,38.34,24.5-5.12Z" fill="#fff" stroke="#fff" stroke-miterlimit="10" stroke-width="10"/>
    <path d="M1153.8,725.47s-35.62,67.44-52,102.32c-2.4,5.09-4.9,10.84-7.42,17.07-12.28-4.74-27-11.88-41.82.41a55.79,55.79,0,0,0-11.67,14.22c-18.45,30.46-73.44,161.35-73.44,161.35,12,.9,26.9,2,40.16,1.41s25.09-3.12,30.44-9.54c10.64-12.77,26.2-61,30.13-70.6l.16,0a152.84,152.84,0,0,0-.6,29.5c2.37,26.44,13.46,40.53,25.1,49.21-15.28,4.23-24.66,27.68-24.66,27.68S1012,1038.19,971.6,1053s-69.17,44-69.17,44l-10.72-3.85c14.82-19.28,16.82-36.82,16.82-36.82S991,862,1003.45,835.23s-6.25-38.65-18.76-48.31c-3.76-2.91-15.18-9.62-30.24-18.06l-1.28-.72c-9.89-5.54-21.27-11.77-33-18.15-5.85-3.17-11.8-6.38-17.71-9.55-24.3-13.05-47.95-25.5-61.55-32.53-34.1-17.61-165.41-79-199.51-90.38a92.74,92.74,0,0,0-16.48-3.95c-2.78-5.67-14.11-14.51-29.76-24.68s-119.42-50.77-152.37-59-39.53-7.41-56.5-7.33a77.35,77.35,0,0,0-6.5-5.57q-3.64-2.81-8.12-5.62c-1-.61-2-1.23-3-1.84C328.71,486,200.05,445.2,183.68,439.74S19,391.06,0,387.49V.15L2.24,73.33v70.09c23.57,11.83,146.57,58.44,178.3,69.46,14.65,16.87,78.27,42,106.57,54.08,24.33,10.4,202.52,89.32,281,125.55l4.18,1.93c4.08,1.89,7.85,3.65,11.26,5.25l1.68.79,6.11,2.9.86.41q3,1.44,5.32,2.59l2.5,1.25,1,.5,1.75.89,5.2,2.68L610.4,413,613,414.3l5.7,3,3.11,1.63,1.61.85,3.35,1.77,3.51,1.85,3.67,1.94,3.82,2c63,33.41,184,99.08,292,161.34C1043.63,654.38,1141,717.58,1153.8,725.47ZM972.59,706a22.71,22.71,0,0,0-3.47-17.77c-2.58-3.54-6.24-6.12-9.9-8.51-27.72-18.09-60.93-29.39-94.28-27.57-9,.49-16.28,2.45-24.62,5.52-2.28.84-4.61,2.79-4.3,5.2.21,1.62,1.55,2.83,2.8,3.88,7.68,6.47,16.4,13.31,26.42,12.78,4.08-.22,8-1.67,11.91-2.76a71.22,71.22,0,0,1,64.63,14.56,8.69,8.69,0,0,1,2.28,2.63c1.75,3.51-1.36,7.57-4.75,9.55s-7.49,3.23-9.64,6.52a3.84,3.84,0,0,0-.7,1.84,4.76,4.76,0,0,0,1.66,3.24,50.16,50.16,0,0,0,11.51,9.15c3.22,1.86,6.82,3.39,10.53,3.14,4.09-.28,7.74-2.69,10.7-5.52A30.92,30.92,0,0,0,972.59,706Zm-135-62.22,18-12.25a310.38,310.38,0,0,0-58-31.17l-11.47-4.67a3.53,3.53,0,0,0-3.26.3l-13,8.27a3.56,3.56,0,0,0,.2,6.12l10.43,5.73,19.31,10.61,20.59,11.31,8.76,4.81ZM346.32,445.54c4-3.06,4.61-8.82,4.17-13.83a54.57,54.57,0,0,0-19.78-37.27,93.57,93.57,0,0,0-15.43-9.67c-30.79-16.28-58.53-27-91.34-38.09-20.62-6.94-45.91-13.61-67.71-16.07a310.15,310.15,0,0,0-67.9.07c-6.44.68-16.34,5.88-14.4,13.79.78,3.19,3.6,5.41,6.3,7.27a136.14,136.14,0,0,0,38.65,18.48c3.36,1,6.9,1.87,10.34,1.2,3.64-.72,6.7-3.05,9.91-4.9,16.05-9.22,36.14-6.25,54.1-1.74a397.28,397.28,0,0,1,93.26,36.42c4.94,2.69,10.58,7,9.43,12.53-.75,3.62-4.36,6.24-4.76,9.91-.5,4.56,4,7.93,7.91,10.28,12.1,7.24,25.14,14.69,39.22,14C341.12,447.79,344.06,447.27,346.32,445.54Z" fill="#fff"/>
    <path d="M1094.35,844.86c-11.16,27.59-22.59,64.73-26,97.27l-.16,0c-3.93,9.58-19.49,57.83-30.13,70.6-5.35,6.42-17.06,8.89-30.44,9.54,11.28-4.93,25.47-22.67,34.34-55.31s28-91.24,29.1-98a43,43,0,0,0,1-7,11.06,11.06,0,0,0-3.62-8.26c-2.83-2.82-7.71-5.68-15.9-8.47C1067.3,833,1082.07,840.12,1094.35,844.86Z" fill="#fff" stroke="#fff" stroke-miterlimit="10"/>
    <path d="M1068.15,1048.52s-6.4,15.15-10.89,29.07h-1.57c-41.41,0-69.47,19.32-89.26,32.66s-29.16,18.71-57.19,51.26S733.8,1348.25,733.78,1348.27h-6.69v-1.72c14.08-7.78,45.74-89.42,61.14-137.8,1.78-5.61,3.51-11.64,5.18-17.91h0c7.19-6.78,28.43-26.87,49.55-47.43s42.09-41.58,48.74-50.23l10.72,3.85s28.75-29.19,69.17-44S1068.15,1048.52,1068.15,1048.52Z" fill="#fff"/>
    <path d="M984.69,786.92c12.51,9.66,31.27,21.6,18.76,48.31s-94.92,221.12-94.92,221.12c-2-9-4.91-16.65-11.37-23.16-5.71-5.75-14.22-10.64-27.44-14.9,0,0,84-166.36,92-188.79,4.23-11.85,9.86-23.77,9.86-34.77a25.64,25.64,0,0,0-8-19,45,45,0,0,0-9.18-6.87C969.51,777.3,980.93,784,984.69,786.92Z" fill="#fff"/>
    <path d="M920.14,750l-.59,1.09c-49.89,61.4-95.85,123-134.18,184.86.42-4.47.84-11.31,1.29-22.1.23-5.65.25-11.24.1-16.8a1764.86,1764.86,0,0,1,115.67-156.6C908.34,743.61,914.29,746.82,920.14,750Z" fill="#fff"/>
    <path d="M908.53,1056.35s-2,17.54-16.82,36.82l-18.31-2.5-58.68-6.75c.3-2,.46-3.14.46-3.14,1.43-43.31-15.19-50.2-29.9-69.89a71.93,71.93,0,0,0-8.52-9.53c29.7,6.08,64.76,7.84,93,16.93,13.22,4.26,21.73,9.15,27.44,14.9C903.62,1039.7,906.48,1047.32,908.53,1056.35Z" fill="#fff"/>
    <path d="M873.4,1090.67l18.31,2.5c-6.65,8.65-27.63,29.67-48.74,50.23s-42.36,40.65-49.55,47.43h0c3.2-12,6.16-24.93,8.8-37.53h0l54-47.57Z" fill="#fff"/>
    <path d="M873.4,1090.67l-17.13,15.07L812,1101h0c1.29-7.71,2.22-13.69,2.74-17.07Z" fill="#fff"/>
    <path d="M856.27,1105.74l-54,47.57h0c4.15-19.74,7.51-38.73,9.77-52.32h0Z" fill="#fff"/>
    <path d="M855.57,631.55l-18,12.25-8.44-.94-8.76-4.81a4.64,4.64,0,0,0,2.22.57h8.86a4.58,4.58,0,0,0,2.49-.73l4.93-3.17a4.61,4.61,0,0,0-.41-8l-43.27-21.93a4.64,4.64,0,0,0-3.43-.3l-10.42,3.18a4.61,4.61,0,0,0-2.62,6.75,4.66,4.66,0,0,0,1.75,1.69l-10.43-5.73a3.56,3.56,0,0,1-.2-6.12l13-8.27a3.53,3.53,0,0,1,3.26-.3l11.47,4.67a310.38,310.38,0,0,1,58,31.17Z" fill="#fff"/>
    <path d="M838.5,626.74a4.61,4.61,0,0,1,.41,8L834,637.89a4.58,4.58,0,0,1-2.49.73h-8.86a4.64,4.64,0,0,1-2.22-.57l-20.59-11.31-19.31-10.61a4.59,4.59,0,0,1-2.39-4,4.61,4.61,0,0,1,3.26-4.4l10.42-3.18a4.64,4.64,0,0,1,3.43.3Z" fill="#fff"/>
    <path d="M753.59,950c9.16,1.77,16.9,2.44,22.07,1.86q-10.42,17.49-20,35c-6.65-3.38-13.12-5.95-18.74-8.35Q745.15,964.14,753.59,950Z" fill="#fff"/>
    <path d="M633.94,425.32l3.82,2Z" fill="#fff"/>
    <path d="M623.41,419.76l3.35,1.77Z" fill="#fff"/>
    <path d="M624.89,613.58c-25.94-3.6-46.18,6.75-63.67,26.21-21,23.41-115.39,171.57-145,218.18-11.9,18.77-27,45.54-40.84,70.84h0c-20.51,37.55-38.16,71.83-38.16,71.83l-34.14-3.85,83.17-170.61h0a29.86,29.86,0,0,0,11.77-10.66l84.45-132.7A12.58,12.58,0,0,0,476,664.18l-58.38-20.33a29.93,29.93,0,0,0-33.75,10.28l-100,133.06a12.58,12.58,0,0,0,6.57,19.65L336.24,820l-86,170.79L86.88,972.41h0l4.25-6.26c14.72-21.72,29.77-43.89,43.9-64.67,35.38-52,65.09-95.33,69.91-101.32,12.93-16.09,183.8-220.27,189.83-232,4.91-9.58,11-26.78-8.5-45.55,17-.08,23.56-.9,56.5,7.33s136.72,48.83,152.37,59S622.11,607.91,624.89,613.58Z" fill="#fff" stroke="#fff" stroke-miterlimit="10" stroke-width="4"/>
    <path d="M610.4,413,613,414.3Z" fill="#fff"/>
    <path d="M600,407.63l1,.5Z" fill="#fff"/>
    <path d="M597.54,406.37c.71.35,1.55.77,2.5,1.26l-2.5-1.25q-2.34-1.15-5.32-2.59Q595.21,405.22,597.54,406.37Z" fill="#fff"/>
    <path d="M585.25,400.48q3.3,1.54,6.11,2.9Z" fill="#fff"/>
    <path d="M568.13,392.51l4.18,1.93Z" fill="#fff"/>
    <path d="M476,664.18a12.58,12.58,0,0,1,6.48,18.64l-84.45,132.7a29.86,29.86,0,0,1-11.77,10.66l42.55-87.29a32.26,32.26,0,0,1,10.91.4q3.38-5.76,6.64-11.58,2.58-4.59,5.08-9.22,6.21-11.44,12-23.12a5.53,5.53,0,0,0,.59-1.65,5,5,0,0,0-1.08-3.18c-3-4.57-7-8.38-11.07-12a189.19,189.19,0,0,0-45.63-29.15c-5.77,1.4-9.66,6.64-13,11.53h0c-4.72,6.81-9.5,13.76-12.05,21.65a49.48,49.48,0,0,0-2.26,15.25c0,.75,0,1.51,0,2.26a62.4,62.4,0,0,0,5.72,23.71L336.24,820l-45.74-13.2a12.58,12.58,0,0,1-6.57-19.65l100-133.06a29.93,29.93,0,0,1,33.75-10.28Z" fill="#fff" stroke="#fff" stroke-miterlimit="10"/>
    <path d="M473.51,947.26l.77.14c-19.54,15.71-78.47,65.4-101.21,86.18-12.26,11.21-46.81,35.82-85.06,63.32l49.25-96.26s17.65-34.28,38.16-71.83h0Z" fill="#fff"/>
    <path d="M440.92,723.2l5.48,4q-3.25,5.82-6.64,11.58a32.26,32.26,0,0,0-10.91-.4l-35.63-32-8.55,17A62.4,62.4,0,0,1,379,699.65c0-.75,0-1.51,0-2.26a49.48,49.48,0,0,1,2.26-15.25c2.55-7.89,7.33-14.84,12.05-21.65,0,.13,1,25.73,10.86,41.44s27.31,27.62,27.31,27.62Z" fill="#fff"/>
    <path d="M386.26,522.56c19.46,18.77,13.41,36,8.5,45.55-6,11.78-176.9,216-189.83,232-4.82,6-34.53,49.32-69.91,101.32-1.16-1.4-2.36-2.72-3.58-4-18.32-18.62-42.33-20.07-42.33-20.07S332.89,582,347.2,564.89s30.88-32.71,24.44-53.52q4.49,2.82,8.12,5.62A77.35,77.35,0,0,1,386.26,522.56Z" fill="#fff"/>
    <path d="M383.29,154.07l-.91.45L377.26,157l-14.78,7.25-3.15,1.54-1.92.93-1.17.58-1.84.89L352,169.41c-6,2.94-11.67,5.66-16.77,8.11-24.85,11.92-59.68,20.39-89.9,26-35,6.55-63.77,9.32-63.77,9.32-31.73-11-154.73-57.63-178.3-69.46V73.33l2,65.42,52.48,20.57s42.74-14.69,72-32.28,65.68-42.86,72-47.51C174,64.81,49.26,2.9,49.26,2.9L17.47,1,68.8,0h0ZM365.1,156,230,94s-34.57,26.23-59.08,38.57-63.79,32.14-86.11,36.85l98.05,37.71s80.11-12.27,110.75-22.34C329.27,173.09,365.1,156,365.1,156Z" fill="#fff" stroke="#fff" stroke-miterlimit="10" stroke-width="4"/>
    <path d="M229,94,364.1,156s-35.83,17.14-71.53,28.88c-30.64,10.07-110.75,22.34-110.75,22.34l-98-37.71c22.32-4.71,61.6-24.51,86.11-36.85S229,94,229,94Z" fill="#fff" stroke="#fff" stroke-miterlimit="10" stroke-width="4"/>
    <path d="M358.33,165.83l-3.09,1.51,1.17-.58Z" fill="#fff"/>
    <path d="M337.26,1000.64,288,1096.9c-12.37,8.89-25.12,18.08-37.64,27.22a13.15,13.15,0,0,0,1-19.63c-.17-.17-.35-.34-.54-.5l52.26-107.2Z" fill="#fff"/>
    <path d="M250.26,990.83l-50.48,100.29-3.72-.78a15.16,15.16,0,0,0-11.65,27.37l6.14,4.18a14.6,14.6,0,0,0,3.53,1.77,8.6,8.6,0,0,0,1.57,7.47,8.78,8.78,0,0,1,1.5,2c.79,1.94-.64,4-1.88,5.68-6.31,8.53-9.79,18.77-13.16,28.82a2.65,2.65,0,0,0,0,2.45,2.49,2.49,0,0,0,1.2.74,19.63,19.63,0,0,0,4.29,1c-2.44,2-4.8,3.93-7.05,5.81-54.1,45.47-118.91,125.78-138.4,168.89v1.72H0V1100.92c.19-.28,41.41-61.39,86.89-128.51h0Z" fill="#fff"/>
    <path d="M195.78,1123.69l41.8,9.35c-10.9,8-21.44,16-31.18,23.46a15.42,15.42,0,0,0,1.23-2.86q1.91-5.36,3.8-10.73c.23-.67.41-1.54-.15-2a1.72,1.72,0,0,0-.77-.26l-7.71-1.22a4,4,0,0,0-1.76,0,3.69,3.69,0,0,0-1.54,1.09c-5.15,5.32-7.71,12.55-10.13,19.54-1.15,2.88-1.77,4.94.29,7.28a2.48,2.48,0,0,0,.88.73,1.4,1.4,0,0,0,1.15,0c-1.4,1.12-2.76,2.22-4.1,3.32a19.63,19.63,0,0,1-4.29-1,2.49,2.49,0,0,1-1.2-.74,2.65,2.65,0,0,1,0-2.45c3.37-10,6.85-20.29,13.16-28.82,1.24-1.68,2.67-3.74,1.88-5.68a8.78,8.78,0,0,0-1.5-2,8.6,8.6,0,0,1-1.57-7.47A13.86,13.86,0,0,0,195.78,1123.69Z" fill="#fff"/>
    <path d="M200.7,79.38c-6.29,4.65-42.74,29.91-72,47.51s-72,32.28-72,32.28L2.26,144.31V73.18L0,0H16.34L48.85.37S173,64.66,200.7,79.38Z" fill="#fff" stroke="#fff" stroke-miterlimit="10"/>
    <path d="M131.44,897.53c1.22,1.23,2.42,2.55,3.58,4-14.13,20.78-29.18,42.95-43.9,64.67,0,0-86.69-11.78-89-13.17H0V863.15c.2.49,89.13,14.31,89.13,14.31S113.12,878.91,131.44,897.53Z" fill="#fff"/>
    <path d="M91.12,966.15l-4.25,6.26C41.39,1039.53.17,1100.64,0,1100.92v-59.75H2.12l33.29-51.71,14.26-22.17L0,961.29V953H2.12C4.43,954.37,91.12,966.15,91.12,966.15Z" fill="#fff"/>
    <polygon points="49.67 967.29 35.41 989.46 2.12 986.68 -0.02 986.68 -0.02 961.29 49.67 967.29" fill="#fff"/>
    <polygon points="35.41 989.46 2.12 1041.17 -0.02 1041.17 -0.02 986.68 2.12 986.68 35.41 989.46" fill="#fff"/>
    <path d="M1788,759c0,5.87-.07,20.8-.07,20.8l.1,2.16-177.34-29.83s-3.46-8.44-12.79-20.52a9.25,9.25,0,0,1-.88-2.53c-.15-.41-.3-.84-.47-1.25s-.26-.7-.4-1.05c-.05-.12-.1-.24-.14-.35l-.42-1c-.12-.26-.23-.54-.34-.8s-.34-.79-.52-1.18c-.43-1-.87-1.93-1.34-2.88l-.58-1.17c-.37-.73-.74-1.43-1.12-2.13s-.63-1.18-1-1.75q-1.1-1.94-2.26-3.8c-.38-.6-.77-1.19-1.15-1.78s-.68-1-1-1.52c-1-1.49-2.07-2.94-3.17-4.35l-1.15-1.47c-.37-.46-.74-.92-1.13-1.38l0,0c-.28-.34-.58-.68-.87-1s-.62-.73-.93-1.08-.62-.71-1-1.06a97,97,0,0,0-7-6.94l-1.19-1a81,81,0,0,0-17.74-11.86c-.26-.12-.51-.26-.78-.37-1.22-.57-2.44-1.09-3.65-1.56-19.36-7.48-81.19-17-111.86-18.92S1322,650.6,1296,655.36s-54.57-3.28-104.76,42.19L920.6,536.14s203.61-7.26,326.13-4.91,348.52,13.87,348.52,13.87c8.52,9.45,14.66,16.07,23.2,25.52,1,1.16-1.62,6-.57,7.18,6.77,7.48,13.38,14.8,19.65,21.72l2.09,2.31c.85.95,1.71,1.89,2.56,2.83l2.35,2.6,3.45,3.8c.74.83,1.49,1.66,2.23,2.47l1.1,1.21c1.09,1.21,2.17,2.38,3.22,3.55,2.91,3.22,5.67,6.26,8.24,9.08.4.46.8.89,1.2,1.33l.32.34L1666,631l2.5,2.74c.53.58,1,1.17,1.57,1.72l3.56,3.91,1.88,2.06.58.64c.34.37.68.72,1,1.07l.84.92c.23.24.43.47.63.69l2.48,2.67.36.39.31.33.31.32.53.57c.43.48.93,1,1.47,1.6l.4.43.85.94C1702.8,671.2,1777.16,746.59,1788,759Z" fill="#fff"/>
    <rect x="37.29" y="1007.08" width="287.81" height="149.48" transform="translate(-585.6 297.48) rotate(-34.84)" fill="#fff" stroke="#fff" stroke-miterlimit="10"/>
    <rect x="155.75" y="734.28" width="390.53" height="149.48" transform="matrix(0.5, -0.87, 0.87, 0.5, -525.12, 708.5)" fill="#fff" stroke="#fff" stroke-miterlimit="10"/>
    <rect x="800.3" y="485.96" width="87.42" height="36.55" fill="#fff"/>
    <rect x="841.02" y="472.05" width="774.28" height="45.85" fill="#fff"/>
    <rect x="1443.76" y="488.98" width="153.95" height="34.61" transform="translate(20.23 -57.14) rotate(2.17)" fill="#fff"/>
    <rect x="1592.98" y="527.13" width="34.51" height="9.46" transform="translate(59.07 -153.42) rotate(5.56)" fill="#fff"/>
    <rect x="378.13" y="126.14" width="31.05" height="22.71" transform="translate(-16.01 215.25) rotate(-30)" fill="#fff"/>
  </g>
  <g id="Ciel_de_toit_v4_OUTLINE" data-name="Ciel de toit v4 OUTLINE">
    <rect x="-0.06" y="-222.76" width="1797.2" height="1797.2" fill="none"/>
    <g>
      <path d="M244.31,203.56S491.92,319.37,543.19,343.65,794.11,476.94,794.11,476.94s246.08-22.22,371.81-22.13l365.2.26" fill="none" stroke="#fff" stroke-linejoin="round" stroke-width="10"/>
      <path d="M1601,530.84s-238.86-12.92-372.06-15.43-354.5,7.1-354.5,7.1l-24.5,5.12L791.3,489.29s193-10.92,263.64-12.35,458-4.08,499.11,3.06l2.88,3.12,4.53,4.91c1,1.12,2.07,2.25,3.14,3.41C1575.47,503.23,1588,516.8,1601,530.84Z" fill="none" stroke="#fff" stroke-linejoin="round" stroke-width="10"/>
      <line x1="1169.27" y1="707.91" x2="874.39" y2="522.51" fill="none" stroke="#fff" stroke-linejoin="round" stroke-width="10"/>
      <path d="M180.54,212.88c-31.74-11-154.73-57.63-178.3-69.46V1.27L67.81,0,372,150.6" fill="none" stroke="#fff" stroke-linejoin="round"/>
      <path d="M27.52,153.13,80,173.7s42.74-14.69,72-32.29,65.68-42.85,72-47.51C196.28,79.19,71.52,17.28,71.52,17.28l-48.29-2.9Z" fill="none" stroke="#fff" stroke-linejoin="round" stroke-width="10"/>
      <path d="M83.77,169.46l98.05,37.71s80.11-12.27,110.74-22.34C328.27,173.09,364.09,156,364.09,156L229,94s-34.57,26.23-59.08,38.57S106.08,164.75,83.77,169.46Z" fill="none" stroke="#fff" stroke-linejoin="round" stroke-width="10"/>
      <path d="M733.78,1348.27s147.42-154.2,175.45-186.76,37.42-37.91,57.2-51.26,47.85-32.66,89.26-32.66,100.3,17.48,111.35,21.62c5.93-3.85,6.13-2.62,12.7-.56s14.36,4.3,14.36,4.3l13.75-38.78s-79.2-23.8-94-31.39-42.27-17.65-46.16-61.15,17.64-109,34.06-143.84,52-102.32,52-102.32" fill="none" stroke="#fff" stroke-linejoin="round" stroke-width="10"/>
      <path d="M1207.85,1064.17s135.1,42,147.64,46,152.26,58.27,176.87,66.37,81.77,26.83,107.65,28.1,41.76-6.51,43.51-17-11.75-74.94-12.55-115.74-2.85-81.14-4.44-100-16.83-98.28-21-118.45-22.75-89.83-22.75-89.83" fill="none" stroke="#fff" stroke-linejoin="round" stroke-width="10"/>
      <path d="M1590.35,695.51c-8.18,22.64-36.4,95-29.45,218.54s4.5,128,19.63,188.94,32.69,79.12,77.69,100.9" fill="none" stroke="#fff" stroke-linejoin="round" stroke-width="10"/>
      <path d="M1236.53,1073.1l-12.08,38.21c-.38,4.89-29.57-.09-30.35-8.36" fill="none" stroke="#fff" stroke-linejoin="round" stroke-width="10"/>
      <path d="M1224.45,1111.31l15.32,5.59c7.29,2.68,9.73,7,11.18,13.86s-15.56,7.54-26.5,5.11-56.42-15.08-60.55-19.21-2-15,3.14-17.45" fill="none" stroke="#fff" stroke-linejoin="round" stroke-width="10"/>
      <path d="M1251,1130.76s47.59,8.16,119.81,32.52S1479,1208.83,1479,1208.83s3.1-2.95,9.47-2.17c9.8,1.22,19.62,3.93,22.56,5.3,4.9-12.16,14.08-37.93,14.08-37.93" fill="none" stroke="#fff" stroke-linejoin="round" stroke-width="10"/>
      <path d="M1566.58,1187.49l-12.4,38.08a7.11,7.11,0,0,1-8.28,4.75c-17.57-3.87-29.63-9.82-34.86-18.36" fill="none" stroke="#fff" stroke-linejoin="round" stroke-width="10"/>
      <path d="M1554.38,1225s28.06,11.9,35.51,16.41,1.57,15.5-7.84,15.3-60.42-7.84-87.68-23.34-15.36-24.51-15.36-24.51" fill="none" stroke="#fff" stroke-linejoin="round" stroke-width="10"/>
      <path d="M1590.51,1253.24c16.08,6.3,64.33,23.17,79.78,33.11S1690.79,1304,1693,1316s3.15,31.69,3.15,31.69" fill="none" stroke="#fff" stroke-linejoin="round" stroke-width="10"/>
      <line x1="1667.91" y1="991.89" x2="1798.34" y2="1024.97" fill="none" stroke="#fff" stroke-linejoin="round" stroke-width="10"/>
      <line x1="1669.05" y1="1013.83" x2="1799.64" y2="1047.63" fill="none" stroke="#fff" stroke-linejoin="round" stroke-width="10"/>
      <line x1="1627.51" y1="781.35" x2="1797.67" y2="810.56" fill="none" stroke="#fff" stroke-linejoin="round" stroke-width="10"/>
      <line x1="794.12" y1="476.94" x2="791.3" y2="489.29" fill="none" stroke="#fff" stroke-linejoin="round" stroke-width="10"/>
      <path d="M-.12,387.48c18.67,3.44,167.43,46.81,183.8,52.26s145,46.24,184.94,69.79,32.17,46.81,26.14,58.58-176.91,216-189.83,232S0,1100.93,0,1100.93" fill="none" stroke="#fff" stroke-linejoin="round" stroke-width="10"/>
      <path d="M0,863.15c0,.46,89.13,14.31,89.13,14.31S332.88,582,347.2,564.89s30.88-32.71,24.44-53.52" fill="none" stroke="#fff" stroke-linejoin="round" stroke-width="10"/>
      <path d="M89.1,877.46s27.33,1.65,45.92,24" fill="none" stroke="#fff" stroke-linejoin="round" stroke-width="10"/>
      <path d="M303.12,996.79l34.14,3.85s17.65-34.28,38.16-71.83h0c13.82-25.3,28.94-52.07,40.84-70.84,29.56-46.61,123.92-194.77,145-218.18C578.71,620.33,599,610,624.89,613.58a92.74,92.74,0,0,1,16.48,3.95c34.1,11.37,165.41,72.77,199.51,90.38,13.6,7,37.25,19.48,61.55,32.53,17.79,9.55,35.93,19.41,50.74,27.7l1.28.72c15.06,8.44,26.48,15.15,30.24,18.06,12.51,9.66,31.27,21.6,18.76,48.31s-94.92,221.12-94.92,221.12-2,17.54-16.82,36.82c-13.3,17.3-83.92,84.1-98.29,97.66l-2.56,2.4" fill="none" stroke="#fff" stroke-linejoin="round" stroke-width="10"/>
      <polyline points="250.26 990.83 86.88 972.41 86.87 972.41" fill="none" stroke="#fff" stroke-linejoin="round" stroke-width="10"/>
      <path d="M908.52,1056.35c-3.84-17-10.6-29-38.8-38.06s-63.26-10.85-93-16.93" fill="none" stroke="#fff" stroke-linejoin="round" stroke-width="10"/>
      <path d="M42.14,1346.55c19.48-43.11,84.3-123.42,138.4-168.89s168-121.64,192.53-144.08S464.42,955,478.18,944.31,508.83,923,527,918.85s18.44-10.12,55.84,3.12c3.35-1.27,7.59-.76,14.2,1.21s21.9,6.4,26.65,9.81,3.93,4.55,3.93,4.55l75.83,26.55,22.31,5.78s10.54,2,11.16,8.68c14.29,6.11,34.1,13.27,48.35,32.34,14.71,19.69,31.33,26.58,29.9,69.89,0,0-11.56,79.58-26.95,128s-47.07,130-61.14,137.8" fill="none" stroke="#fff" stroke-linejoin="round" stroke-width="10"/>
      <line x1="288.01" y1="1096.9" x2="337.26" y2="1000.64" fill="none" stroke="#fff" stroke-linejoin="round" stroke-width="10"/>
      <line x1="375.42" y1="928.81" x2="474.28" y2="947.4" fill="none" stroke="#fff" stroke-linejoin="round" stroke-width="10"/>
      <path d="M786.76,897a1764.86,1764.86,0,0,1,115.67-156.6" fill="none" stroke="#fff" stroke-linejoin="round" stroke-width="10"/>
      <path d="M753.59,950q-8.45,14.1-16.66,28.51" fill="none" stroke="#fff" stroke-linejoin="round" stroke-width="10"/>
      <path d="M785.37,935.94c38.33-61.89,84.29-123.46,134.18-184.86" fill="none" stroke="#fff" stroke-linejoin="round" stroke-width="10"/>
      <path d="M775.66,951.9q-10.42,17.49-20,35" fill="none" stroke="#fff" stroke-linejoin="round" stroke-width="10"/>
      <path d="M869.72,1018.29s84-166.36,92-188.79,21-45.09-8.58-61.36" fill="none" stroke="#fff" stroke-linejoin="round" stroke-width="10"/>
      <path d="M786.66,913.84c-.45,10.79-.87,17.63-1.29,22.1-1,10.36-1.87,8-2.9,12.46-.44,1.93-2.88,3.08-6.81,3.5-5.17.58-12.91-.09-22.07-1.86-3.63-.69-7.48-1.55-11.48-2.58-27.34-16.16-66.26-32.94-65.88-90.18s11.9-132.57,59.18-166.45c10.3,4.42,21.89,14.31,25.85,38.62,5.18,31.81,13.32,38.22,16.52,76.68,2.71,32.39,8.2,61.24,9,90.91C786.91,902.6,786.89,908.19,786.66,913.84Z" fill="none" stroke="#fff" stroke-linejoin="round" stroke-width="10"/>
      <path d="M609.38,901.55l14.38,5.2c22.88,8.26,67.68,24.33,93.78,33.15,5.25,1.77,9.74,3.25,13.15,4.31l1.43.44c3.41,1,6.75,2,10,2.81" fill="none" stroke="#fff" stroke-linejoin="round" stroke-width="10"/>
      <path d="M735.41,690.83a49.13,49.13,0,0,0-8.91-2.8c-11.34-2.49-21.7-4.68-57.7-6.37s-40.93-1.27-63.86,10.56S565,734.14,550.2,755.84s-20.21,44.38-22.93,78.9S547,879.12,558.34,885s51,16.52,51,16.52l-10.2,22.26" fill="none" stroke="#fff" stroke-linejoin="round" stroke-width="10"/>
      <line x1="612.96" y1="928.19" x2="623.75" y2="906.75" fill="none" stroke="#fff" stroke-linejoin="round" stroke-width="10"/>
      <line x1="704.89" y1="964.46" x2="717.81" y2="939.38" fill="none" stroke="#fff" stroke-linejoin="round" stroke-width="10"/>
      <line x1="720.18" y1="968.42" x2="732.12" y2="944.65" fill="none" stroke="#fff" stroke-linejoin="round" stroke-width="10"/>
      <path d="M1068.15,1048.52s-6.41,15.15-10.9,29.07" fill="none" stroke="#fff" stroke-linejoin="round" stroke-width="10"/>
      <path d="M1268.71,1134.38s8.19-42.59,4.28-49.93" fill="none" stroke="#fff" stroke-linejoin="round" stroke-width="10"/>
      <path d="M1333.68,1151.47c6.18-15.14,10.9-32.38,21.81-41.29" fill="none" stroke="#fff" stroke-linejoin="round" stroke-width="10"/>
      <line x1="1590.51" y1="1194.51" x2="1587.63" y2="1240.12" fill="none" stroke="#fff" stroke-linejoin="round" stroke-width="10"/>
      <path d="M482.52,682.82l-84.45,132.7a29.86,29.86,0,0,1-11.77,10.66l42.55-87.29-35.63-32-8.55,17L336.24,820l-45.74-13.2a12.58,12.58,0,0,1-6.57-19.65l100-133.06a29.93,29.93,0,0,1,33.75-10.28L476,664.18A12.58,12.58,0,0,1,482.52,682.82Z" fill="none" stroke="#fff" stroke-linejoin="round" stroke-width="2"/>
      <polyline points="431.39 730.02 440.91 723.67 446.4 727.71" fill="none" stroke="#fff" stroke-linejoin="round" stroke-width="2"/>
      <path d="M451.48,718.49,393.21,661s1,25.7,10.87,41.45" fill="none" stroke="#fff" stroke-linejoin="round" stroke-width="2"/>
      <path d="M428.85,738.89a32.26,32.26,0,0,1,10.91.4q3.38-5.76,6.64-11.58,2.58-4.59,5.08-9.22,6.21-11.44,12-23.12a5.53,5.53,0,0,0,.59-1.65,5,5,0,0,0-1.08-3.18c-3-4.57-7-8.38-11.07-12a189.19,189.19,0,0,0-45.63-29.15c-5.77,1.4-9.66,6.64-13,11.53-4.72,6.82-9.5,13.77-12.05,21.66A50.82,50.82,0,0,0,379,700.12a62.4,62.4,0,0,0,5.72,23.71c.09.22.19.43.29.64" fill="none" stroke="#fff" stroke-linejoin="round" stroke-width="2"/>
      <path d="M199.78,1091.12l-3.72-.78a15.17,15.17,0,0,0-17.67,10.58h0a15.18,15.18,0,0,0,6,16.79l6.14,4.18a15.17,15.17,0,0,0,5.23,2.27l41.8,9.35,12.34-9a13.16,13.16,0,0,0,.93-20.51h0" fill="none" stroke="#fff" stroke-linejoin="round" stroke-width="2"/>
      <path d="M194.16,1123.32a8.6,8.6,0,0,0,1.49,7.81,8.78,8.78,0,0,1,1.5,2c.79,1.94-.64,4-1.88,5.68-6.32,8.53-9.79,18.77-13.17,28.82a2.68,2.68,0,0,0,0,2.45,2.45,2.45,0,0,0,1.2.74,19.16,19.16,0,0,0,6.09,1.1" fill="none" stroke="#fff" stroke-linejoin="round" stroke-width="2"/>
      <path d="M189.36,1160.56c2.42-7,5-14.22,10.14-19.54a3.69,3.69,0,0,1,1.54-1.09,4,4,0,0,1,1.76,0l7.71,1.22a1.64,1.64,0,0,1,.76.26c.57.42.39,1.29.15,2l-3.79,10.73a12.67,12.67,0,0,1-1.69,3.56c-1.64,2.14-4.4,3-6.77,4.29a18.15,18.15,0,0,0-5.71,4.93c-.74,1-1.8,2.16-2.93,1.68a2.54,2.54,0,0,1-.87-.73C187.6,1165.5,188.21,1163.44,189.36,1160.56Z" fill="none" stroke="#fff" stroke-linejoin="round" stroke-width="2"/>
      <path d="M386.26,522.56c17-.08,23.56-.9,56.5,7.33s136.72,48.83,152.37,59,27,19,29.76,24.68" fill="none" stroke="#fff" stroke-linejoin="round" stroke-width="10"/>
      <path d="M73.93,344.47c.78,3.19,3.6,5.41,6.3,7.27a136.14,136.14,0,0,0,38.65,18.48c3.36,1,6.9,1.87,10.34,1.2,3.64-.72,6.7-3.05,9.91-4.9,16.05-9.22,36.14-6.25,54.1-1.74a397,397,0,0,1,93.25,36.42c4.94,2.69,10.58,7,9.44,12.53-.75,3.62-4.36,6.24-4.76,9.91-.5,4.56,4,7.93,7.91,10.28,12.09,7.24,25.13,14.69,39.21,14,2.84-.14,5.78-.66,8-2.39,4-3.06,4.61-8.82,4.18-13.83a54.57,54.57,0,0,0-19.78-37.27,94,94,0,0,0-15.43-9.67c-30.79-16.28-58.53-27-91.35-38.09-20.62-6.94-45.9-13.61-67.7-16.07a310.15,310.15,0,0,0-67.9.07C81.88,331.36,72,336.56,73.93,344.47Z" fill="none" stroke="#fff" stroke-linejoin="round"/>
      <path d="M1094.35,844.86c-15.53-6-35-15.82-53.49,14.63s-73.45,161.35-73.45,161.35c24.13,1.81,60,4.64,70.61-8.13s26.2-61,30.13-70.6" fill="none" stroke="#fff" stroke-linejoin="round"/>
      <path d="M1007.57,1022.25c11.29-4.93,25.48-22.67,34.35-55.31s28-91.24,29.09-98,5.6-15.53-18.49-23.72" fill="none" stroke="#fff" stroke-linejoin="round"/>
      <polyline points="-0.03 961.29 49.67 967.29 2.12 1041.17" fill="none" stroke="#fff" stroke-linejoin="round" stroke-width="10"/>
      <line x1="2.12" y1="986.68" x2="35.4" y2="989.46" fill="none" stroke="#fff" stroke-linejoin="round" stroke-width="10"/>
      <path d="M2.12,953c2.31,1.39,89,13.17,89,13.17" fill="none" stroke="#fff" stroke-linejoin="round" stroke-width="10"/>
      <polyline points="802.22 1153.31 873.4 1090.67 814.71 1083.92" fill="none" stroke="#fff" stroke-linejoin="round" stroke-width="10"/>
      <line x1="811.98" y1="1100.99" x2="856.27" y2="1105.74" fill="none" stroke="#fff" stroke-linejoin="round" stroke-width="10"/>
      <path d="M873.4,1090.67l18.31,2.5,10.72,3.85s28.74-29.19,69.16-44,96.56-4.49,96.56-4.49,9.39-23.47,24.68-27.68" fill="none" stroke="#fff" stroke-linejoin="round" stroke-width="10"/>
      <path d="M769.88,604.28l13-8.27a3.53,3.53,0,0,1,3.26-.3l11.47,4.67a310.57,310.57,0,0,1,58,31.17h0l-17.95,12.26-8.45-.95L770.08,610.4A3.56,3.56,0,0,1,769.88,604.28Z" fill="none" stroke="#fff" stroke-linejoin="round" stroke-width="10"/>
      <path d="M778.12,612.09h0a4.6,4.6,0,0,1,3.26-4.4l10.42-3.18a4.64,4.64,0,0,1,3.43.3l43.27,21.93a4.61,4.61,0,0,1,.41,8L834,637.89a4.58,4.58,0,0,1-2.49.73h-8.87a4.63,4.63,0,0,1-2.21-.57l-39.9-21.92A4.62,4.62,0,0,1,778.12,612.09Z" fill="none" stroke="#fff" stroke-linejoin="round" stroke-width="10"/>
      <path d="M840.32,657.69c-2.29.84-4.61,2.79-4.3,5.2.21,1.62,1.55,2.83,2.8,3.88,7.67,6.47,16.4,13.31,26.42,12.78,4.08-.22,8-1.67,11.9-2.76a71.24,71.24,0,0,1,64.64,14.56,8.83,8.83,0,0,1,2.28,2.63c1.75,3.51-1.36,7.57-4.75,9.55s-7.49,3.23-9.64,6.52a3.65,3.65,0,0,0-.7,1.84,4.76,4.76,0,0,0,1.66,3.24,50.32,50.32,0,0,0,11.5,9.15c3.22,1.86,6.83,3.39,10.54,3.14,4.09-.28,7.73-2.69,10.7-5.52A31,31,0,0,0,972.59,706a22.71,22.71,0,0,0-3.48-17.77c-2.57-3.54-6.23-6.12-9.9-8.51-27.71-18.09-60.92-29.39-94.27-27.57C855.89,652.66,848.66,654.62,840.32,657.69Z" fill="none" stroke="#fff" stroke-linejoin="round"/>
    </g>
    <path d="M1588.21,1232.3c4.6.44,8.93,2.26,13.2,4,35.39,14.71,72.06,28.4,108.56,40.1" fill="none" stroke="#fff" stroke-linejoin="round" stroke-width="10"/>
    <path d="M1702.34,1299.76a324.86,324.86,0,0,1,21.85-56.5,75.49,75.49,0,0,1,6.1-10.53,60.19,60.19,0,0,1,8.55-9.29c4.65-4.2,9.83-8,15.78-10,13-4.31,27,.67,39.8,5.6" fill="none" stroke="#fff" stroke-linejoin="round" stroke-width="10"/>
    <path d="M1646.58,1274.86c11.66,5.13,13.13,5.83,19.62,8.18a231.82,231.82,0,0,1,66.42,37.37c3.74,3,7.39,6.15,11.26,9,8.66,6.4,18.44,11.42,26,19.07" fill="none" stroke="#fff" stroke-linejoin="round" stroke-width="10"/>
  </g>
</svg>
