<svg width="359" height="120" viewBox="0 0 359 120" fill="none" xmlns="http://www.w3.org/2000/svg">
<path d="M99.2051 110.248C99.2051 110.248 97.4177 74.3351 70.8396 67.2935C70.8396 67.2935 64.3118 45.769 68.5689 38.0391" stroke="#15B257" stroke-miterlimit="10"/>
<path fill-rule="evenodd" clip-rule="evenodd" d="M322.675 49.583L346.248 51.1781C344.802 49.9796 325.095 34.5429 266.342 31.5354H262.094C262.094 31.5354 230.386 13.2791 211.424 5.97605C211.136 5.8803 210.846 5.78364 210.555 5.68626C201.006 2.49468 189.133 -1.47324 127.597 0.551569C80.6573 4.93322 45.7382 10.045 45.7382 10.045C45.7382 10.045 39.7286 12.1316 41.4901 13.9045C43.2515 15.6779 45.5311 15.6779 45.5311 15.6779L46.1528 18.5994C46.1528 18.5994 33.6145 25.4846 23.0457 36.7514C19.7299 38.3159 12.6841 42.3843 10.9226 44.2625C9.16064 46.1401 8.12439 49.5832 8.12439 49.5832L7.08856 49.8959C7.08856 49.8959 6.53159 50.4123 5.86969 51.5063C6.48538 52.1709 8.22058 52.9023 12.5083 53.3545C15.0494 56.033 14.0613 64.0442 11.6612 64.7364C10.119 65.1813 6.41086 65.0889 3.52887 64.2601C3.22992 68.3825 3.22852 75.2766 3.70636 76.8108C4.29083 78.6884 5.12006 80.0449 5.12006 80.0449L0.767426 84.7392C0.767426 84.7392 -6.17438 113.949 21.6984 115.827C21.6966 115.627 21.6945 115.421 21.6923 115.21C21.5728 103.62 21.2805 75.2463 55.1671 75.2463C89.6721 75.2463 90.7089 120 90.7089 120L264.27 118.018C264.27 118.018 263.441 69.9256 300.743 71.3858C338.046 72.8465 334.005 118.435 334.005 118.435C334.005 118.435 352.656 116.662 358.77 101.848C359.288 89.5383 358.77 88.9119 358.77 88.9119L357.837 86.5126L357.941 70.7599C357.941 70.7599 357.008 64.6061 351.112 56.7549C346.702 58.0454 342.795 57.391 337.43 56.4925L337.43 56.4925L337.43 56.4924L337.429 56.4923C336.069 56.2646 334.616 56.0211 333.036 55.7897C324.851 54.5901 322.675 49.583 322.675 49.583ZM152.866 6.49707L157.334 45.5364L73.403 44.0761C73.403 44.0761 65.9426 42.3027 68.9478 37.2952C71.9522 32.2876 94.2305 12.3622 94.2305 12.3622L152.866 6.49707ZM154 6.50039C154 6.50039 187.074 6.08017 196.711 7.54088C214.015 11.2734 230.594 16.6828 253.805 33.2367C257.224 36.5424 259.834 41.1381 259.834 41.1381V42.5L252.5 44L246 48.5L237 47.5L158.5 45.5L154 6.50039ZM185.83 55.7361L168.629 54.0674L163.241 54.9013L164.692 57.5095H185.415L185.83 55.7361ZM86.2746 53.1201L103.476 54.7888L103.061 56.5622H82.3375L80.8867 53.954L86.2746 53.1201Z" fill="white"/>
<path fill-rule="evenodd" clip-rule="evenodd" d="M251.94 39.9865C251.94 39.9865 246.241 34.3526 242.199 33.414C238.158 32.475 235.982 35.6049 235.982 35.6049C235.982 35.6049 232.874 46.1411 235.982 47.3934C239.091 48.6446 245.515 48.4362 245.515 48.4362C245.515 48.4362 251.318 46.3501 251.94 44.6809C252.561 43.0117 251.94 39.9865 251.94 39.9865Z" fill="white"/>
</svg>
