<svg width="375" height="205" viewBox="0 0 375 205" fill="none" xmlns="http://www.w3.org/2000/svg">
<mask id="mask0_2763_2303" style="mask-type:alpha" maskUnits="userSpaceOnUse" x="0" y="0" width="375" height="205">
<rect width="375" height="205" transform="matrix(-1 0 0 1 375 0)" fill="#C4C4C4"/>
</mask>
<g mask="url(#mask0_2763_2303)">
<path fill-rule="evenodd" clip-rule="evenodd" d="M353.333 87.5763L313.278 84.878C313.278 84.878 316.976 93.3482 330.884 95.3776C333.567 95.7692 336.037 96.181 338.348 96.5664L338.349 96.5665L338.349 96.5665C347.465 98.0865 354.104 99.1936 361.597 97.0104C371.616 110.292 373.2 120.702 373.2 120.702L373.024 147.351L374.609 151.409C374.609 151.409 375.489 152.469 374.609 173.293C364.221 198.353 332.529 201.353 332.529 201.353C332.529 201.353 339.397 124.232 276.012 121.761C212.63 119.291 214.038 200.647 214.038 200.647L-80.8706 204C-80.8706 204 -82.6323 128.292 -141.262 128.292C-198.841 128.292 -198.344 176.291 -198.141 195.897C-198.138 196.254 -198.134 196.602 -198.131 196.94C-245.491 193.764 -233.696 144.351 -233.696 144.351L-226.3 136.409C-226.3 136.409 -227.709 134.115 -228.702 130.938C-229.514 128.343 -229.512 116.681 -229.004 109.707C-224.107 111.109 -217.806 111.265 -215.185 110.513C-211.107 109.342 -209.428 95.7895 -213.746 91.2584C-221.032 90.4934 -223.981 89.2559 -225.026 88.1315C-223.902 86.2809 -222.955 85.4072 -222.955 85.4072L-221.195 84.8782C-221.195 84.8782 -219.435 79.0537 -216.441 75.8773C-213.448 72.7002 -201.476 65.8177 -195.841 63.1711C-177.883 44.1114 -156.579 32.4639 -156.579 32.4639L-157.635 27.5219C-157.635 27.5219 -161.509 27.5219 -164.502 24.5218C-167.495 21.5226 -157.283 17.9928 -157.283 17.9928C-157.283 17.9928 -97.95 9.34537 -18.1925 1.93307C86.3689 -1.49223 106.542 5.22016 122.768 10.6193C123.263 10.784 123.754 10.9475 124.244 11.1095C156.464 23.4638 210.34 54.3474 210.34 54.3474H217.559C317.39 59.435 350.875 85.5491 353.333 87.5763ZM32.3364 78.0324L24.7439 11.9909L-74.8868 21.9127C-74.8868 21.9127 -112.741 55.6199 -117.846 64.091C-122.953 72.5621 -110.276 75.5621 -110.276 75.5621L32.3364 78.0324ZM99.2437 13.7573C82.8696 11.2863 26.6711 11.9972 26.6711 11.9972L34.3174 77.9715L167.702 81.3548L182.994 83.0465L194.039 75.434L206.5 72.8965V70.5927C206.5 70.5927 202.066 62.8182 196.256 57.2261C156.817 29.2224 128.647 20.0716 99.2437 13.7573ZM48.1649 102.556L68.8413 104.548L68.3429 106.665H43.4323L41.6883 103.551L48.1649 102.556Z" fill="white"/>
<path fill-rule="evenodd" clip-rule="evenodd" d="M193.086 68.6433C193.086 68.6433 183.403 59.1126 176.536 57.5249C169.67 55.9363 165.972 61.231 165.972 61.231C165.972 61.231 160.69 79.0548 165.972 81.1732C171.254 83.29 182.17 82.9373 182.17 82.9373C182.17 82.9373 192.03 79.4083 193.086 76.5846C194.143 73.7609 193.086 68.6433 193.086 68.6433Z" fill="white"/>
</g>
</svg>
