<svg width="272" height="205" viewBox="0 0 272 205" fill="none" xmlns="http://www.w3.org/2000/svg">
<mask id="mask0_839_113" style="mask-type:alpha" maskUnits="userSpaceOnUse" x="0" y="0" width="272" height="205">
<path d="M0 0H272V205H0V0Z" fill="#C4C4C4"/>
</mask>
<g mask="url(#mask0_839_113)">
<path fill-rule="evenodd" clip-rule="evenodd" d="M549.278 84.878L589.333 87.5763C586.875 85.5491 553.39 59.435 453.559 54.3474H446.34C446.34 54.3474 392.464 23.4638 360.244 11.1095C359.754 10.9475 359.263 10.784 358.768 10.6193C342.542 5.22016 322.369 -1.49223 217.808 1.93307C138.05 9.34537 78.7167 17.9928 78.7167 17.9928C78.7167 17.9928 68.5054 21.5226 71.4984 24.5218C74.4914 27.5219 78.3649 27.5219 78.3649 27.5219L79.4211 32.4639C79.4211 32.4639 58.1166 44.1114 40.1585 63.1711C34.5243 65.8177 22.5522 72.7002 19.5593 75.8773C16.5654 79.0537 14.8047 84.8782 14.8047 84.8782L13.0446 85.4072C13.0446 85.4072 12.0983 86.2809 10.9736 88.1315C12.0195 89.2559 14.9677 90.4934 22.2538 91.2584C26.5717 95.7895 24.8928 109.342 20.8146 110.513C18.1942 111.265 11.8931 111.109 6.9961 109.707C6.48817 116.681 6.48579 128.343 7.29768 130.938C8.29084 134.115 9.69984 136.409 9.69984 136.409L2.30397 144.351C2.30397 144.351 -9.49132 193.764 37.8692 196.94C37.866 196.602 37.8624 196.254 37.8587 195.897C37.6558 176.291 37.159 128.292 94.738 128.292C153.368 128.292 155.129 204 155.129 204L450.038 200.647C450.038 200.647 448.63 119.291 512.012 121.761C575.397 124.232 568.529 201.353 568.529 201.353C568.529 201.353 600.221 198.353 610.609 173.293C611.489 152.469 610.609 151.409 610.609 151.409L609.024 147.351L609.2 120.702C609.2 120.702 607.616 110.292 597.597 97.0104C590.104 99.1936 583.465 98.0865 574.349 96.5665L574.348 96.5664C572.037 96.181 569.567 95.7692 566.884 95.3776C552.976 93.3482 549.278 84.878 549.278 84.878ZM260.744 11.9909L268.336 78.0324L125.724 75.5621C125.724 75.5621 113.047 72.5621 118.154 64.091C123.259 55.6199 161.113 21.9127 161.113 21.9127L260.744 11.9909ZM262.671 11.9972C262.671 11.9972 318.87 11.2863 335.244 13.7573C364.647 20.0716 392.817 29.2224 432.256 57.2261C438.066 62.8182 442.5 70.5927 442.5 70.5927V72.8965L430.039 75.434L418.994 83.0465L403.702 81.3548L270.317 77.9715L262.671 11.9972ZM304.841 104.548L284.165 102.556L277.688 103.551L279.432 106.665H304.343L304.841 104.548ZM144.165 102.556L164.841 104.548L164.343 106.665H139.432L137.688 103.551L144.165 102.556Z" fill="white"/>
</g>
</svg>
