<svg width="375" height="203" viewBox="0 0 375 203" fill="none" xmlns="http://www.w3.org/2000/svg">
<path fill-rule="evenodd" clip-rule="evenodd" d="M21.667 86.5763L61.7216 83.878C61.7216 83.878 58.0242 92.3482 44.1162 94.3776C41.4328 94.7692 38.9627 95.181 36.6518 95.5664L36.6511 95.5665L36.6507 95.5665C27.5352 97.0865 20.8962 98.1936 13.4032 96.0104C3.38445 109.292 1.79988 119.702 1.79988 119.702L1.9758 146.351L0.39093 150.409C0.39093 150.409 -0.488663 151.469 0.39093 172.293C10.7789 197.353 42.4707 200.353 42.4707 200.353C42.4707 200.353 35.6034 123.232 98.9877 120.761C162.37 118.291 160.962 199.647 160.962 199.647L455.871 203C455.871 203 457.632 127.292 516.262 127.292C573.841 127.292 573.344 175.291 573.141 194.897C573.138 195.254 573.134 195.602 573.131 195.94C620.491 192.764 608.696 143.351 608.696 143.351L601.3 135.409C601.3 135.409 602.709 133.115 603.702 129.938C604.514 127.343 604.512 115.681 604.004 108.707C599.107 110.109 592.806 110.265 590.185 109.513C586.107 108.342 584.428 94.7895 588.746 90.2584C596.032 89.4934 598.981 88.2559 600.026 87.1315C598.902 85.2809 597.955 84.4072 597.955 84.4072L596.195 83.8782C596.195 83.8782 594.435 78.0537 591.441 74.8773C588.448 71.7002 576.476 64.8177 570.841 62.1711C552.883 43.1114 531.579 31.4639 531.579 31.4639L532.635 26.5219C532.635 26.5219 536.509 26.5219 539.502 23.5218C542.495 20.5226 532.283 16.9928 532.283 16.9928C532.283 16.9928 472.95 8.34537 393.192 0.933071C288.631 -2.49223 268.458 4.22016 252.232 9.61926C251.737 9.784 251.246 9.94751 250.756 10.1095C218.536 22.4638 164.66 53.3474 164.66 53.3474H157.441C57.6096 58.435 24.1248 84.5491 21.667 86.5763ZM342.664 77.0324L350.256 10.9909L449.887 20.9127C449.887 20.9127 487.741 54.6199 492.846 63.091C497.953 71.5621 485.276 74.5621 485.276 74.5621L342.664 77.0324ZM275.756 12.7573C292.13 10.2863 348.329 10.9972 348.329 10.9972L340.683 76.9715L207.298 80.3548L192.006 82.0465L180.961 74.434L168.5 71.8965V69.5927C168.5 69.5927 172.934 61.8182 178.744 56.2261C218.183 28.2224 246.353 19.0716 275.756 12.7573ZM326.835 101.556L306.159 103.548L306.657 105.665H331.568L333.312 102.551L326.835 101.556Z" fill="white"/>
<path fill-rule="evenodd" clip-rule="evenodd" d="M181.914 67.6433C181.914 67.6433 191.597 58.1126 198.464 56.5249C205.33 54.9363 209.028 60.231 209.028 60.231C209.028 60.231 214.31 78.0548 209.028 80.1732C203.746 82.29 192.83 81.9373 192.83 81.9373C192.83 81.9373 182.97 78.4083 181.914 75.5846C180.857 72.7609 181.914 67.6433 181.914 67.6433Z" fill="white"/>
</svg>
