<svg width="272" height="205" viewBox="0 0 272 205" fill="none" xmlns="http://www.w3.org/2000/svg">
<mask id="mask0_839_113" style="mask-type:alpha" maskUnits="userSpaceOnUse" x="0" y="0" width="272" height="205">
<path d="M272 0H0V205H272V0Z" fill="#C4C4C4"/>
</mask>
<g mask="url(#mask0_839_113)">
<path fill-rule="evenodd" clip-rule="evenodd" d="M-277.278 84.878L-317.333 87.5763C-314.875 85.5491 -281.39 59.435 -181.559 54.3474H-174.34C-174.34 54.3474 -120.464 23.4638 -88.244 11.1095C-87.754 10.9475 -87.263 10.784 -86.768 10.6193C-70.542 5.22016 -50.369 -1.49223 54.192 1.93307C133.95 9.34537 193.283 17.9928 193.283 17.9928C193.283 17.9928 203.495 21.5226 200.502 24.5218C197.509 27.5219 193.635 27.5219 193.635 27.5219L192.579 32.4639C192.579 32.4639 213.883 44.1114 231.841 63.1711C237.476 65.8177 249.448 72.7002 252.441 75.8773C255.435 79.0537 257.195 84.8782 257.195 84.8782L258.955 85.4072C258.955 85.4072 259.902 86.2809 261.026 88.1315C259.98 89.2559 257.032 90.4934 249.746 91.2584C245.428 95.7895 247.107 109.342 251.185 110.513C253.806 111.265 260.107 111.109 265.004 109.707C265.512 116.681 265.514 128.343 264.702 130.938C263.709 134.115 262.3 136.409 262.3 136.409L269.696 144.351C269.696 144.351 281.491 193.764 234.131 196.94C234.134 196.602 234.138 196.254 234.141 195.897C234.344 176.291 234.841 128.292 177.262 128.292C118.632 128.292 116.871 204 116.871 204L-178.038 200.647C-178.038 200.647 -176.63 119.291 -240.012 121.761C-303.397 124.232 -296.529 201.353 -296.529 201.353C-296.529 201.353 -328.221 198.353 -338.609 173.293C-339.489 152.469 -338.609 151.409 -338.609 151.409L-337.024 147.351L-337.2 120.702C-337.2 120.702 -335.616 110.292 -325.597 97.0104C-318.104 99.1936 -311.465 98.0865 -302.349 96.5665L-302.348 96.5664C-300.037 96.181 -297.567 95.7692 -294.884 95.3776C-280.976 93.3482 -277.278 84.878 -277.278 84.878ZM11.256 11.9909L3.664 78.0324L146.276 75.5621C146.276 75.5621 158.953 72.5621 153.846 64.091C148.741 55.6199 110.887 21.9127 110.887 21.9127L11.256 11.9909ZM9.32901 11.9972C9.32901 11.9972 -46.87 11.2863 -63.244 13.7573C-92.647 20.0716 -120.817 29.2224 -160.256 57.2261C-166.066 62.8182 -170.5 70.5927 -170.5 70.5927V72.8965L-158.039 75.434L-146.994 83.0465L-131.702 81.3548L1.68301 77.9715L9.32901 11.9972ZM-32.841 104.548L-12.165 102.556L-5.68799 103.551L-7.43201 106.665H-32.343L-32.841 104.548ZM127.835 102.556L107.159 104.548L107.657 106.665H132.568L134.312 103.551L127.835 102.556Z" fill="white"/>
</g>
</svg>
