<svg width="359" height="120" viewBox="0 0 359 120" fill="none" xmlns="http://www.w3.org/2000/svg">
<path fill-rule="evenodd" clip-rule="evenodd" d="M36.3248 49.583L12.7516 51.1781C14.1982 49.9796 33.905 34.5429 92.6577 31.5354H96.9063C96.9063 31.5354 128.614 13.2791 147.576 5.97605C147.864 5.8803 148.154 5.78364 148.445 5.68626C157.994 2.49468 169.867 -1.47324 231.403 0.551569C278.343 4.93322 313.262 10.045 313.262 10.045C313.262 10.045 319.271 12.1316 317.51 13.9045C315.748 15.6779 313.469 15.6779 313.469 15.6779L312.847 18.5994C312.847 18.5994 325.385 25.4846 335.954 36.7514C339.27 38.3159 346.316 42.3843 348.077 44.2625C349.839 46.1401 350.876 49.5832 350.876 49.5832L351.911 49.8959C351.911 49.8959 352.468 50.4123 353.13 51.5063C352.515 52.1709 350.779 52.9023 346.492 53.3545C343.951 56.033 344.939 64.0442 347.339 64.7364C348.881 65.1813 352.589 65.0889 355.471 64.2601C355.77 68.3825 355.771 75.2766 355.294 76.8108C354.709 78.6884 353.88 80.0449 353.88 80.0449L358.233 84.7392C358.233 84.7392 365.174 113.949 337.302 115.827C337.303 115.627 337.306 115.421 337.308 115.21C337.427 103.62 337.72 75.2463 303.833 75.2463C269.328 75.2463 268.291 120 268.291 120L94.7303 118.018C94.7303 118.018 95.559 69.9256 58.2567 71.3858C20.9535 72.8465 24.995 118.435 24.995 118.435C24.995 118.435 6.34366 116.662 0.230072 101.848C-0.28759 89.5383 0.230072 88.9119 0.230072 88.9119L1.16281 86.5126L1.05927 70.7599C1.05927 70.7599 1.99184 64.6061 7.88814 56.7549C12.2979 58.0454 16.2052 57.391 21.5699 56.4925L21.57 56.4925L21.5702 56.4925C22.9303 56.2647 24.3841 56.0212 25.9635 55.7897C34.1487 54.5901 36.3248 49.583 36.3248 49.583ZM206.134 6.49707L201.666 45.5364L285.597 44.0761C285.597 44.0761 293.057 42.3027 290.052 37.2952C287.048 32.2876 264.77 12.3622 264.77 12.3622L206.134 6.49707ZM205 6.50039C205 6.50039 171.926 6.08017 162.289 7.54088C144.985 11.2734 128.406 16.6828 105.195 33.2367C101.776 36.5424 99.1659 41.1381 99.1659 41.1381V42.5L106.5 44L113 48.5L122 47.5L200.5 45.5L205 6.50039ZM173.17 55.7361L190.371 54.0674L195.759 54.9013L194.308 57.5095H173.585L173.17 55.7361ZM272.725 53.1201L255.524 54.7888L255.939 56.5622H276.662L278.113 53.954L272.725 53.1201Z" fill="white"/>
<path fill-rule="evenodd" clip-rule="evenodd" d="M107.06 39.9865C107.06 39.9865 112.759 34.3526 116.801 33.414C120.842 32.475 123.018 35.6049 123.018 35.6049C123.018 35.6049 126.126 46.1411 123.018 47.3934C119.909 48.6446 113.485 48.4362 113.485 48.4362C113.485 48.4362 107.682 46.3501 107.06 44.6809C106.439 43.0117 107.06 39.9865 107.06 39.9865Z" fill="white"/>
</svg>
