<?xml version="1.0" encoding="UTF-8"?>
<svg id="Calque_2" data-name="Calque 2" xmlns="http://www.w3.org/2000/svg" viewBox="0 0 622.2 622.2">
  <defs>
    <style>
      .cls-1 {
        fill: #98eaa9;
        stroke: #176d25;
        stroke-miterlimit: 10;
        stroke-width: 4px;
      }
    </style>
  </defs>
  <g id="Calque_5" data-name="Calque 5">
    <path class="cls-1" d="m311.1,2C140.39,2,2,140.39,2,311.1s138.39,309.1,309.1,309.1,309.1-138.39,309.1-309.1S481.81,2,311.1,2Zm220.64,263.22c-3.47-.21-15.62-2.17-21.47-4.34-5.86-2.16-13.45-.43-10.63,12.58,2.82,13.02,6.72,38.93,7.59,44.63.87,5.69-1.95,6.13,6.72,13.94,8.68,7.8,19.31,16.05,22.78,19.08,3.47,3.04,13.88,10.85,11.71,36.44-2.17,25.6-33.84,69.84-36.87,74.83-1.6,2.62-18.08,21.97-35.79,37.96-15.99,14.44-33.02,25.57-40.13,29.28-14.96,7.81-17.78,10.19-24.94,11.71s-33.18,5.21-41.64-18.87c-8.46-24.07-7.16-22.99-8.03-32.1-.86-9.11-8.89-6.72-13.88-6.72s-36.06-.22-36.06-.22c0,0-31.07.22-36.06.22s-13.01-2.39-13.88,6.72c-.87,9.11.44,8.03-8.02,32.1-8.46,24.08-34.49,20.39-41.65,18.87-7.16-1.52-9.97-3.9-24.94-11.71-7.1-3.71-24.14-14.84-40.13-29.28-17.7-15.99-34.19-35.34-35.78-37.96-3.04-4.99-34.71-49.23-36.88-74.83-2.17-25.59,8.25-33.4,11.72-36.44,3.47-3.03,14.09-11.28,22.77-19.08,8.68-7.81,5.86-8.25,6.72-13.94.87-5.7,4.78-31.61,7.6-44.63,2.81-13.01-4.78-14.74-10.63-12.58-5.86,2.17-18.01,4.13-21.48,4.34-3.47.22-18,1.95-23.64-16.48-5.64-18.44,4.77-31.23,19.31-44.47,14.53-13.23,27.76-26.24,31.45-33.83,3.68-7.59,10.19-26.25,14.53-33.4,4.34-7.16,9.11-9.33,19.3-18.44,10.2-9.11,35.57-25.59,57.48-36.22,21.91-10.63,56.38-20.71,102.21-20.71s80.31,10.08,102.21,20.71c21.91,10.63,47.29,27.11,57.48,36.22,10.2,9.11,14.97,11.28,19.31,18.44,4.33,7.15,10.84,25.81,14.53,33.4,3.68,7.59,16.92,20.6,31.45,33.83,14.53,13.24,24.94,26.03,19.3,44.47-5.64,18.43-20.17,16.7-23.64,16.48Z"/>
    <path class="cls-1" d="m480.46,265.08c-3.81-10.58-5.71-18.21-24.77-24.35-19.05-6.13-66.69-23.49-144.59-23.49s-125.54,17.36-144.59,23.49c-19.05,6.14-20.96,13.77-24.77,24.35s-6.14,29-9.95,57.79c26.25,5.08,70.29,19.48,100.77,60.55,30.48,41.07,31.54,69.22,33.66,84.47,9.74-.64,44.88-1.06,44.88-1.06,0,0,35.15.42,44.88,1.06,2.12-15.25,3.18-43.4,33.66-84.47,30.49-41.07,74.52-55.47,100.77-60.55-3.81-28.79-6.14-47.21-9.95-57.79Zm-169.36,88.43c-23.42,0-42.41-18.99-42.41-42.41s18.99-42.41,42.41-42.41,42.41,18.99,42.41,42.41-18.99,42.41-42.41,42.41Z"/>
  </g>
</svg>