<svg width="230" height="299" viewBox="0 0 230 299" fill="none" xmlns="http://www.w3.org/2000/svg">
<path fill-rule="evenodd" clip-rule="evenodd" d="M86.0068 18.8213C91.0093 7.50732 102.241 0 115 0C127.759 0 138.991 7.50732 143.995 18.8252H170.727C174.656 18.8252 177.844 22.0142 177.844 25.9458V31.707H210.483C221.245 31.7026 230 40.459 229.997 51.2251V279.478C229.997 290.243 221.243 299 210.479 299H19.519C8.75781 299 0.00195312 290.243 0.00195312 279.478L0 51.2251C0 40.4595 8.75342 31.7031 19.5171 31.7031H52.1558L52.1582 25.9419C52.1582 22.0107 55.3418 18.8213 59.2759 18.8213H86.0068ZM176.765 111.654H118.188C114.259 111.654 111.071 114.843 111.071 118.774C111.071 122.706 114.254 125.895 118.188 125.895H176.765C180.694 125.895 183.882 122.706 183.882 118.774C183.882 114.839 180.699 111.654 176.765 111.654ZM80.3872 102.248L60.6162 120.196L55.2036 114.781C52.4238 112 47.9204 112 45.1387 114.781C42.3594 117.562 42.3594 122.066 45.1387 124.85L55.3477 135.062C56.7344 136.449 58.5552 137.146 60.3823 137.146C62.0933 137.146 63.8047 136.533 65.1655 135.299L89.9575 112.794C92.8682 110.151 93.0874 105.648 90.4458 102.738C87.7949 99.8242 83.2954 99.605 80.3872 102.248ZM80.3872 161.231L60.6162 179.179L55.2036 173.764C52.4238 170.983 47.9204 170.983 45.1387 173.764C42.3594 176.545 42.3594 181.05 45.1387 183.833L55.3477 194.045C56.7344 195.433 58.5552 196.129 60.3823 196.129C62.0933 196.129 63.8047 195.517 65.1655 194.282L89.9575 171.772C92.8682 169.13 93.0874 164.627 90.4458 161.717C87.7949 158.81 83.2954 158.592 80.3872 161.231ZM80.3872 220.219L60.6162 238.167L55.2036 232.753C52.4238 229.972 47.9204 229.972 45.1387 232.753C42.3594 235.533 42.3594 240.039 45.1387 242.821L55.3477 253.03C56.7344 254.417 58.5552 255.113 60.3823 255.113C62.0933 255.113 63.8047 254.5 65.1655 253.266L89.9575 230.761C92.8682 228.118 93.0874 223.616 90.4458 220.706C87.7949 217.793 83.2954 217.577 80.3872 220.219ZM66.3892 56.4722H163.606V33.0625H138.917C135.63 33.0625 132.769 30.811 132 27.6133C130.102 19.7378 123.111 14.2393 114.998 14.2393C106.884 14.2393 99.8945 19.7402 97.9956 27.6108C97.2261 30.8086 94.3647 33.0601 91.0781 33.0601H66.3892V56.4722ZM176.768 229.623H118.192C114.263 229.623 111.075 232.812 111.075 236.743C111.075 240.674 114.258 243.863 118.192 243.863H176.768C180.698 243.863 183.886 240.674 183.886 236.743C183.886 232.812 180.702 229.623 176.768 229.623ZM176.769 170.5H118.192C114.263 170.5 111.075 173.689 111.075 177.621C111.075 181.552 114.258 184.741 118.192 184.741H176.769C180.698 184.741 183.886 181.552 183.886 177.621C183.886 173.689 180.703 170.5 176.769 170.5Z" fill="white"/>
</svg>
