<svg width="267" height="296" viewBox="0 0 160 160" fill="#FFFFFF" xmlns="http://www.w3.org/2000/svg">
<path d="M61.3018 85.4373C61.3053 85.4339 61.311 85.4339 61.3144 85.4282C61.271 85.2786 61.239 85.1222 61.1956 84.9749C61.1899 84.9714 61.1831 84.968 61.1705 84.9646L37.5613 74.248C37.309 76.1331 37.1309 78.0431 37.1309 79.9992C37.1309 90.13 40.6816 99.4307 46.5745 106.774L61.3018 85.4373Z" fill="#FFFFFF"/>
<path d="M79.8184 99.4632C79.2235 99.453 78.6366 99.429 78.0578 99.373L59.7256 117.756C65.7643 121.015 72.6732 122.871 80.0009 122.871C85.6664 122.871 91.0668 121.739 96.0199 119.734L79.8194 99.4704C79.8183 99.467 79.8183 99.4635 79.8183 99.4635L79.8184 99.4632Z" fill="
#FFFFFF"/>
<path d="M67.8467 79.9998C67.8467 86.7032 73.3008 92.155 79.9984 92.155C86.6971 92.155 92.1501 86.7032 92.1501 79.9998C92.1501 73.3034 86.6983 67.8516 79.9984 67.8516C73.2985 67.8504 67.8467 73.3022 67.8467 79.9998Z" fill="FFFFFF"/>
<path d="M68.3964 64.4062C68.6305 64.2281 68.8588 64.0397 69.1055 63.8741V63.865L71.4381 37.9961C59.4565 40.4349 49.3175 47.9088 43.2285 58.0785L68.3588 64.3958C68.3691 64.3947 68.3816 64.4015 68.3965 64.4061L68.3964 64.4062Z" fill="#FFFFFF"/>
<path d="M97.9873 87.4363C97.9873 87.4397 97.9907 87.4397 97.9942 87.4466L110.308 110.288C118.064 102.523 122.866 91.8137 122.866 79.9984C122.866 78.6854 122.788 77.3917 122.672 76.1074L98.5925 85.7805C98.4155 86.3502 98.2122 86.8971 97.9873 87.4361L97.9873 87.4363Z" fill="#FFFFFF"/>
<path d="M90.8937 63.8738C91.3755 64.1981 91.8414 64.552 92.2935 64.9208C92.2992 64.9208 92.3038 64.9139 92.3118 64.9139L117.746 59.6995C111.797 48.6918 101.181 40.5623 88.5635 37.9922L90.895 63.8611C90.8938 63.8645 90.8938 63.8679 90.8938 63.8737L90.8937 63.8738Z" fill="#FFFFFF"/>
<path d="M80 159.497H79.5V159.498C35.8899 159.229 0.5 123.667 0.5 80C0.5 36.1636 36.1607 0.5 80 0.5C123.833 0.5 159.498 36.1636 159.5 79.9971C159.5 123.833 123.836 159.497 80 159.497ZM130.686 79.9971C130.686 52.0486 107.949 29.3137 80 29.3137C52.0503 29.3137 29.3154 52.0521 29.3166 80C29.3166 107.946 52.0521 130.686 80 130.686C107.946 130.686 130.686 107.947 130.686 79.9971Z" fill="#FFFFFF" stroke="#FFFFFF"/>
</svg>
