<svg width="361" height="379" viewBox="0 0 361 379" fill="none" xmlns="http://www.w3.org/2000/svg">
<path fill-rule="evenodd" clip-rule="evenodd" d="M351.604 205.1L344.804 191.9C344.204 190.4 332.904 176.5 331.604 175.5L306.304 151.8C306.164 151.626 306.013 151.452 305.858 151.273C305.567 150.939 305.264 150.591 305.004 150.2L259.704 86C258.304 84 256.204 82.8 253.804 82.6L180.204 77H180.104H180.004L106.304 82.5C104.004 82.7 101.804 84 100.404 85.9L55.0036 150.1C54.6036 150.7 54.1036 151.2 53.6036 151.7L28.3036 175.4C27.1036 176.5 15.8036 190.4 15.3036 191.9L8.50365 205.1C7.90365 206.6 -0.196358 252.3 0.00364259 253.9L7.90365 339.6C8.20365 343.4 18.3036 356.9 21.8036 358.3L80.0036 378C80.6036 378.3 83.9036 376.8 86.8036 375.4C87.3429 375.166 87.8711 374.931 88.3703 374.71C90.0004 373.986 91.3209 373.4 91.7036 373.4H180.004H268.204C268.678 373.4 270.03 374.026 271.663 374.783C272.094 374.983 272.544 375.191 273.004 375.4C273.307 375.536 273.617 375.676 273.927 375.816C276.585 377.014 279.367 378.269 279.904 378L338.204 358.3C341.604 356.9 351.704 343.4 352.104 339.6L360.004 253.9C360.204 252.3 352.104 206.5 351.604 205.1ZM21.1036 222.2L83.3036 244.3C83.3036 244.3 93.4036 247.8 90.0036 256.5L90.0035 256.501C89.7035 257.4 89.4036 258.3 89.0036 259.3C85.8036 268.3 81.0036 281.7 66.7036 279.4L66.2002 279.318C50.0027 276.67 12.0849 270.473 10.3036 258.4C8.40365 246.3 12.1036 222.6 15.4036 221.5H15.5036C15.5216 221.496 15.541 221.492 15.5618 221.488C16.121 221.373 17.7293 221.043 21.1036 222.2ZM276.604 244.4L338.804 222.3C342.304 221 344.004 221.4 344.404 221.6H344.504C347.704 222.7 351.404 246.3 349.604 258.5C347.704 270.7 309.104 277 293.204 279.5C278.904 281.8 274.104 268.4 270.904 259.4C270.73 258.82 270.522 258.274 270.32 257.742C270.173 257.356 270.03 256.978 269.904 256.6C266.604 247.9 276.604 244.4 276.604 244.4ZM181.092 259.2C180.948 259.2 180.818 259.2 180.704 259.2H180.304C180.198 259.2 180.038 259.2 179.827 259.199C172.458 259.181 102.792 259.012 95.4036 269.9C87.6036 281.3 79.1036 304.7 82.0036 313.2C84.9036 321.7 86.9036 327.1 105.604 327.8C118.412 328.319 150.395 328.09 169.336 327.953C172.281 327.932 174.91 327.913 177.104 327.9H180.204C181.065 327.906 182.058 327.914 183.167 327.923C199.317 328.047 240.026 328.361 254.904 327.8C273.604 327.1 275.604 321.7 278.504 313.2C281.404 304.7 272.904 281.3 265.104 269.9C257.918 259.171 190.176 259.196 181.092 259.2ZM62.0039 151.5H297.504L255.699 91.8458C253.992 89.4096 251.288 87.86 248.323 87.6179L179.504 82L111.181 87.6156C108.218 87.8591 105.517 89.4084 103.811 91.843L62.0039 151.5Z" fill="white"/>
<path fill-rule="evenodd" clip-rule="evenodd" d="M15 12C15 5.37258 20.3726 0 27 0H334C340.627 0 346 5.37258 346 12V60C346 66.6274 340.627 72 334 72H245V103L208.188 72H27C20.3726 72 15 66.6274 15 60V12ZM45.852 42.912V44.984H33.028V43.136C39.748 37.844 43.388 34.736 43.388 31.516C43.388 29.136 41.428 28.1 39.496 28.1C37.256 28.1 35.52 29.052 34.428 30.452L33 28.968C34.428 27.092 36.864 26.028 39.496 26.028C42.604 26.028 45.768 27.792 45.768 31.516C45.768 35.324 41.904 38.796 36.696 42.912H45.852ZM65.7289 26.308V44.984H63.4049V36.416H52.4849V44.984H50.1609V26.308H52.4849V34.344H63.4049V26.308H65.7289ZM82.2465 42.912V44.984H69.4225V43.136C76.1425 37.844 79.7825 34.736 79.7825 31.516C79.7825 29.136 77.8225 28.1 75.8905 28.1C73.6505 28.1 71.9145 29.052 70.8225 30.452L69.3945 28.968C70.8225 27.092 73.2585 26.028 75.8905 26.028C78.9985 26.028 82.1625 27.792 82.1625 31.516C82.1625 35.324 78.2985 38.796 73.0905 42.912H82.2465ZM95.0115 35.38L102.263 44.984H99.4635L93.4995 37.032L87.5355 44.984H84.7075L91.9875 35.408L85.1275 26.308H87.9555L93.4995 33.784L99.0155 26.308H101.843L95.0115 35.38ZM113.277 26.308L120.809 44.984H118.149L116.497 40.84H107.201L105.549 44.984H102.889L110.393 26.308H113.277ZM107.873 38.768H115.797L111.849 28.716L107.873 38.768ZM136.131 39.16C136.131 42.968 133.247 45.32 129.495 45.32C126.331 45.32 124.315 44.172 122.915 42.324L124.343 40.784C125.575 42.352 127.199 43.248 129.495 43.248C132.043 43.248 133.807 41.512 133.807 39.244C133.807 36.78 132.043 35.212 129.523 35.212C127.871 35.212 126.471 35.744 125.211 36.976L123.503 36.388V26.308H134.927V28.38H125.827V34.876C126.723 33.98 128.319 33.196 130.195 33.196C133.303 33.196 136.131 35.324 136.131 39.16ZM152.702 35.66C152.702 40.7 150.35 45.292 145.114 45.292C142.734 45.292 141.11 44.396 139.934 43.052L141.11 41.316C142.062 42.436 143.182 43.22 145.114 43.22C148.894 43.22 150.378 39.44 150.378 35.912C150.378 35.66 150.378 35.408 150.35 35.156C149.538 36.444 147.466 38.068 145.086 38.068C141.726 38.068 138.954 36.08 138.954 32.104C138.954 28.884 141.418 26 145.478 26C150.714 26 152.702 30.564 152.702 35.66ZM141.306 32.02C141.306 34.764 143.21 36.052 145.618 36.052C147.466 36.052 149.286 34.932 150.266 33.28C150.07 30.956 148.838 28.072 145.59 28.072C142.734 28.072 141.306 30.256 141.306 32.02ZM170.225 39.944C170.225 42.94 168.237 44.984 164.821 44.984H156.309V26.308H164.625C167.873 26.308 169.861 28.268 169.861 31.068C169.861 33.42 168.293 34.988 166.585 35.352C168.573 35.66 170.225 37.704 170.225 39.944ZM158.633 34.4H164.233C166.333 34.4 167.453 33.112 167.453 31.404C167.453 29.724 166.333 28.38 164.233 28.38H158.633V34.4ZM158.633 42.912H164.345C166.529 42.912 167.817 41.68 167.817 39.692C167.817 37.984 166.641 36.472 164.345 36.472H158.633V42.912ZM195.765 26.308L190.445 44.984H187.925L183.809 29.92L179.693 44.984H177.173L171.853 26.308H174.429L178.573 41.876L182.857 26.308H184.789L189.073 41.876L193.189 26.308H195.765ZM214.324 35.66C214.324 40.98 210.544 44.984 204.748 44.984H198.364V26.308H204.748C210.544 26.308 214.324 30.368 214.324 35.66ZM200.688 42.912H204.748C209.284 42.912 211.916 39.664 211.916 35.66C211.916 31.628 209.368 28.38 204.748 28.38H200.688V42.912ZM224.604 37.088V44.984H222.28V37.088L214.916 26.308H217.632L223.428 34.988L229.224 26.308H231.94L224.604 37.088ZM247.312 35.66C247.312 40.7 244.96 45.292 239.724 45.292C237.344 45.292 235.72 44.396 234.544 43.052L235.72 41.316C236.672 42.436 237.792 43.22 239.724 43.22C243.504 43.22 244.988 39.44 244.988 35.912C244.988 35.66 244.988 35.408 244.96 35.156C244.148 36.444 242.076 38.068 239.696 38.068C236.336 38.068 233.564 36.08 233.564 32.104C233.564 28.884 236.028 26 240.088 26C245.324 26 247.312 30.564 247.312 35.66ZM235.916 32.02C235.916 34.764 237.82 36.052 240.228 36.052C242.076 36.052 243.896 34.932 244.876 33.28C244.68 30.956 243.448 28.072 240.2 28.072C237.344 28.072 235.916 30.256 235.916 32.02ZM263.575 40.252C263.575 43.416 260.551 45.32 256.883 45.32C253.187 45.32 250.191 43.444 250.191 40.252C250.191 37.76 252.319 36.052 254.643 35.352C252.487 34.736 250.499 33.336 250.499 30.872C250.499 27.512 253.775 26.028 256.883 26.028C259.963 26.028 263.295 27.512 263.295 30.872C263.295 33.336 261.279 34.736 259.123 35.352C261.447 36.052 263.575 37.76 263.575 40.252ZM252.823 31.18C252.823 33.448 255.763 34.204 256.883 34.4C258.031 34.204 260.943 33.448 260.943 31.18C260.943 29.248 259.123 28.1 256.883 28.1C254.615 28.1 252.823 29.248 252.823 31.18ZM252.515 40C252.515 42.016 254.559 43.248 256.883 43.248C259.179 43.248 261.223 42.016 261.223 40C261.223 37.564 258.031 36.528 256.883 36.388C255.735 36.528 252.515 37.564 252.515 40ZM278.612 27.904L270.968 44.984H268.392L275.924 28.38H265.872V26.308H278.612V27.904ZM294.59 39.216C294.59 42.464 292.126 45.32 288.038 45.32C282.83 45.32 280.842 40.756 280.842 35.688C280.842 30.62 283.194 26.028 288.43 26.028C290.838 26.028 292.462 26.952 293.61 28.268L292.434 30.004C291.482 28.884 290.39 28.1 288.43 28.1C284.818 28.1 283.166 31.768 283.166 35.436C283.166 35.688 283.166 35.912 283.194 36.164C284.006 34.876 286.078 33.252 288.486 33.252C291.846 33.252 294.59 35.24 294.59 39.216ZM283.25 38.068C283.474 40.392 284.706 43.248 287.954 43.248C290.838 43.248 292.238 41.092 292.238 39.3C292.238 36.556 290.334 35.268 287.926 35.268C286.078 35.268 284.286 36.416 283.25 38.068ZM311.133 39.216C311.133 42.464 308.669 45.32 304.581 45.32C299.373 45.32 297.385 40.756 297.385 35.688C297.385 30.62 299.737 26.028 304.973 26.028C307.381 26.028 309.005 26.952 310.153 28.268L308.977 30.004C308.025 28.884 306.933 28.1 304.973 28.1C301.361 28.1 299.709 31.768 299.709 35.436C299.709 35.688 299.709 35.912 299.737 36.164C300.549 34.876 302.621 33.252 305.029 33.252C308.389 33.252 311.133 35.24 311.133 39.216ZM299.793 38.068C300.017 40.392 301.249 43.248 304.497 43.248C307.381 43.248 308.781 41.092 308.781 39.3C308.781 36.556 306.877 35.268 304.469 35.268C302.621 35.268 300.829 36.416 299.793 38.068ZM327.564 39.16C327.564 42.968 324.68 45.32 320.928 45.32C317.764 45.32 315.748 44.172 314.348 42.324L315.776 40.784C317.008 42.352 318.632 43.248 320.928 43.248C323.476 43.248 325.24 41.512 325.24 39.244C325.24 36.78 323.476 35.212 320.956 35.212C319.304 35.212 317.904 35.744 316.644 36.976L314.936 36.388V26.308H326.36V28.38H317.26V34.876C318.156 33.98 319.752 33.196 321.628 33.196C324.736 33.196 327.564 35.324 327.564 39.16Z" fill="white"/>
</svg>
