<svg width="1174" height="1285" viewBox="0 0 1174 1285" fill="none" xmlns="http://www.w3.org/2000/svg">
<path fill-rule="evenodd" clip-rule="evenodd" d="M23.7931 1190.25C33.1084 1243.37 62.6085 1284.02 145.088 1284.02C145.088 1284.02 349.564 1280.01 569.212 1279.31V1280.29C802.588 1280.99 1019.84 1285 1019.84 1285C1107.48 1285 1138.82 1244.32 1148.72 1191.16C1161.09 1124.71 1181.2 997.384 1160.06 963.398C1160.06 906.008 1163.3 847.406 1166.65 786.675C1177.53 589.751 1189.64 370.447 1096.65 97.5101C1094.25 82.2924 1080.57 52.0599 1045.11 52.8715H1014.69C1012.1 51.9157 1007.52 50.7269 1001.67 49.2064L1001.67 49.2063C985.774 45.0777 960.462 38.5036 939.942 27.5084C909.98 11.4544 745.219 0.724369 569.212 0C403.558 0.723815 248.489 11.4457 220.29 27.4874C200.977 38.4741 177.154 45.0432 162.194 49.1686C156.684 50.688 152.376 51.876 149.938 52.831H121.313C87.9329 52.02 75.0597 82.2295 72.7956 97.4355C-14.7169 370.163 -3.31844 589.3 6.91683 786.073C10.0733 846.757 13.1192 905.315 13.1192 962.661C-6.77287 996.621 12.1489 1123.85 23.7931 1190.25ZM113 969.5L101.502 633C87.1691 628.167 40.5002 618 14.5002 618C13.3335 678.667 17.8008 838.7 31.0008 969.5C35.5008 977.167 63.4 987.9 113 969.5ZM1074.23 633.973L1062 969.859C1114.78 988.225 1144.46 977.512 1149.25 969.859C1163.3 839.297 1168.05 679.556 1166.81 619C1139.14 619 1089.49 629.148 1074.23 633.973ZM484 12C468.536 12 456 24.536 456 40V53C456 68.464 468.536 81 484 81H690C705.464 81 718 68.464 718 53V40C718 24.536 705.464 12 690 12H484Z" fill="white"/>
</svg>
