<svg width="1435" height="1178" viewBox="0 0 1435 1178" fill="none" xmlns="http://www.w3.org/2000/svg">
<path fill-rule="evenodd" clip-rule="evenodd" d="M495.163 1164.48C520.829 1174.31 586.563 1188.08 644.163 1164.48C701.763 1140.88 761.163 1113.31 783.663 1102.48C789.163 1102.15 801.863 1093.38 808.663 1060.98C809.653 1056.27 810.649 1050.78 811.754 1044.69L811.755 1044.68C820.141 998.484 834.78 917.83 900.163 879.481C992.948 825.059 1002.16 887.981 994.163 1007.98L1337.66 858.48C1343 857.314 1354.76 849.58 1359.16 827.98C1360.18 822.977 1361.32 816.256 1362.63 808.564L1362.63 808.552L1362.63 808.547C1368.36 774.726 1377.28 722.126 1393.16 713.98C1412.66 703.98 1427.66 708.98 1427.66 731.48V766.98V784.48C1431.33 773.48 1437.56 740.08 1433.16 694.48C1431.66 687.647 1427.16 671.68 1421.16 662.48C1419.66 650.98 1414.96 623.18 1408.16 603.98C1410.16 601.314 1413.96 593.68 1413.16 584.48C1412.36 575.28 1409.5 538.98 1408.16 521.98C1407 518.647 1402.96 511.68 1396.16 510.48C1389.36 509.28 1382.66 507.314 1380.16 506.48C1369 472.814 1345.46 403.08 1340.66 393.48C1339.3 390.755 1336.21 383.823 1332.09 374.58L1332.08 374.557L1332.07 374.549L1332.07 374.548C1318.04 343.091 1292.09 284.91 1281.66 274.48C1281.17 273.985 1280.68 273.497 1280.2 273.017L1280.1 272.911L1280.01 272.829C1267.53 260.308 1259.67 252.421 1225.16 239.48C1196.36 228.68 813.496 77.9805 625.663 3.98046C614.83 0.313791 588.463 -4.11954 569.663 7.48046C568.496 5.81373 559.363 3.48032 532.163 7.48046C498.163 12.4806 373.663 34.4806 345.163 44.4806L300.163 37.4806C296.163 37.314 282.563 38.4806 260.163 44.4806L202.663 61.4806C198.996 63.6473 192.763 70.1806 197.163 78.9806V86.4806L135.163 114.481C132.829 115.147 126.263 119.481 118.663 131.481L95.1627 137.481C89.8294 136.481 77.0627 142.981 68.6627 176.981C67.5814 181.358 65.8371 187.262 63.6245 194.751C44.3518 259.989 -10.4605 445.527 27.6627 789.981C24.996 790.314 18.8626 792.481 15.6626 798.481C14.0799 801.448 11.6362 803.163 9.16767 804.896C5.39732 807.542 1.56909 810.229 0.662598 817.481C-0.537402 827.081 0.162598 839.814 0.662598 844.981C0.495936 848.147 2.46261 854.481 11.6626 854.481C13.1627 879.314 18.4628 934.581 27.6627 956.981C25.1627 958.814 20.4626 963.381 21.6626 966.981C22.8626 970.581 26.1627 982.147 27.6627 987.481C30.1627 992.314 40.0626 1003.18 59.6626 1007.98C79.2626 1012.78 358.163 1114.31 495.163 1164.48ZM1319.66 400.98C1313.66 396.147 1301.96 391.08 1303.16 409.48C1304.36 427.88 1314.66 513.147 1319.66 553.481C1319.5 562.481 1324.66 582.781 1346.66 591.981H1364.16C1368.66 591.314 1377.66 584.981 1377.66 564.981C1377.66 544.981 1374 521.314 1372.16 511.981L1338.66 420.481C1336 413.98 1329.66 406.481 1319.66 400.98ZM340.547 96.0622L287.047 109.562L242.047 119.063L223.047 114.063C208.547 108.063 205.047 96.0622 201.547 80.5627C198.747 68.163 207.38 64.0628 212.047 63.5627L247.047 54.0622C283.847 42.4622 306.047 43.2289 312.547 45.0622L358.547 54.0622V68.5622C360.547 82.5622 347.38 92.7289 340.547 96.0622ZM69 788L62 547.5C54.1667 544.833 34.8 539.5 20 539.5C21.3333 591.667 26.1 714.4 34.5 788C37.8334 791.667 49.4 796.8 69 788ZM664 893.5V681.5C663.167 663.666 655.5 621 631.5 593L610.5 568.5C608 562.5 598.3 551.5 579.5 555.5L556.5 564V893.5L579.5 901H610.5C630.9 901 654.667 896 664 893.5Z" fill="white"/>
</svg>
