<svg width="1315" height="1162" viewBox="0 0 1315 1162" fill="none" xmlns="http://www.w3.org/2000/svg">
<path fill-rule="evenodd" clip-rule="evenodd" d="M799.647 1133.57L1245.65 996.075C1258.48 991.075 1285.45 959.975 1290.65 875.575C1292.02 853.259 1294.25 826.423 1296.8 795.613C1306.32 680.768 1320.43 510.693 1312.15 313.575L1280.65 157.576C1279.87 155.864 1279.29 153.988 1278.67 151.96C1274.32 137.903 1267.72 116.546 1178.15 92.0756C1075.65 64.0756 881.575 18.3296 750.647 8.07643C728.147 0.409433 664.647 -8.62455 590.647 16.5754C498.147 48.0754 193.147 153.075 171.647 160.575C150.147 168.075 121.647 182.575 102.147 234.575C82.6469 286.575 45.6459 395.575 12.1469 557.075C2.98057 571.742 -9.85231 617.675 12.1469 684.075V674.075C11.3731 669.161 9.96132 663.213 8.48104 656.977C3.58556 636.354 -2.05898 612.575 12.1469 612.575C19.9798 610.909 36.6455 613.075 40.6455 635.075C44.6455 657.075 56.6455 713.909 62.1455 739.575C60.6455 744.575 64.2455 758.675 90.6455 775.075C117.046 791.475 254.646 898.242 320.146 949.575L330.646 943.075C322.646 897.242 314.846 808.075 347.646 818.075C388.646 830.575 449.146 886.575 470.646 1026.08C475.146 1044.74 496.445 1088.88 545.646 1116.08L598.646 1149.08C609.98 1161.07 666.048 1174.76 799.647 1133.57ZM939.066 78C941.066 72 949.066 60 965.066 60C985.066 60 1036.07 66 1061.57 72C1081.97 76.8 1099.07 81.6667 1105.07 83.5C1108.73 85 1115.47 90.4 1113.07 100C1112.92 100.585 1112.77 101.178 1112.63 101.777L1112.63 101.789L1112.62 101.793L1112.62 101.795C1109.76 113.503 1106.26 127.82 1081.07 134L965.066 115C951.566 113.167 927.466 103.2 939.066 78ZM663.221 569C681.221 571.8 684.388 591.167 683.721 600.5L668.721 890C666.888 892 659.221 897.4 643.221 903C627.221 908.6 606.554 905.333 598.221 903L570.221 890C570.054 850.833 569.821 760.6 570.221 713C570.721 653.5 583.721 618 598.221 595.5C609.821 577.5 633.054 570.333 643.221 569H663.221ZM1284 791.5C1294.73 787 1308.2 573.4 1305 549C1295.66 549.5 1274.7 551.4 1265.5 555C1265.5 555 1238 783 1242.5 791.5C1247 800 1273.26 796 1284 791.5ZM96.5 358L101 325.5C101 321.333 99.1 313.7 91.5 316.5C82 320 80 321.5 76 333C72 344.5 37.5 454.5 36 486C35.1667 494 35.4 510.3 43 511.5C43.8058 511.627 44.734 511.79 45.7591 511.971C56.8194 513.916 79.1696 517.846 81 500C82.6 484.4 92 398.833 96.5 358Z" fill="white"/>
</svg>
