<svg width="1436" height="1107" viewBox="0 0 1436 1107" fill="none" xmlns="http://www.w3.org/2000/svg">
<path fill-rule="evenodd" clip-rule="evenodd" d="M986.89 903.37L1314.78 668.396C1317.47 667.498 1324.74 658.835 1332.28 631.365C1339.82 603.895 1347.54 579.074 1350.46 570.097C1353.15 560.895 1360.96 541.684 1370.66 538.453C1382.78 534.413 1393.55 538.453 1392.88 549.225L1384.12 606.454C1383 612.514 1383.18 622.074 1392.88 611.841C1405 599.048 1419.81 576.157 1423.17 525.661C1423.64 518.693 1424.54 508.982 1425.65 497.054L1425.65 497.022L1425.65 497.011C1432.56 422.47 1447.5 261.426 1414.42 141.891C1413.08 134.261 1405.67 117.249 1386.82 110.247C1367.97 103.245 1195.38 39.5528 1111.45 8.58194C1102.69 5.21554 1079.13 0.0986124 1054.89 6.5621C1050.4 3.64444 1033.35 -1.65226 1001.03 0.502231C994.906 0.910398 985.257 1.45775 972.99 2.15368L972.987 2.15384L972.986 2.15391C904.309 6.04985 753.562 14.6015 679.874 29.4534C677.519 29.8169 675.099 30.1645 672.601 30.5232C642.72 34.8146 601.704 40.705 528.386 94.7615C448.939 153.337 319.669 294.726 242.242 390.331C235.958 396.391 222.178 409.452 217.331 413.223C216.479 413.885 214.742 415.098 212.356 416.763L212.355 416.764C197.772 426.942 158.944 454.042 149.686 476.028C148.774 476.94 147.884 477.823 147.01 478.69L147.006 478.693C131.741 493.83 121.575 503.909 95.467 570.77C72.3511 588.276 24.638 639.58 18.7131 704.753C17.8154 718.219 16.02 747.843 16.02 758.615C9.51166 777.018 -2.69715 820.153 0.534593 845.468C4.57427 877.113 9.96047 918.183 63.1496 945.114C105.701 966.659 267.153 1038.48 342.561 1071.69C373.98 1088.07 458.096 1117.2 543.198 1102.66C628.301 1088.12 689.973 1075.95 710.172 1071.69C720.72 1067.65 744.105 1049.34 753.261 1008.4C754.478 1002.96 755.801 996.709 757.26 989.814C769.525 931.851 791.376 828.583 840.115 782.853C883.743 741.918 916.195 727.644 926.968 725.625C946.717 716.423 987.024 707.177 990.256 743.803C993.488 780.43 984.87 861.627 979.484 901.351L986.89 903.37ZM149.012 484.119C149.237 482.771 148.742 480.883 144.966 484.119C140.247 488.165 124.064 507.044 97.7682 571.099C96.4197 575.819 94.1272 587.281 95.7454 595.372C96.4197 600.092 99.3866 610.476 105.859 614.252C108.556 590.877 117.322 538.735 130.807 517.158C147.663 490.188 150.361 485.837 149.012 484.119ZM488.48 157.816C433.944 166.569 415.093 200.906 415.093 200.906C415.093 200.906 299.693 335.023 271.684 365.186C243.676 395.349 260.014 408.276 271.684 410.969C366.617 445.979 605.631 455.405 705.95 456.752C786.204 457.829 832.302 403.338 845.318 375.958L943.617 200.906C969.202 152.427 936.66 145.47 920.053 145.695C683.058 137.612 543.016 149.063 488.48 157.816ZM1066.83 474.255C1033.41 491.758 943.617 503.206 943.617 503.206C887.062 516.495 891.326 466.551 900.528 439.918C922.97 386.504 973.376 269.174 995.46 227.161C1023.06 174.645 1049.32 157.816 1091.07 157.816C1124.46 157.816 1132.81 193.722 1132.81 211.676C1132.81 235.487 1130.31 269.695 1126.63 320.182L1126.63 320.194L1126.63 320.202L1126.62 320.309L1126.62 320.345C1125.62 334.054 1124.53 348.962 1123.38 365.186C1119.07 426.052 1100.24 456.752 1066.83 474.255ZM464.241 632.782C481.181 617.677 492.508 607.578 578.196 589.747C671.514 570.328 745.637 556.034 771.035 551.314C781.598 550.19 800.837 551.044 793.285 563.45C785.733 575.857 768.113 605.929 760.246 619.414C755.077 632.899 719.521 662.702 618.651 674.029C517.782 685.357 453.907 688.189 434.578 688.189C422.891 691.335 413.676 683.469 423.116 674.029C441.995 655.15 455.255 641.44 459.526 636.945C461.18 635.512 462.733 634.127 464.241 632.782Z" fill="white"/>
</svg>
