<svg width="1219" height="1281" viewBox="0 0 1219 1281" fill="none" xmlns="http://www.w3.org/2000/svg">
<path fill-rule="evenodd" clip-rule="evenodd" d="M306.347 12.0466C260.745 23.9144 256.786 31.6838 248.087 48.7576C246.103 52.6506 243.873 57.0273 240.847 62.0466C199.847 130.048 122.014 374.048 89.3471 489.048L34.8472 741.046C-7.65378 857.5 -7.15284 911.546 14.3472 1089.05C31.5472 1231.05 160.18 1271.88 222.347 1274.55C259.389 1274.94 304.078 1275.71 353.165 1276.54H353.166H353.167H353.169C531.79 1279.6 768.627 1283.65 907 1274.55C1083.4 1262.95 1195.51 1131.71 1203.85 1072.05C1233.85 899.246 1211.68 797.046 1196.85 767.546C1156.35 535.546 1036.85 151.046 1013.85 93.0461C995.447 46.6461 947.181 29.0464 925.347 26.0466C824.347 -9.95341 362.347 -2.52724 306.347 12.0466ZM297 814.499L239.5 714C231 698 219.2 690.699 194 677.499C168.8 664.299 111.167 623.666 85.4999 604.999C76.5 598.454 71.3 604.9 66.5 612.5C61.7 620.1 57.3333 653.499 56.9999 670.499C54.4999 683.499 56.6999 714.599 85.4999 734.999C121.5 760.499 238.5 808.5 297 814.499ZM998 711L945 801C1009 794 1092.5 763.5 1127 745C1158.85 727.922 1163 691.67 1165.02 674.005L1165.02 674.002C1165.19 672.532 1165.35 671.191 1165.5 670C1167.5 654.5 1164 624.5 1157.5 616C1152.3 609.2 1145.33 613.166 1142.5 616C1124.17 628.833 1080.3 658.4 1051.5 674C1022.7 689.6 1003.83 705.166 998 711ZM198.5 192L131 417C119.166 448.5 110.1 515.6 168.5 532C241.5 552.5 948.5 630.5 1079.5 532C1099.17 529 1132.6 501.8 1109 417C1085.4 332.2 1053.5 231.666 1040.5 192C1040.67 186 1031.7 173.4 994.5 171C989.697 170.69 981.558 170.049 970.457 169.175C874.097 161.589 554.497 136.428 255 157.5C239.717 157.166 207.02 163.6 198.5 192Z" fill="white"/>
</svg>
