<svg width="1419" height="1021" viewBox="0 0 1419 1021" fill="none" xmlns="http://www.w3.org/2000/svg">
<path fill-rule="evenodd" clip-rule="evenodd" d="M15.4554 551.946C-21.3446 370.746 16.1221 176.779 39.4554 102.446C47.1999 74.4457 79.0155 68.7794 93.9553 69.4464C436.355 -3.35364 541.289 -4.88697 550.955 3.44636C716.839 12.9125 887.67 75.1357 910.955 87.4463C1032.96 151.946 1224.46 430.446 1224.46 430.446C1224.46 430.446 1238.31 451.644 1257.46 462.446C1284.86 477.907 1315.18 514.638 1336.47 557.823L1341.5 576C1346 589.167 1354.5 619.8 1352.5 637L1358.5 617C1358.12 614.753 1357.63 612.149 1357.04 609.299C1362.82 619.301 1367.23 622.704 1372.04 626.417C1379.81 632.415 1388.64 639.223 1405.96 675.946C1440.36 821.546 1396.62 888.446 1373.46 904.446C1292.46 957.446 1122.46 1003.95 972.955 1018.95C853.355 1030.95 815.122 969.279 810.955 936.946C805.622 907.613 793.355 839.446 786.955 801.446C778.955 753.946 733.455 721.446 633.955 687.946C554.355 661.146 550.122 790.113 557.955 857.946L137.955 635.946C130.789 599.779 109.855 524.846 83.4553 514.446C57.0553 504.046 57.7887 570.113 61.4553 604.446C17.4553 590.046 12.4554 563.446 15.4554 551.946ZM1050.22 221.863C1005.02 193.063 766.057 167.529 652.223 158.363C622.623 155.823 628.223 172.638 634.723 181.363C655.223 221.029 708.223 320.563 756.223 401.363C804.223 482.163 905.223 492.696 949.723 487.863C1071.69 496.575 1155.11 485.322 1195.98 479.809C1204.36 478.678 1210.96 477.788 1215.72 477.363C1238.12 475.363 1225.06 439.529 1215.72 421.863C1184.06 379.196 1115.22 287.063 1093.22 259.863C1071.22 232.663 1055.39 223.196 1050.22 221.863ZM691.546 406.104L597.046 213.104C587.546 195.938 558.446 161.104 518.046 159.104C481.347 157.288 477.903 158.084 481.327 158.87C470.455 157.083 450.242 161.641 447.546 193.604C444.746 226.805 446.379 316.104 447.546 356.604C447.546 382.771 459.146 439.305 505.546 456.104C551.946 472.904 636.546 491.104 673.046 498.104C699.046 505.236 737.946 498.421 691.546 406.104ZM800.5 553.5C795.333 544.333 791.7 527.5 818.5 533.5C845.3 539.5 964.667 569 1021 583C1035.67 587.5 1067.3 599 1076.5 609C1088 621.5 1128 665 1132 682L898 651.5C885.333 648.167 855.2 635 836 609C816.8 583 804.333 561.167 800.5 553.5Z" fill="white"/>
</svg>
