<svg width="1720" height="720" viewBox="0 0 1720 720" fill="none" xmlns="http://www.w3.org/2000/svg">
<path fill-rule="evenodd" clip-rule="evenodd" d="M1714.93 512.713C1726.98 550.365 1709.91 627.539 1699.86 661.419C1687.81 676.64 1577.65 675.105 1524.08 672.434C1497.46 563.283 1448.24 550.265 1386.47 546.26C1283.51 550.265 1263.25 646.398 1255.89 697.969C1087.14 683.95 621.399 703.811 409.623 715.494C406.777 690.626 395.661 630.076 373.965 586.816C349.388 537.812 273.667 545.141 197.261 552.536L197.251 552.537L197.241 552.538L197.231 552.539C189.334 553.303 181.429 554.068 173.573 554.771C106.475 560.78 101.754 667.427 107.781 720C51.1285 717.597 24.9119 695.633 18.885 684.951C-8.83826 648.501 -0.0324707 610.015 7.83582 595.328C3.3584 550.244 15.2468 521.874 20.7261 508.799L20.7286 508.793C21.3943 507.204 21.9652 505.841 22.4006 504.702C25.615 496.29 47.5125 481.17 58.0593 474.661C63.6776 453.549 79.7095 426.134 88.2327 411.559L88.2334 411.557L88.2411 411.544C89.6189 409.188 90.8002 407.168 91.709 405.565C96.9323 396.352 124.689 384.035 137.915 379.028C168.852 372.219 207.056 345.148 222.29 332.464L546.733 50.5739C590.93 20.9329 654.546 10.8523 680.83 9.51707C727.035 9.51707 1524.08 0.00387204 1524.08 0.00387204C1531.6 0.00396459 1539.77 0.0414504 1548.6 0.0820132C1568.66 0.174133 1592.17 0.282123 1619.51 0.0040234C1658.88 -0.396531 1674.08 29.2111 1676.76 44.065C1736.33 182.325 1721.2 362.819 1707.9 508.207L1714.93 512.713ZM1674.5 512H1702C1709.6 453.6 1712.17 357 1712.5 316C1694.1 335.2 1679.5 372.333 1674.5 388.5V512ZM250.463 373.016L450.854 179.749C453.74 177.512 462.918 174.458 474.079 171.337C480.538 168.888 485.94 167.65 489.764 167.2C490.383 167.045 491.002 166.89 491.621 166.736C493.16 165.874 503.276 162.959 535.5 155.5C578.7 145.5 600.5 155 606 161C618.665 166.666 615.794 183.872 613.521 197.491C613.138 199.787 612.772 201.981 612.5 204C610.822 216.462 607.675 237.215 603.574 259.893C600.562 278.255 597.859 293.398 594.995 307.426C594.101 312.754 592.245 319.274 589.219 326.279C588.651 328.389 588.078 330.454 587.5 332.464C582.929 348.373 570.391 360.157 555.039 368.71C540.764 378.849 522.091 386.381 498.064 388.037C451.964 391.714 389.097 395.448 338.338 398.195C315.097 399.582 294.365 400.686 279.985 401.2C277.357 401.327 274.878 401.446 272.561 401.556C271.453 401.568 270.286 401.549 269.084 401.493C268.887 401.495 268.692 401.498 268.5 401.5C238.855 401.845 240.253 388.846 246.326 379.593C247.297 377.577 248.657 375.389 250.463 373.016ZM109 419C80.6 424.6 65.8333 460.667 61.9999 478C67.6666 478 82.1998 477.1 94.9999 473.5C107.8 469.9 124.667 458.333 131.5 453C139 444.667 155.7 426.2 162.5 419C169.3 411.8 159.667 409.667 154 409.5C150.833 410.333 137.4 413.4 109 419Z" fill="white"/>
</svg>
