<svg width="1720" height="720" viewBox="0 0 1720 720" fill="none" xmlns="http://www.w3.org/2000/svg">
<path fill-rule="evenodd" clip-rule="evenodd" d="M5.06956 512.713C-6.98406 550.365 10.0919 627.539 20.1366 661.419C32.1902 676.64 142.347 675.105 195.919 672.434C222.537 563.283 271.756 550.265 333.531 546.26C436.489 550.265 456.746 646.398 464.112 697.969C632.862 683.95 1098.6 703.811 1310.38 715.494C1313.22 690.626 1324.34 630.076 1346.04 586.816C1370.61 537.812 1446.33 545.141 1522.74 552.536L1522.75 552.537L1522.76 552.538L1522.77 552.539C1530.67 553.303 1538.57 554.068 1546.43 554.771C1613.53 560.78 1618.25 667.427 1612.22 720C1668.87 717.597 1695.09 695.633 1701.11 684.951C1728.84 648.501 1720.03 610.015 1712.16 595.328C1716.64 550.244 1704.75 521.874 1699.27 508.799L1699.27 508.793C1698.61 507.204 1698.03 505.841 1697.6 504.702C1694.39 496.29 1672.49 481.17 1661.94 474.661C1656.32 453.549 1640.29 426.134 1631.77 411.559L1631.77 411.557L1631.76 411.544C1630.38 409.188 1629.2 407.168 1628.29 405.565C1623.07 396.352 1595.31 384.035 1582.09 379.028C1551.15 372.219 1512.94 345.148 1497.71 332.464L1173.27 50.5739C1129.07 20.9329 1065.45 10.8523 1039.17 9.51707C992.965 9.51707 195.919 0.00387204 195.919 0.00387204C188.395 0.00396459 180.233 0.0414504 171.402 0.0820132C151.344 0.174133 127.832 0.282123 100.494 0.0040234C61.1188 -0.396531 45.9179 29.2111 43.2393 44.065C-16.3303 182.325 -1.2001 362.819 12.1008 508.207L5.06956 512.713ZM45.5 512H18C10.4 453.6 7.83333 357 7.5 316C25.9 335.2 40.5 372.333 45.5 388.5V512ZM1469.54 373.016L1269.15 179.749C1266.26 177.512 1257.08 174.458 1245.92 171.338C1239.46 168.888 1234.06 167.65 1230.23 167.2C1229.62 167.045 1229 166.89 1228.38 166.736C1226.84 165.875 1216.73 162.96 1184.5 155.5C1141.3 145.5 1119.5 155 1114 161C1101.33 166.666 1104.21 183.872 1106.48 197.491C1106.86 199.787 1107.23 201.981 1107.5 204C1109.18 216.464 1112.33 237.222 1116.43 259.906C1119.44 278.262 1122.14 293.402 1125 307.426C1125.9 312.754 1127.76 319.273 1130.78 326.278C1131.35 328.389 1131.92 330.453 1132.5 332.464C1137.07 348.373 1149.61 360.157 1164.96 368.71C1179.24 378.849 1197.91 386.381 1221.94 388.037C1268.05 391.715 1330.93 395.45 1381.7 398.197C1404.92 399.583 1425.63 400.685 1440 401.199C1442.63 401.327 1445.12 401.446 1447.44 401.556C1448.55 401.569 1449.72 401.549 1450.92 401.493C1451.12 401.495 1451.31 401.498 1451.5 401.5C1481.14 401.845 1479.75 388.847 1473.67 379.594C1472.7 377.578 1471.34 375.39 1469.54 373.016ZM1611 419C1639.4 424.6 1654.17 460.667 1658 478C1652.33 478 1637.8 477.1 1625 473.5C1612.2 469.9 1595.33 458.333 1588.5 453C1581 444.667 1564.3 426.2 1557.5 419C1550.7 411.8 1560.33 409.667 1566 409.5C1569.17 410.333 1582.6 413.4 1611 419Z" fill="white"/>
</svg>
